<?xml version="1.0" encoding="UTF-8" standalone="no"?>
<svg
   xmlns:dc="http://purl.org/dc/elements/1.1/"
   xmlns:cc="http://creativecommons.org/ns#"
   xmlns:rdf="http://www.w3.org/1999/02/22-rdf-syntax-ns#"
   xmlns:svg="http://www.w3.org/2000/svg"
   xmlns="http://www.w3.org/2000/svg"
   viewBox="0 0 8178.3335 7704.0269"
   height="7704.0269"
   width="8178.3335"
   xml:space="preserve"
   id="svg2"
   version="1.1"><metadata
     id="metadata8"><rdf:RDF><cc:Work
         rdf:about=""><dc:format>image/svg+xml</dc:format><dc:type
           rdf:resource="http://purl.org/dc/dcmitype/StillImage" /></cc:Work></rdf:RDF></metadata><defs
     id="defs6"><clipPath
       id="clipPath18"
       clipPathUnits="userSpaceOnUse"><path
         id="path16"
         d="M 0,5778.02 H 6133.754 V 0 H 0 Z" /></clipPath></defs><g
     transform="matrix(1.3333333,0,0,-1.3333333,0,7704.0267)"
     id="g10"><g
       id="g12"><g
         clip-path="url(#clipPath18)"
         id="g14"><g
           transform="translate(1172.4619,1374.2137)"
           id="g20"><path
             id="path22"
             style="fill:#005db9;fill-opacity:1;fill-rule:nonzero;stroke:none"
             d="m 0,0 c -49.729,22.993 -114.208,34.048 -165.77,34.048 -150.142,0 -233.014,-101.315 -233.014,-233.013 0,-130.765 81.036,-229.292 218.261,-229.292 35.005,0 62.619,3.669 84.734,9.194 v 167.607 h -136.296 v 101.317 H 27.614 v -346.266 c -68.148,-18.446 -139.058,-33.169 -208.137,-33.169 -208.135,0 -352.721,104.054 -352.721,321.414 0,220.096 134.46,343.525 352.721,343.525 74.608,0 133.558,-10.126 188.813,-26.709 z" /></g><path
           id="path24"
           style="fill:#005db9;fill-opacity:1;fill-rule:nonzero;stroke:none"
           d="m 1416.503,1498.524 h 128.935 V 855.697 h -128.935 z" /><g
           transform="translate(1710.3032,1498.5243)"
           id="g26"><path
             id="path28"
             style="fill:#005db9;fill-opacity:1;fill-rule:nonzero;stroke:none"
             d="m 0,0 h 138.153 l 164.842,-504.675 h 1.859 L 467.86,0 H 595.863 L 379.434,-642.827 H 221.028 Z" /></g><g
           transform="translate(2482.0894,1498.5243)"
           id="g30"><path
             id="path32"
             style="fill:#005db9;fill-opacity:1;fill-rule:nonzero;stroke:none"
             d="M 0,0 H 379.433 V -101.317 H 128.932 V -259.726 H 358.25 V -361.043 H 128.932 v -180.47 H 381.269 V -642.827 H 0 Z" /></g><g
           transform="translate(3534.7559,1193.6942)"
           id="g34"><path
             id="path36"
             style="fill:#005db9;fill-opacity:1;fill-rule:nonzero;stroke:none"
             d="m 0,0 c 69.994,40.507 124.321,81.943 124.321,170.394 0,104.055 -94.858,145.491 -185.081,145.491 -90.26,0 -195.27,-48.823 -195.27,-146.42 0,-73.677 39.602,-107.777 89.355,-154.738 -102.246,-43.299 -135.388,-99.458 -135.388,-176.855 0,-120.639 102.219,-186.927 229.317,-186.927 63.551,0 129.85,22.112 174.981,68.148 l 43.27,-57.09 H 303.913 L 188.8,-209.092 c 51.589,61.741 78.274,138.155 81.97,220.149 H 158.422 c -1.86,-49.755 -9.222,-104.108 -40.531,-140.016 z m -71.814,66.288 c -24.879,24.903 -60.787,55.282 -60.787,91.189 0,46.964 36.838,68.148 73.677,68.148 36.838,0 70.9,-21.184 70.9,-66.286 0,-37.769 -51.552,-76.468 -83.79,-93.051 M 42.354,-214.621 c -28.545,-27.588 -69.04,-38.646 -112.335,-38.646 -59.856,0 -108.68,38.646 -108.68,94.859 0,50.633 35.934,81.012 78.274,103.127 z" /></g><g
           transform="translate(4644.5283,1374.2137)"
           id="g38"><path
             id="path40"
             style="fill:#005db9;fill-opacity:1;fill-rule:nonzero;stroke:none"
             d="m 0,0 c -49.729,22.993 -114.208,34.048 -165.77,34.048 -150.118,0 -233.013,-101.315 -233.013,-233.013 0,-130.765 81.036,-229.292 218.261,-229.292 35.004,0 62.646,3.669 84.734,9.194 v 167.607 h -136.297 v 101.317 H 27.642 v -346.266 c -68.149,-18.446 -139.085,-33.169 -208.164,-33.169 -208.135,0 -352.721,104.054 -352.721,321.414 0,220.096 134.46,343.525 352.721,343.525 74.605,0 133.558,-10.126 188.813,-26.709 z" /></g><g
           transform="translate(4813.0605,1178.9706)"
           id="g42"><path
             id="path44"
             style="fill:#005db9;fill-opacity:1;fill-rule:nonzero;stroke:none"
             d="m 0,0 c 0,-197.107 108.68,-334.331 314.983,-334.331 203.538,0 314.981,139.963 314.981,334.331 0,194.315 -113.304,330.608 -314.981,330.608 C 110.516,330.608 0,197.053 0,0 m 134.463,0 c 0,113.25 52.491,229.291 180.52,229.291 128,0 180.495,-116.041 180.495,-229.291 0,-116.041 -48.798,-233.014 -180.495,-233.014 -131.696,0 -180.52,116.973 -180.52,233.014" /></g><g
           transform="translate(3786.9502,4334.2207)"
           id="g46"><path
             id="path48"
             style="fill:#005db9;fill-opacity:1;fill-rule:nonzero;stroke:none"
             d="m 0,0 c 12.814,-2.169 23.456,-5.891 19.581,-19.53 -48.978,-7.854 -164.141,-24.541 -178.143,-70.471 44.018,7.955 158.562,29.294 185.946,5.889 21.493,-68.561 15.449,-140.582 1.757,-197.417 -89.901,-38.904 -251.975,-2.581 -321.557,31.001 -39.11,35.339 -71.039,108.653 -88.813,156.393 C -292.21,-47.015 -124.617,21.027 0,0 m 575.352,-1679.62 c 0,0 -494.237,190.13 -860.536,74.399 77.695,70.989 223.031,273.428 255.115,358.625 120.073,23.56 245.672,24.334 367.191,4.857 4.96,43.501 8.42,87.522 8.42,132.421 0,70.058 -7.285,138.359 -18.445,205.217 98.941,37.716 215.242,90.413 270.057,147.298 l -155.874,193.078 -0.259,-0.622 98.115,-155.618 C 434.355,-829.083 116.767,-914.54 116.767,-914.54 l -58.745,87.938 c -102.97,-484.472 -483.322,-818.195 -483.322,-818.195 -350.917,-132.781 -587.132,-46.603 -587.132,-46.603 398.808,355.785 618.595,900.499 642.31,1026.613 -63.444,-37.816 -218.34,-129.577 -229.963,-131.333 -14.623,-1.963 25.159,-267.578 25.159,-267.578 0,0 -142.907,-42.522 -212.345,-56.884 -48.775,154.223 -40.558,457.139 -40.558,457.139 l 481.423,267.011 h 0.05 l 0.312,0.207 v -0.104 c 34.201,2.997 99.441,1.497 99.494,0.878 24.8,-266.595 -28.817,-374.835 -28.817,-374.835 82.911,-14.52 242.817,-86.179 273.87,-13.28 48.515,113.819 53.784,329.94 53.784,329.94 -1.55,21.337 12.295,-2.738 20.408,-18.343 L 206.82,-675.842 c 18.859,2.014 36.836,6.095 54.197,10.952 -38.595,100.027 -90.313,193.437 -152.207,278.843 C 138,-225.935 143.838,-71.608 96.255,76.827 23.975,84.112 -44.793,75.587 -109.428,59.106 -195.709,37.148 -274.539,0.619 -343.05,-35.029 c -3.097,12.605 -6.251,25.109 -9.401,37.613 -3.825,15.086 -7.595,30.223 -11.367,45.259 -1.035,4.288 -2.169,8.629 -3.203,12.967 l -20.459,72.283 c -14.777,52.337 -25.421,101.78 -45.054,140.891 -14.984,1.035 -17.772,-4.857 -19.891,-16.687 -0.775,-39.885 15.862,-121.156 25.729,-167.296 2.118,-14.568 4.96,-35.338 8.731,-57.969 -145.388,60.606 -304.724,94.342 -472.175,94.342 -453.213,0 -848.303,-244.69 -1063.387,-608.522 l 1192.656,25.059 -30.017,-65.616 h -1186.973 c -22.527,-41.642 -41.954,-85.301 -59.675,-129.68 l 1016.526,21.337 -29.966,-65.461 h -1002.731 c -15.086,-42.677 -28.106,-86.179 -38.544,-130.714 l 1103.998,21.339 -30.017,-65.46 h -1084.211 c -8.42,-43.299 -14.258,-87.316 -18.03,-131.956 l 1151.994,20.975 -29.913,-65.614 h -1124.303 c -0.982,-20.462 -3.1,-40.661 -3.1,-61.379 0,-201.138 49.03,-390.401 134.227,-558.11 91.554,91.76 361.662,401.355 361.662,401.355 63.135,-44.383 148.851,-80.187 148.851,-80.187 239.73,-74.203 723.322,34.566 723.322,34.566 0,0 -247.168,-304.171 -330.197,-343.23 -348.848,-122.241 -659.051,37.096 -659.051,37.096 -81.322,-31.62 -208.73,-50.116 -242.159,-54.56 204.858,-399.17 619.632,-672.69 1099.038,-672.69 478.014,0 891.793,271.868 1097.32,669.074 226.556,-28.934 410.692,-99.302 410.692,-99.302 0,0 139.757,370.495 276.519,506.752 -138.415,-132.897 -319.039,-411.066 -319.039,-411.066" /></g><g
           transform="translate(3279.8105,4510.041)"
           id="g50"><path
             id="path52"
             style="fill:#005db9;fill-opacity:1;fill-rule:nonzero;stroke:none"
             d="m 0,0 c -33.892,25.937 -95.893,67.888 -79.875,127.77 13.948,35.957 48.928,76.671 93.93,91.654 41.126,13.692 60.653,5.994 88.037,7.801 56.679,45.208 78.325,74.349 146.835,111.6 62.606,37.148 157.361,69.904 190.427,-19.324 7.182,-41.383 3.307,-60.966 -34.1,-85.507 L 487.662,2.169 c -103.901,-37.923 -215.343,-93.93 -232.949,-133.041 90.04,31.31 174.205,72.333 340.568,74.35 14.88,0.153 -76,214.258 -100.077,296.148 38.079,33.944 54.199,72.899 40.042,135.778 C 515.253,441.33 456.3,464.011 391.408,455.332 267.566,437.352 182.329,354.53 95.841,263.651 43.917,281.631 -16.015,269.592 -55.954,231.566 -93.826,189.717 -115.835,127.77 -95.893,71.867 -80.806,26.349 -43.915,-12.04 0,0" /></g><g
           transform="translate(5589.4473,1384.9091)"
           id="g54"><path
             id="path56"
             style="fill:#005db9;fill-opacity:1;fill-rule:nonzero;stroke:none"
             d="m 0,0 h 11.909 c 14.75,0 26.194,4.754 26.194,17.128 0,10.023 -7.156,17.618 -24.285,17.618 -6.2,0 -10.462,0 -13.818,-0.466 z M 0,-68.585 H -25.215 V 50.454 c 9.507,1.444 19.995,3.357 38.078,3.357 20.459,0 32.861,-3.357 40.945,-9.532 C 60.474,39.034 64.27,30.95 64.27,18.576 64.27,4.288 54.3,-5.708 41.436,-9.065 v -0.931 c 10.486,-1.913 17.152,-11.418 19.038,-29.038 2.402,-18.599 4.78,-25.728 6.664,-29.551 H 40.97 c -2.867,4.288 -4.781,14.774 -7.156,30.975 -1.912,12.837 -9.533,18.08 -22.397,18.08 L 0,-19.53 Z m 18.083,148.1 c -44.745,0 -80.936,-38.569 -80.936,-86.178 0,-48.103 36.191,-85.716 81.425,-85.716 45.235,-0.489 81.917,37.613 81.917,85.716 0,47.609 -36.682,86.178 -81.917,86.178 z m 0.981,21.417 c 59.028,0 106.172,-48.077 106.172,-107.106 0,-60.009 -47.144,-107.619 -106.664,-107.619 -59.027,0 -107.129,47.61 -107.129,107.619 0,59.029 48.102,107.106 107.129,107.106 z" /></g></g></g></g></svg>