<?xml version="1.0" encoding="UTF-8" standalone="no"?>
<svg
   xmlns:dc="http://purl.org/dc/elements/1.1/"
   xmlns:cc="http://creativecommons.org/ns#"
   xmlns:rdf="http://www.w3.org/1999/02/22-rdf-syntax-ns#"
   xmlns:svg="http://www.w3.org/2000/svg"
   xmlns="http://www.w3.org/2000/svg"
   viewBox="0 0 356.65332 83.306664"
   height="83.306664"
   width="356.65332"
   xml:space="preserve"
   id="svg2"
   version="1.1"><metadata
     id="metadata8"><rdf:RDF><cc:Work
         rdf:about=""><dc:format>image/svg+xml</dc:format><dc:type
           rdf:resource="http://purl.org/dc/dcmitype/StillImage" /></cc:Work></rdf:RDF></metadata><defs
     id="defs6" /><g
     transform="matrix(1.3333333,0,0,-1.3333333,0,83.306667)"
     id="g10"><g
       transform="scale(0.1)"
       id="g12"><path
         id="path14"
         style="fill:#231f20;fill-opacity:1;fill-rule:nonzero;stroke:none"
         d="m 381.063,344.133 c 4.64,4.949 9.386,9.805 14.027,14.566 11.14,11.43 22.652,23.235 32.691,36.145 15.024,18.351 31.438,37.922 49.731,56.828 9.031,9.461 19.441,22.012 30.457,35.293 20.73,24.988 44.219,53.32 69.051,74.324 28.07,23.691 59.425,31.086 80.793,33.117 1.894,0.164 4.394,-0.976 6.679,-3.058 2.703,-2.469 4.113,-5.321 4.113,-6.864 0,-24.902 -35.507,-56.757 -64.042,-82.367 -12.356,-11.09 -24.036,-21.558 -31.379,-30.172 -33.055,-38.359 -86.164,-79.035 -138.567,-106.117 -19.004,-9.5 -37.293,-16.316 -53.554,-21.695 z M 237.168,212.473 C 227.285,198.508 217.051,184.063 206.711,170.762 174.023,128.215 140.422,93.4688 100.969,61.4648 97.6758,58.8672 94.4531,56.0938 91.2305,53.3398 77.5977,41.6797 64.7188,30.6836 47.1094,30.6836 c -6.2696,0 -15.2461,9.668 -15.2461,16.4258 0,5.0586 15.0898,20.6953 31.0664,37.2148 5.7812,6 12.0508,12.4844 18.5351,19.3988 23.4572,24.605 49.2652,48.808 75.8482,73.476 l 10.812,9.989 c 17.871,16.523 34.758,32.136 41.008,35.988 16.961,10.801 34.43,18.687 53.152,24.012 -8.523,-11.321 -16.933,-23.172 -25.117,-34.715 z m -18.984,-72.364 c 22.296,27.246 43.496,55.215 60.539,77.684 11.441,15.09 21.382,28.203 29.382,38.145 h 6.211 c 62.356,0 70.762,-50.43 77.52,-90.95 4.453,-26.715 8.301,-49.785 27.578,-49.785 18.289,0 25.137,41.582 25.137,50.07 0,13.606 -4.246,26.379 -8.352,38.731 -1.265,3.828 -2.539,7.648 -3.679,11.484 -1.399,4.5 -2.461,8.926 -3.497,13.25 -3.027,12.524 -5.878,24.348 -15.578,35.434 -15.41,17.187 -45.515,30.144 -70.039,30.144 -1.551,0 -3.023,-0.078 -4.468,-0.203 l 8.777,10.899 c 23.348,-2.649 62.988,11.57 104.265,37.519 54.536,34.891 123.364,84.918 145.618,112.285 7.89,9.532 19.238,20.379 31.25,31.875 32.175,30.782 68.652,65.684 68.652,100.762 0,20.371 -21.523,35.059 -41.426,36.981 -35.32,3.859 -67.558,-20.418 -94.98,-43.446 -27.473,-22.617 -52.84,-51.035 -75.215,-76.117 -10.566,-11.812 -20.535,-22.996 -29.551,-32.207 -21.601,-22.301 -38.469,-41.434 -53.086,-60.23 -5.5,-7.161 -11.179,-14.551 -17.722,-20.743 -32.422,-0.089 -63.696,-4.074 -63.696,-45.902 0,-6.344 2.016,-12.754 5.715,-18.277 l -35.625,-42.856 c -33.562,-3.699 -68.769,-16.66 -99.309,-36.597 -5.41,-3.606 -13.765,-11.446 -23.445,-20.508 C 162.422,221.23 154.785,214.074 147.129,207.41 123.02,185.859 87.7422,152.98 56.6523,118.723 22.6484,81.5742 0,53.457 0,37.0117 0,12.7148 21.3086,0 42.3516,0 96.9219,0 168.84,79.9727 218.184,140.109" /><path
         id="path16"
         style="fill:#231f20;fill-opacity:1;fill-rule:nonzero;stroke:none"
         d="m 2295.12,305.215 c 5.51,0 10.91,-3.684 10.91,-7.434 0,-0.465 -0.08,-0.972 -0.22,-1.383 -1.7,-4.687 -5.75,-8.554 -9.67,-12.304 l -2.66,-2.578 c -5.38,-5.371 -12.25,-8.614 -19.52,-12.032 -5.53,-2.597 -11.25,-5.293 -16.44,-9.113 -5.58,-4.465 -10.22,-6.297 -16.32,-6.426 l -0.42,0.196 c -1.88,0.871 -1.88,0.968 -1.88,1.386 0,10.989 22.37,38.672 32.21,44.153 4.95,2.742 18.14,5.535 24.01,5.535 z m -64.47,-7.551 c -7.46,-6.758 -10.37,-14.762 -13.2,-22.516 -2.22,-6.093 -4.32,-11.847 -8.58,-17.128 -1.99,-2.637 -8.96,-8.243 -15.7,-13.657 -4.32,-3.496 -8.77,-7.058 -12.22,-10.093 -6.3,-4.895 -10.12,-8.149 -10.12,-11.993 0,-0.644 0,-2.367 1.33,-3.539 1.24,-1.101 2.67,-0.914 3.29,-0.836 l 0.88,0.078 c 11.6,2.11 21.3,10.165 29.46,18.028 3.24,-31.262 18.36,-48.36 43.02,-48.36 28.8,0 61.32,9.762 84.54,25.274 2.56,1.289 5.21,2.605 7.35,4.742 0.58,0.59 1.38,1.203 2.26,1.84 12.48,4.512 24.73,16.269 36.58,27.652 10.57,10.16 21.5,20.649 28.4,20.649 5.25,0 10.22,-4.844 10.47,-10.09 l -0.88,-3.098 c -4.59,-5.836 -45.41,-58.269 -45.41,-66.179 0,-6.512 6.15,-12.665 12.66,-12.665 18.43,0 35.04,7.223 51.11,14.207 6.33,2.747 12.88,5.594 19.41,7.942 3.28,1.172 6.66,1.746 10.26,2.359 5.03,0.852 10.23,1.742 15.11,4.367 l 3.29,1.719 c 25.41,13.235 42.32,23.836 42.38,33.156 0.35,3.258 -1.31,5.235 -2.4,5.77 -2.47,1.238 -4.69,-0.145 -6.25,-1.121 -5.19,-2.309 -12.57,-6.524 -17.02,-9.707 -16.39,-10.254 -40.88,-23.867 -64.23,-23.867 -0.96,0 -1.91,-0.039 -2.86,-0.078 -1.7,-0.079 -3.35,-0.149 -4.8,0.117 0.12,0.816 0.37,1.785 0.56,2.332 l 0.16,0.996 c 0,5.715 6.51,14.988 13.38,24.816 10.45,14.903 23.44,33.426 23.44,52.379 0,10.168 -9.34,19.789 -19.2,19.789 -26.88,0 -44.34,-19.336 -61.23,-38.047 -7.42,-8.203 -14.42,-15.957 -22.11,-22.05 -5.41,-4.399 -11.15,-8.293 -16.7,-12.063 l -3.69,-2.59 c -7.58,-3.367 -18.1,-8.367 -21.19,-9.898 -19.18,-9.602 -46.43,-16.313 -66.27,-16.313 -7.37,0 -22.39,4.867 -22.39,10.508 l -0.08,2.5 c 0,0.609 0.06,0.891 0.07,0.949 7.23,5.618 16.52,9.075 25.48,12.422 3.81,1.414 7.6,2.824 11.16,4.356 17.42,6.965 72.05,44.679 72.05,67.058 0,25.727 -30.34,25.727 -41.75,25.727 -30.32,0 -44.37,-12.754 -63.78,-30.395 l -6.04,-5.449" /><path
         id="path18"
         style="fill:#231f20;fill-opacity:1;fill-rule:nonzero;stroke:none"
         d="m 1530.33,226.426 v 0 0 z m -524.76,27.519 -0.41,0.188 c -1.88,0.879 -1.88,0.965 -1.88,1.394 0,10.989 22.36,38.672 32.21,44.153 4.95,2.742 18.14,5.535 24,5.535 5.51,0 10.91,-3.672 10.91,-7.41 0,-0.489 -0.09,-0.981 -0.22,-1.407 -1.7,-4.668 -5.75,-8.546 -9.65,-12.285 -0.91,-0.879 -1.81,-1.742 -2.68,-2.597 -5.38,-5.371 -12.24,-8.614 -19.51,-12.032 -5.54,-2.597 -11.26,-5.293 -16.45,-9.113 -5.65,-4.519 -10.14,-6.297 -16.32,-6.426 z M 2316.98,472.41 c -8.23,-6.16 -16.87,-11.988 -25.23,-17.633 -12.86,-8.672 -26.14,-17.621 -38.03,-27.914 -15.59,1.899 -31.29,5.102 -46.5,8.207 -24.25,4.95 -49.33,10.067 -74.8,10.067 -25.5,0 -51.28,1.816 -76.22,3.574 -24.83,1.75 -50.51,3.555 -75.78,3.555 h -29.09 c -30.44,0 -63.18,-0.926 -96.64,-7.625 l -0.46,0.23 c -0.9,0.453 -1.81,0.91 -2.74,1.25 -35.05,13.09 -87.91,30.492 -141.82,30.492 -33.08,0 -59.21,0 -88.66,-24.457 -5.49,-4.375 -9.89,-9.812 -14.14,-15.078 -2.93,-3.609 -5.96,-7.34 -9.29,-10.68 l -0.66,-0.949 c -4.55,-10.261 -7.38,-24.636 -7.38,-37.508 0,-22.628 24.53,-60.16 50.66,-60.16 2.13,0 5.26,0.864 7.97,4.985 l 0.73,1.093 -0.26,1.27 c -0.87,4.324 -5.36,6.582 -11.05,9.434 -10.6,5.332 -25.11,12.617 -25.11,36.25 0,12.175 2.42,52.871 33.62,65.359 1.94,0.773 3.92,1.476 5.9,2.18 4.17,1.464 8.48,2.996 12.17,5.046 1.46,0.735 2.89,1.633 4.31,2.532 2.99,1.875 5.83,3.672 9.13,3.672 1.95,0 3.92,-0.528 6,-1.086 2.4,-0.633 4.86,-1.289 7.65,-1.289 3.03,0 5.9,0.144 8.78,0.304 2.76,0.133 5.54,0.293 8.44,0.293 23.67,0 66.61,-8.73 101.41,-23.539 -24.3,-7.254 -35.7,-15.074 -35.7,-24.375 0,-17.539 53.81,-37.594 67.28,-37.594 3.81,0 7.74,2.071 10.26,5.411 l 0.88,1.171 -0.33,1.426 c -1.79,7.852 -9.17,11.328 -15.69,14.383 -6.8,3.195 -10.96,5.383 -10.96,9.856 0,6.035 7.7,10.64 14.75,13.593 20.7,-13.847 31.19,-29.004 31.19,-45.058 0,-32.207 -14.61,-62.192 -42.28,-86.719 l -4.87,-4.356 c -33.18,-29.804 -78.63,-70.625 -120.38,-83.429 -2.05,-0.586 -3.83,-1.571 -5.55,-2.528 -1.96,-1.078 -3.81,-2.101 -5.44,-2.101 -6.15,0 -13.47,1.609 -13.47,9.308 0,17.813 15.53,27.442 28.03,35.176 9.22,5.723 16.5,10.235 16.5,17.078 0,6.243 -7.49,9.688 -12.66,9.688 -5.01,0 -91.14,-49.266 -91.88,-49.735 l -2.68,-1.613 c -7.92,-4.812 -16.1,-9.804 -25.39,-9.804 -5.83,0 -9.31,3.703 -9.31,9.902 0,10.715 2.91,19.269 9.45,27.781 5.3,6.977 13.67,13.391 21.75,19.594 8.72,6.695 16.96,13.023 21.18,19.844 l 0.87,1.406 -0.65,1.504 c -2.87,6.66 -10.66,6.66 -13.6,6.66 -6.57,0 -18.73,-2.285 -24.62,-6.699 -3.04,-2.602 -5.67,-5.957 -8.22,-9.184 -1.14,-1.465 -2.27,-2.906 -3.38,-4.187 -8.3,-9.422 -26.88,-23.555 -39.15,-30.926 -1.09,-0.727 -2.7,-1.555 -4.53,-2.512 -4.28,-2.234 -9.62,-5.019 -13.32,-8.641 l -1.04,-0.703 c -5.04,-3.418 -9.8,-6.64 -14.75,-9.394 -10.28,-5.766 -21.34,-8.547 -33.05,-11.485 -2.75,-0.703 -5.5,-1.386 -8.24,-2.128 2.08,7.402 3.83,15.718 3.83,24.511 0,4.11 -0.62,8.004 -1.22,11.778 -0.58,3.687 -1.14,7.175 -1.14,10.781 0,10.633 5.22,20.469 10.28,29.988 l 0.17,0.324 c 25.37,13.399 38.23,27.371 38.23,41.543 0,8.946 -12.5,12.657 -19.19,12.657 -14.8,0 -23.66,-19.082 -29.53,-31.719 -0.7,-1.516 -1.35,-2.934 -1.96,-4.184 -13.12,-7.32 -23.59,-18.316 -33.72,-28.961 -6.85,-7.187 -13.92,-14.629 -21.71,-20.761 -3.9,-3.196 -8.32,-6.567 -13.26,-10.137 -20.79,-12.11 -38.38,-17.055 -60.73,-17.055 -5.12,0 -9.86,0.453 -15.2,1.449 l -1.09,1.914 c 0.73,3.321 3.33,7.223 6.29,11.688 5.33,8.008 11.97,17.98 11.97,31.066 0,15.625 -9.45,15.625 -18.59,15.625 -17.67,0 -39.05,-13.593 -57.89,-25.586 -15.32,-9.746 -29.77,-18.949 -38.9,-18.949 -3.87,0 -3.98,5.707 -3.98,6.352 0,2.105 4.81,7.918 8.32,12.168 6.13,7.398 12.48,15.058 12.48,21.679 0,9.688 -9.78,15.028 -27.51,15.028 -22.35,0 -50.5,-20.352 -75.34,-38.313 -9.99,-7.215 -19.41,-14.031 -27.13,-18.496 l -2.22,-1.187 c -6.94,-2.883 -21.52,-9.785 -25.57,-11.797 -19.19,-9.602 -46.44,-16.313 -66.28,-16.313 -7.37,0 -22.37,4.867 -22.37,10.508 l -0.098,2.5 c 0,0.609 0.059,0.891 0.066,0.949 7.232,5.618 16.512,9.075 25.492,12.422 3.81,1.414 7.59,2.824 11.15,4.356 17.42,6.965 72.06,44.687 72.06,67.058 0,25.727 -30.34,25.727 -41.77,25.727 -30.31,0 -44.34,-12.754 -63.77,-30.395 l -6.033,-5.449 c -7.449,-6.758 -10.371,-14.754 -13.191,-22.5 -2.219,-6.09 -4.316,-11.851 -8.606,-17.144 -1.98,-2.649 -8.953,-8.254 -15.703,-13.672 -4.324,-3.481 -8.75,-7.051 -12.207,-10.078 -6.289,-4.883 -10.117,-8.137 -10.117,-11.993 0,-0.644 0,-2.367 1.328,-3.539 1.25,-1.101 2.688,-0.914 3.293,-0.847 l 0.891,0.089 c 11.609,2.11 21.316,10.184 29.441,18.028 3.242,-31.262 18.36,-48.36 43.014,-48.36 28.79,0 61.32,9.762 84.55,25.274 2.44,1.219 5.2,2.598 7.34,4.742 1.25,1.25 3.62,2.832 5.92,4.359 l 1.73,1.051 c 1.9,0.981 3.79,1.957 5.42,3.031 3.44,2.09 6.58,4.098 9.55,6.012 13.96,8.977 23.19,14.906 42.85,14.906 l 1.6,0.055 c 0.8,0.039 2.16,0.102 2.22,0.285 0.65,-1.093 0.53,-3.054 0.34,-4.929 -0.11,-1.02 -0.21,-2.004 -0.21,-2.93 0,-9.445 -7.79,-17.031 -16.04,-25.078 -9.34,-9.094 -18.99,-18.496 -18.99,-31.938 0,-7.672 5.58,-13.25 13.26,-13.25 6.2,0 21.38,9.715 47.7,26.883 27.85,18.188 62.52,40.824 75.22,40.824 4.78,0 5.74,-5 6.66,-15.617 0.89,-10.207 2.11,-24.18 15.89,-24.18 3.06,0 6.12,-0.418 9.37,-0.867 3.31,-0.453 6.75,-0.918 10.23,-0.918 7.53,0 14.36,1.864 20.96,3.653 7.06,1.773 31.42,8.261 49.94,17.714 9.96,2.372 24.54,12.618 38.65,22.516 9.55,6.711 19.38,13.617 26.94,17.406 0.17,-3.578 0.48,-7.129 0.78,-10.605 0.44,-4.895 0.88,-9.953 0.88,-14.863 0,-11.036 -2.97,-22.657 -8.59,-33.696 -9.52,-3.707 -73.94,-29.761 -73.94,-55.371 0,-6.519 3.17,-9.683 9.7,-9.683 41.82,0 56.44,11.992 75.75,45.625 3.46,1.054 7,1.953 10.55,2.847 5.79,1.477 11.76,2.992 17.41,5.121 6.21,2.071 32.39,19.539 48.99,32.047 2.28,0.754 4.26,1.977 6.19,3.164 2.24,1.391 4.38,2.715 6.79,3.125 l 1.53,-0.758 c 0.95,-2.992 1.81,-6.367 1.81,-9.64 0,-3.406 -0.28,-6.809 -0.56,-10.281 -0.31,-3.789 -0.63,-7.657 -0.63,-11.68 0,-5.344 0,-21.582 17.42,-21.582 15.71,0 29.32,7.09 42.48,13.953 12.02,6.262 23.37,12.18 35.3,12.18 0.4,0 1.4,-0.141 3.33,-1.192 -1.54,-4.758 -2.93,-9.718 -2.93,-15.246 0,-8.703 5.8,-18 14.45,-18 2.45,0 4.73,0.141 7.03,0.293 2.16,0.16 4.32,0.293 6.63,0.293 59.21,0 130.98,61.953 168.48,98.891 26.42,25.918 57.92,67.027 57.92,115.664 0,17.105 -8.47,35.926 -22.46,50.379 41.84,6.496 95.34,7.019 111.33,7.019 15.56,0 31.32,-1.793 46.56,-3.543 15.41,-1.758 31.35,-3.582 47.26,-3.582 49.83,0 98.61,-10.879 144.46,-22.394 -12.44,-14.481 -23.94,-30.149 -35.09,-45.34 -12.07,-16.43 -24.56,-33.418 -38.09,-48.723 -5.78,-6.457 -12.53,-12.469 -19.04,-18.293 -4.71,-4.195 -9.58,-8.551 -14.09,-13.043 -4.79,-4.789 -10.03,-10.957 -15.6,-17.48 -10.94,-12.832 -23.36,-27.403 -34.86,-34.297 -16.66,-10 -31.2,-23.613 -45.24,-36.762 -6.27,-5.855 -12.75,-11.929 -19.3,-17.578 -7.78,-6.558 -15.37,-14.043 -15.37,-26.758 0,-8.164 5.77,-13.242 15.03,-13.242 13.74,0 41.82,26.938 74.39,59.453 8.5,8.5 15.86,15.84 20.27,19.66 29.77,24.903 53.06,46.692 73.32,68.547 11.46,12.324 22.6,25.899 33.38,39.024 26.17,31.851 53.24,64.804 88.55,85.191 16.26,-1.226 32.82,-2.984 48.83,-4.668 30.43,-3.219 61.9,-6.543 92.94,-6.543 50.95,0 102.32,6.176 151.99,12.153 23.32,2.808 59.98,5.82 76.32,12.82 12.3,5.265 9.1,15.305 2.42,15.207 -25.03,-0.391 -50.91,-0.793 -76.62,-3 -19.2,-1.707 -38.61,-4.207 -57.38,-6.641 -33.42,-4.316 -67.99,-8.777 -102.08,-8.777 -21.75,0 -43.79,2.574 -65.11,5.074 -15.31,1.801 -31.05,3.656 -46.81,4.555 5.47,3.238 12.31,7.148 19.78,11.387 59.3,33.765 112.52,65.859 112.52,87.46 0,11.348 -16.93,15.02 -25.12,15.02 -33.94,0 -60.5,-23.488 -86.2,-46.203 -8.6,-7.606 -16.72,-14.793 -24.95,-20.93" /><path
         id="path20"
         style="fill:#231f20;fill-opacity:1;fill-rule:nonzero;stroke:none"
         d="m 550.137,253.945 -0.403,0.188 c -1.875,0.879 -1.875,0.965 -1.875,1.394 0,10.989 22.368,38.672 32.207,44.153 4.954,2.742 18.149,5.535 24.004,5.535 5.508,0 10.91,-3.672 10.91,-7.41 0,-0.489 -0.085,-0.981 -0.222,-1.407 -1.699,-4.668 -5.742,-8.546 -9.653,-12.285 -0.906,-0.879 -1.804,-1.742 -2.671,-2.597 -5.383,-5.371 -12.246,-8.614 -19.512,-12.032 -5.539,-2.597 -11.262,-5.293 -16.445,-9.113 -5.657,-4.519 -10.149,-6.297 -16.34,-6.426 z m 7.617,-66.297 c 28.789,0 61.316,9.762 84.551,25.274 2.429,1.219 5.195,2.598 7.343,4.742 1.231,1.234 3.606,2.816 5.887,4.34 5.695,3.785 11.086,7.371 11.086,12.148 0,5 -3.469,5.528 -4.949,5.528 -3.227,0 -30.234,-13.254 -30.512,-13.379 -19.187,-9.602 -46.441,-16.313 -66.277,-16.313 -7.363,0 -22.363,4.867 -22.363,10.508 l -0.098,2.524 c 0,0.585 0.051,0.867 0.058,0.925 7.227,5.618 16.512,9.075 25.489,12.422 3.808,1.414 7.59,2.824 11.152,4.356 17.422,6.965 72.063,44.687 72.063,67.058 0,25.727 -30.344,25.727 -41.77,25.727 -30.312,0 -44.348,-12.754 -63.769,-30.395 l -6.036,-5.449 c -7.453,-6.746 -10.371,-14.754 -13.191,-22.5 -2.219,-6.09 -4.316,-11.851 -8.605,-17.144 -1.985,-2.649 -8.958,-8.254 -15.704,-13.672 -4.328,-3.481 -8.75,-7.051 -12.207,-10.078 -6.289,-4.883 -10.117,-8.137 -10.117,-11.993 0,-0.644 0,-2.367 1.328,-3.539 1.25,-1.101 2.688,-0.914 3.289,-0.836 l 0.891,0.078 c 11.609,2.11 21.316,10.184 29.441,18.028 3.246,-31.262 18.364,-48.36 43.02,-48.36" /><path
         id="path22"
         style="fill:#231f20;fill-opacity:1;fill-rule:nonzero;stroke:none"
         d="m 1959.04,286.223 c 3.04,0 9.31,-1.555 9.31,-6.352 0,-12.769 -58.07,-65.125 -72.25,-65.125 -6.56,0 -9.9,2.332 -9.9,6.945 0,3.008 0.49,6.051 1.48,9.258 4.75,5.41 61.32,52.481 65.6,54.766 2,0.508 3.5,0.508 5.76,0.508 z m -2.97,25.308 c -3.06,0 -6.24,0 -9.5,-0.64 -20.61,-4.004 -104.69,-77.325 -104.69,-96.328 0,-28.11 29.69,-28.11 42.36,-28.11 21.77,0 36.12,11.75 48.8,22.113 9.24,7.579 17.22,14.11 26,14.11 1.71,0 2.7,-0.946 4.58,-2.899 l 1.13,-1.125 c 7.96,-6.613 31.78,-10.222 41.8,-10.222 9.3,0 43.23,17.898 44.69,28.867 l 0.24,1.766 -5.67,4.558 -1.62,-0.508 c -4.89,-1.558 -8.65,-4.05 -12.29,-6.461 -5.23,-3.476 -9.74,-6.464 -17.04,-6.464 -11.96,0 -19.99,8.035 -19.99,20 0,8.613 10.1,20.015 19.03,30.093 8.26,9.336 15.41,17.407 15.41,23.93 0,9.703 -11.37,9.703 -16.22,9.703 -5.36,0 -10.42,-2.984 -15.33,-5.879 -4.98,-2.945 -10.15,-5.996 -15.55,-5.996 -2.24,0 -3.65,0.981 -6.11,2.832 -3.72,2.817 -8.81,6.66 -20.03,6.66" /><path
         id="path24"
         style="fill:#231f20;fill-opacity:1;fill-rule:nonzero;stroke:none"
         d="m 682.844,164.094 c 0,-4.453 3.261,-6.723 9.695,-6.723 10.527,0 23.137,7.785 34.246,14.652 3.664,2.262 7.063,4.364 9.973,5.899 6.687,3.484 14.004,6.465 21.086,9.355 7.222,2.95 14.695,6.004 21.676,9.649 11.671,6.16 22.394,13.777 32.753,21.148 8.774,6.235 17.832,12.68 27.305,18.086 23.402,13.285 98.11,51.836 118.977,51.836 3.476,0 8.105,-0.699 10.429,-3.922 1.121,-1.711 3.094,-2.433 5.008,-1.855 2.395,0.722 4.348,3.394 4.348,5.965 0,11.125 -6.289,18.601 -15.637,18.601 -31.355,0 -73.277,-24.449 -106.973,-44.097 -8.042,-4.708 -15.542,-9.083 -22.207,-12.7 -7.918,-4.332 -16.218,-8.316 -24.246,-12.164 -6.726,-3.222 -13.601,-6.504 -20.351,-10.058 2.097,3.047 4.414,6.347 6.875,9.843 15.722,22.403 35.293,50.282 35.293,67.793 0,13.614 -9.153,22.762 -22.774,22.762 -41.355,0 -103.586,-37.336 -129.531,-69.48 -1.953,-2.446 -2.18,-5.215 -2.18,-7.102 0,-1.016 0.079,-2.051 0.168,-3.074 0.059,-0.844 0.125,-1.684 0.125,-2.481 0,-17.914 15.903,-23.957 29.36,-29.074 l 0.758,-0.281 0.812,0.105 c 4.895,0.696 6.633,3.946 6.633,6.512 0,1.535 -0.547,3.07 -1.594,4.453 l -1.183,0.957 c -8.59,4.004 -12.418,7.297 -12.418,16.145 0,3.937 0.554,7.687 1.66,11.047 4.715,17.293 77.363,52.89 96.113,52.89 2.859,0 4.141,-0.644 4.812,-1.281 0.333,-1.672 0.333,-3.066 0.333,-5.066 0,-13.848 -9.512,-27.09 -17.911,-38.774 -1.394,-1.941 -2.773,-3.844 -4.074,-5.719 -12.265,-17.433 -24.723,-31.621 -37.996,-43.3 -2.305,-1.868 -7.266,-5.344 -13.019,-9.368 -30.731,-21.511 -46.344,-33.781 -46.344,-41.179" /><path
         id="path26"
         style="fill:#231f20;fill-opacity:1;fill-rule:nonzero;stroke:none"
         d="m 2663.18,486.199 -1.56,24.961 c -0.16,3.274 -0.16,7.328 -0.31,11.848 h -0.47 c -1.09,-3.738 -2.33,-8.731 -3.58,-12.625 l -7.65,-23.559 h -8.73 l -7.64,24.184 c -0.78,3.269 -2.03,8.262 -2.97,12 h -0.47 c 0,-3.895 -0.15,-7.957 -0.3,-11.848 l -1.56,-24.961 h -8.12 l 3.13,42.426 h 12.63 l 7.33,-20.742 c 0.94,-3.274 1.71,-6.391 2.8,-10.766 h 0.16 c 1.09,3.91 2.03,7.492 2.97,10.61 l 7.32,20.898 h 12.17 l 3.27,-42.426 z m -45.85,42.426 v -7.012 h -13.56 v -35.414 h -8.43 v 35.414 h -13.56 v 7.012 h 35.55" /></g></g></svg>