<?xml version="1.0" encoding="UTF-8" standalone="no"?>
<svg
   xmlns:dc="http://purl.org/dc/elements/1.1/"
   xmlns:cc="http://creativecommons.org/ns#"
   xmlns:rdf="http://www.w3.org/1999/02/22-rdf-syntax-ns#"
   xmlns:svg="http://www.w3.org/2000/svg"
   xmlns="http://www.w3.org/2000/svg"
   viewBox="0 0 658.29333 326.84"
   height="326.84"
   width="658.29333"
   xml:space="preserve"
   id="svg2"
   version="1.1"><metadata
     id="metadata8"><rdf:RDF><cc:Work
         rdf:about=""><dc:format>image/svg+xml</dc:format><dc:type
           rdf:resource="http://purl.org/dc/dcmitype/StillImage" /></cc:Work></rdf:RDF></metadata><defs
     id="defs6" /><g
     transform="matrix(1.3333333,0,0,-1.3333333,0,326.84)"
     id="g10"><g
       transform="scale(0.1)"
       id="g12"><path
         id="path14"
         style="fill:#231f20;fill-opacity:1;fill-rule:nonzero;stroke:none"
         d="m 1317,1684.59 c 0,0.84 0.56,1.4 1.41,1.4 H 1381 c 0.85,0 1.42,-0.56 1.42,-1.4 v -18.15 c 0,-0.85 -0.57,-1.41 -1.42,-1.41 h -38.39 c -0.57,0 -0.85,-0.28 -0.85,-0.85 v -14.49 c 0,-0.56 0.28,-0.84 0.85,-0.84 h 31.51 c 0.84,0 1.41,-0.56 1.41,-1.4 v -17.73 c 0,-0.85 -0.57,-1.41 -1.41,-1.41 h -31.51 c -0.57,0 -0.85,-0.28 -0.85,-0.85 v -15.33 c 0,-0.56 0.28,-0.84 0.85,-0.84 H 1381 c 0.85,0 1.42,-0.56 1.42,-1.41 v -18.15 c 0,-0.84 -0.57,-1.41 -1.42,-1.41 h -62.59 c -0.85,0 -1.41,0.57 -1.41,1.41 v 92.86" /><path
         id="path16"
         style="fill:#231f20;fill-opacity:1;fill-rule:nonzero;stroke:none"
         d="m 1413.61,1602.29 c -0.7,0.55 -0.85,1.54 -0.14,2.25 l 12.66,14.91 c 0.57,0.7 1.41,0.7 1.97,0.14 5.77,-5.07 14.77,-9.57 24.34,-9.57 8.87,0 13.51,3.66 13.51,9.01 0,4.08 -2.68,6.74 -12.1,8.02 l -5.07,0.7 c -20.68,2.96 -31.94,12.23 -31.94,30.11 0,17.87 13.93,29.82 35.6,29.82 13.22,0 25.61,-4.08 34.19,-10.55 0.7,-0.56 0.84,-1.27 0.27,-2.11 l -10.54,-15.34 c -0.57,-0.7 -1.27,-0.84 -1.98,-0.42 -6.74,4.5 -13.92,7.18 -21.52,7.18 -7.03,0 -10.55,-3.38 -10.55,-8.02 0,-4.23 3.1,-6.89 12.24,-8.03 l 5.07,-0.7 c 20.95,-2.95 31.65,-12.23 31.65,-30.38 0,-17.74 -13.51,-30.67 -39.11,-30.67 -15.62,0 -31.37,6.61 -38.55,13.65" /><path
         id="path18"
         style="fill:#231f20;fill-opacity:1;fill-rule:nonzero;stroke:none"
         d="m 1538.55,1590.32 h -0.42 c -0.28,0 -0.42,0.14 -0.7,0.43 -0.15,0.14 -0.28,0.28 -0.28,0.56 v 0.42 71.47 c 0,0.43 -0.29,0.7 -0.71,0.85 h -0.13 -23.5 -0.43 c -0.27,0 -0.42,0.13 -0.56,0.28 l -0.14,0.13 c 0,0 0,0.14 -0.14,0.14 -0.14,0.29 -0.14,0.57 -0.14,0.85 v 19.14 c 0,0.7 0.42,1.26 0.98,1.4 h 0.43 73.44 c 0.42,0 0.7,-0.14 0.98,-0.42 0,0 0.14,-0.14 0.14,-0.28 0.14,-0.14 0.28,-0.42 0.28,-0.7 v -19.14 c 0,-0.42 -0.14,-0.85 -0.42,-1.12 -0.14,-0.15 -0.43,-0.28 -0.7,-0.28 h -0.28 -23.5 c -0.28,0 -0.42,0 -0.56,-0.15 -0.14,0 -0.14,-0.14 -0.29,-0.27 v -0.43 -71.47 -0.42 c -0.13,-0.42 -0.27,-0.56 -0.7,-0.85 -0.14,-0.14 -0.42,-0.14 -0.7,-0.14 h -21.95" /><path
         id="path20"
         style="fill:#231f20;fill-opacity:1;fill-rule:nonzero;stroke:none"
         d="m 1644.36,1612.27 h 7.46 c 8.73,0 13.51,2.39 15.76,9.15 0.85,2.81 1.4,6.04 1.4,16.74 0,10.69 -0.55,13.93 -1.4,16.73 -2.25,6.76 -7.03,9.16 -15.76,9.16 h -7.46 c -0.56,0 -0.84,-0.29 -0.84,-0.85 v -50.08 c 0,-0.57 0.28,-0.85 0.84,-0.85 z m -25.6,72.32 c 0,0.84 0.56,1.4 1.4,1.4 h 37.01 c 16.88,0 29.26,-7.03 34.04,-21.81 1.97,-6.19 2.81,-11.53 2.81,-26.02 0,-14.35 -0.84,-19.84 -2.81,-26.03 -4.78,-14.77 -17.16,-21.81 -34.04,-21.81 h -37.01 c -0.84,0 -1.4,0.57 -1.4,1.41 v 92.86" /><path
         id="path22"
         style="fill:#231f20;fill-opacity:1;fill-rule:nonzero;stroke:none"
         d="m 3313.24,1660.38 h -0.28 l -16.18,-10.69 c -0.84,-0.56 -1.68,-0.27 -1.68,0.85 v 20.54 c 0,0.85 0.27,1.4 0.97,1.97 l 17.17,12.1 c 0.7,0.56 1.54,0.84 2.53,0.84 h 19.56 c 0.84,0 1.41,-0.56 1.41,-1.4 v -92.86 c 0,-0.84 -0.57,-1.41 -1.41,-1.41 h -20.68 c -0.84,0 -1.41,0.57 -1.41,1.41 v 68.65" /><path
         id="path24"
         style="fill:#231f20;fill-opacity:1;fill-rule:nonzero;stroke:none"
         d="m 3428.2,1658.84 c 0,5.21 -3.8,9.43 -9.43,9.43 -5.63,0 -9.28,-4.22 -9.28,-9.43 0,-5.2 3.65,-9.42 9.28,-9.42 5.63,0 9.43,4.22 9.43,9.42 z m -9.43,-50.79 c 6.47,0 11.12,4.65 11.12,11.11 0,6.61 -4.65,11.27 -11.12,11.27 -6.47,0 -11.12,-4.66 -11.12,-11.27 0,-6.46 4.65,-11.11 11.12,-11.11 z m -22.79,31.93 v 0.29 c -4.36,3.37 -8.86,9.99 -8.86,18.99 0,15.06 11.53,28.42 31.65,28.42 20.12,0 31.66,-13.36 31.66,-28.42 0,-9 -4.37,-15.62 -8.72,-18.99 v -0.29 c 5.62,-3.93 10.83,-10.96 10.83,-21.66 0,-18.29 -14.78,-29.68 -33.77,-29.68 -18.99,0 -33.76,11.39 -33.76,29.68 0,10.7 5.34,17.73 10.97,21.66" /><path
         id="path26"
         style="fill:#231f20;fill-opacity:1;fill-rule:nonzero;stroke:none"
         d="m 3511.29,1608.05 c 6.62,0 10.97,4.65 10.97,11.26 0,6.61 -4.35,11.4 -10.97,11.4 -6.47,0 -10.83,-4.79 -10.83,-11.4 0,-6.61 4.36,-11.26 10.83,-11.26 z m -25.88,37.14 21.24,39.81 c 0.42,0.71 0.7,0.99 1.69,0.99 h 22.22 c 1.13,0 1.41,-0.7 0.99,-1.54 l -19.13,-35.74 0.14,-0.14 c 0.85,0.28 2.53,0.7 4.78,0.7 15.75,0 27.58,-11.95 27.58,-29.54 0,-19 -14.07,-31.09 -33.63,-31.09 -19.55,0 -33.48,12.09 -33.48,30.81 0,8.72 2.53,16.03 7.6,25.74" /><path
         id="path28"
         style="fill:#231f20;fill-opacity:1;fill-rule:nonzero;stroke:none"
         d="m 3615.17,1665.17 v 0.42 h -16.45 c -0.57,0 -0.85,-0.27 -0.85,-0.84 v -9 c 0,-0.86 -0.56,-1.41 -1.41,-1.41 h -19.13 c -0.85,0 -1.4,0.55 -1.4,1.41 v 28.84 c 0,0.84 0.55,1.4 1.4,1.4 h 60.92 c 0.84,0 1.41,-0.56 1.41,-1.4 v -18.57 c 0,-0.57 -0.15,-0.99 -0.29,-1.42 l -29.12,-72.87 c -0.42,-1.12 -0.84,-1.41 -1.97,-1.41 h -21.52 c -0.84,0 -1.41,0.71 -1.13,1.55 l 29.54,73.3" /><path
         id="path30"
         style="fill:#231f20;fill-opacity:1;fill-rule:nonzero;stroke:none"
         d="m 482.148,769.441 -7.89,76.059 h -2.871 L 449.863,773.75 339.371,435.809 h -64.566 l -116.239,344.39 -22.961,72.461 h -2.871 L 124.844,778.059 91.8398,485.32 172.199,456.621 V 435.809 H 0 v 20.812 l 55.2539,28.699 52.3751,414.7 -62.422,22.96 v 22.239 h 172.195 l 105.465,-314.25 22.246,-71.75 h 2.867 l 22.239,72.472 97.578,313.528 h 171.48 V 922.98 l -65.289,-17.929 53.809,-429.063 60.269,-17.929 v -22.25 h -236.05 v 22.25 l 66.011,17.929 -35.879,293.453" /><path
         id="path32"
         style="fill:#231f20;fill-opacity:1;fill-rule:nonzero;stroke:none"
         d="M 851.18,862.711 C 826.066,821.82 813.152,764.422 813.152,690.52 c 0,-73.899 12.914,-132.02 38.028,-172.911 25.824,-40.898 58.121,-60.988 96.859,-60.988 38.024,0 70.311,20.809 96.151,61.707 25.82,40.891 38.73,98.293 38.73,172.192 0,73.902 -12.91,131.3 -38.73,172.191 -25.84,40.898 -58.127,61.699 -96.151,61.699 -38.738,0 -71.035,-20.801 -96.859,-61.699 z M 1202.02,690.52 c 0,-54.532 -12.19,-102.598 -37.3,-143.5 -25.12,-40.891 -55.96,-71.032 -93.99,-90.399 C 958.078,398.5 801.672,425.77 730.648,547.02 c -24.394,41.621 -37.316,88.968 -37.316,143.5 0,54.531 12.203,101.878 37.316,142.781 25.102,40.89 55.961,71.75 93.989,91.109 38.027,19.379 79.633,29.422 123.402,29.422 43.766,0 84.661,-10.043 122.691,-29.422 38.03,-19.359 68.87,-50.219 93.99,-91.109 25.11,-40.903 37.3,-88.25 37.3,-142.781" /><path
         id="path34"
         style="fill:#231f20;fill-opacity:1;fill-rule:nonzero;stroke:none"
         d="m 1424.9,862.711 c -25.12,-40.891 -38.03,-98.289 -38.03,-172.191 0,-73.899 12.91,-132.02 38.03,-172.911 25.82,-40.898 58.11,-60.988 96.85,-60.988 38.03,0 70.31,20.809 96.14,61.707 25.83,40.891 38.74,98.293 38.74,172.192 0,73.902 -12.91,131.3 -38.74,172.191 -25.83,40.898 -58.11,61.699 -96.14,61.699 -38.74,0 -71.03,-20.801 -96.85,-61.699 z M 1775.74,690.52 c 0,-54.532 -12.2,-102.598 -37.32,-143.5 -25.1,-40.891 -55.96,-71.032 -93.99,-90.399 -112.63,-58.121 -269.05,-30.851 -340.08,90.399 -24.39,41.621 -37.31,88.968 -37.31,143.5 0,54.531 12.2,101.878 37.31,142.781 25.12,40.89 55.96,71.75 93.99,91.109 38.03,19.379 79.64,29.422 123.41,29.422 43.76,0 84.66,-10.043 122.68,-29.422 38.03,-19.359 68.89,-50.219 93.99,-91.109 25.12,-40.903 37.32,-88.25 37.32,-142.781" /><path
         id="path36"
         style="fill:#231f20;fill-opacity:1;fill-rule:nonzero;stroke:none"
         d="m 1839.71,585.77 h 23.67 l 68.17,-123.411 c 48.78,-9.32 88.96,-6.449 121.25,9.332 32.28,16.5 48.07,40.899 48.07,74.618 0,55.961 -66.01,76.05 -130.58,106.191 -45.92,20.801 -85.38,40.172 -111.21,82.5 -12.92,20.809 -19.37,45.199 -19.37,73.18 0,45.211 16.5,80.359 50.22,106.191 33.72,26.551 76.05,39.461 127.71,39.461 55.96,0 107.62,-10.762 155.69,-32.293 V 809.621 h -22.96 l -66.01,109.77 c -88.24,17.218 -146.36,-12.192 -147.08,-76.051 -0.71,-66.008 97.58,-90.399 170.05,-126.27 51.66,-25.121 93.26,-70.308 93.26,-135.609 0,-49.512 -19.37,-87.531 -58.83,-114.082 -38.74,-26.539 -88.25,-40.168 -147.8,-40.168 -50.93,0 -101.88,12.187 -154.25,37.301 V 585.77" /><path
         id="path38"
         style="fill:#231f20;fill-opacity:1;fill-rule:nonzero;stroke:none"
         d="m 2256.6,458.059 61.69,17.929 v 429.063 l -61.69,17.929 v 22.239 h 421.15 V 801.012 h -23.67 l -55.25,113.359 h -168.6 v -205.91 l 156.41,16.5 V 663.262 L 2430.23,679.75 V 466.672 h 178.65 l 59.55,120.539 h 23.68 V 435.809 H 2256.6 v 22.25" /><path
         id="path40"
         style="fill:#231f20;fill-opacity:1;fill-rule:nonzero;stroke:none"
         d="M 3129.33,678.32 H 2925.57 V 475.988 l 60.99,-17.929 v -22.25 h -234.62 v 22.25 l 61.7,17.929 v 429.063 l -61.7,17.929 v 22.239 h 234.62 V 922.98 l -60.99,-17.929 v -195.16 h 203.76 v 195.16 l -61.7,17.929 v 22.239 h 234.61 V 922.98 l -60.97,-17.929 V 475.988 l 60.97,-17.929 v -22.25 h -234.61 v 22.25 l 61.7,17.929 V 678.32" /><path
         id="path42"
         style="fill:#231f20;fill-opacity:1;fill-rule:nonzero;stroke:none"
         d="m 3373.05,458.059 61.71,17.929 v 429.063 l -61.71,17.929 v 22.239 h 421.18 V 801.012 h -23.69 l -55.24,113.359 h -168.61 v -205.91 l 156.4,16.5 v -61.699 l -156.4,16.488 V 466.672 h 178.65 l 59.55,120.539 h 23.67 V 435.809 h -435.51 v 22.25" /><path
         id="path44"
         style="fill:#231f20;fill-opacity:1;fill-rule:nonzero;stroke:none"
         d="m 4151.07,633.84 -53.08,139.91 -26.57,73.18 h -2.14 l -26.55,-73.18 -52.38,-139.91 z m -171.48,-30.852 -44.47,-117.668 74.6,-28.699 v -20.812 h -160 v 20.812 l 48.08,28.699 177.94,461.34 h 76.76 l 178.66,-470.672 46.63,-17.929 v -22.25 h -228.87 v 22.25 l 62.43,17.929 -48.09,127 h -183.67" /><path
         id="path46"
         style="fill:#231f20;fill-opacity:1;fill-rule:nonzero;stroke:none"
         d="m 4650.2,466.672 c 50.94,0 91.12,20.797 121.97,61.699 30.85,41.609 45.91,98.301 45.91,170.051 0,140.609 -64.57,215.949 -167.88,215.949 h -53.1 V 466.672 Z m -226.74,-30.863 v 22.25 l 61.72,17.929 v 429.063 l -61.72,17.929 v 22.239 h 250.42 c 81.07,0 144.93,-21.52 192.28,-63.848 47.35,-42.34 71.03,-103.312 71.03,-183.68 0,-81.07 -24.4,-144.929 -72.47,-191.562 -48.07,-46.641 -111.21,-70.32 -190.84,-70.32 h -250.42" /><path
         id="path48"
         style="fill:#231f20;fill-opacity:1;fill-rule:nonzero;stroke:none"
         d="m 3456.55,120.238 153.9,-16.226 c 0.54,-0.051 0.96,-0.524 0.96,-1.071 V 77.6211 c 0,-0.5625 -0.42,-1.0195 -0.96,-1.082 l -153.9,-16.2305 c -0.63,-0.0703 -1.19,0.4336 -1.19,1.082 v 57.7814 c 0,0.637 0.56,1.137 1.19,1.066" /><path
         id="path50"
         style="fill:#231f20;fill-opacity:1;fill-rule:nonzero;stroke:none"
         d="m 1325.77,77.6094 v 25.3316 c 0,0.547 0.41,1.008 0.97,1.071 l 153.89,16.226 c 0.64,0.071 1.19,-0.429 1.19,-1.066 V 61.3906 c 0,-0.6484 -0.55,-1.1523 -1.19,-1.082 l -153.89,16.2227 c -0.56,0.0585 -0.97,0.5273 -0.97,1.0781" /><path
         id="path52"
         style="fill:#231f20;fill-opacity:1;fill-rule:nonzero;stroke:none"
         d="m 1700.95,147.309 c -1.56,0 -2.49,-0.93 -2.49,-2.489 v -37.851 c 0,-1.571 0.93,-2.508 2.49,-2.508 h 26.79 c 14.95,0 23.86,8.059 23.86,21.559 0,13.332 -8.91,21.289 -23.86,21.289 z m 0,-70.0395 c -1.54,0 -2.49,-0.9609 -2.49,-2.5078 V 34.082 c 0,-1.5625 0.93,-2.5 2.49,-2.5 h 28.84 c 15.67,0 24.65,8.3164 24.65,22.8282 0,14.3203 -9.21,22.8593 -24.65,22.8593 z M 1664.12,2.83203 c -1.03,0 -1.64,0.60938 -1.64,1.62891 V 174.43 c 0,1.019 0.61,1.621 1.64,1.621 h 68.26 c 35.43,0 54.94,-16.211 54.94,-45.641 0,-21.078 -10.81,-31.4998 -19.87,-36.5194 l -0.48,-0.2812 v -1.7188 l 0.61,-0.2422 c 10.99,-4.1484 22.83,-18.0468 22.83,-38.7695 0,-32.7383 -20.7,-50.04687 -59.84,-50.04687 h -66.45" /><path
         id="path54"
         style="fill:#231f20;fill-opacity:1;fill-rule:nonzero;stroke:none"
         d="m 1898.99,145.332 c -1.54,0 -2.48,-0.961 -2.48,-2.5 V 102.41 c 0,-1.57 0.92,-2.5116 2.48,-2.5116 h 30.92 c 14.97,0 24.64,8.9726 24.64,22.8396 0,13.723 -9.67,22.594 -24.64,22.594 z M 1956.43,2.91016 c -1.85,0 -2.32,0.46093 -2.99,2.01172 l -30.4,64.68752 h -24.05 c -1.56,0 -2.48,-0.9297 -2.48,-2.4883 V 4.53906 c 0,-1.03906 -0.59,-1.6289 -1.63,-1.6289 h -32.71 c -1.03,0 -1.64,0.60156 -1.64,1.6289 V 174.512 c 0,1.019 0.61,1.617 1.64,1.617 h 69.79 c 35.02,0 58.55,-21.438 58.55,-53.391 0,-21.488 -11.44,-39.3591 -30.59,-47.7888 L 1959,74.5508 1993.95,4.62109 c 0.24,-0.47265 0.27,-0.94921 0.06,-1.26171 -0.17,-0.28907 -0.54,-0.44922 -1.01,-0.44922 h -36.57" /><path
         id="path56"
         style="fill:#231f20;fill-opacity:1;fill-rule:nonzero;stroke:none"
         d="m 2059.34,2.91016 c -1.04,0 -1.64,0.58984 -1.64,1.6289 V 174.512 c 0,1.019 0.61,1.617 1.64,1.617 h 112.29 c 1.02,0 1.63,-0.598 1.63,-1.617 v -27.543 c 0,-1.02 -0.61,-1.637 -1.63,-1.637 h -75.46 c -1.54,0 -2.49,-0.961 -2.49,-2.5 V 108.07 c 0,-1.539 0.95,-2.5 2.49,-2.5 h 62.84 c 1.03,0 1.62,-0.601 1.62,-1.629 V 76.6484 c 0,-1.0195 -0.61,-1.6171 -1.62,-1.6171 h -62.84 c -1.54,0 -2.49,-0.961 -2.49,-2.5 V 36.2109 c 0,-1.539 0.95,-2.5 2.49,-2.5 h 75.46 c 1.02,0 1.63,-0.6093 1.63,-1.6211 V 4.53906 c 0,-1.02734 -0.61,-1.6289 -1.63,-1.6289 h -112.29" /><path
         id="path58"
         style="fill:#231f20;fill-opacity:1;fill-rule:nonzero;stroke:none"
         d="m 2366.59,2.75 c -1.26,0 -2.01,0.60156 -2.45,1.94141 L 2333.58,114.27 h -1.96 l -0.21,-0.7 L 2300.77,4.64063 C 2300.35,3.35156 2299.59,2.75 2298.34,2.75 h -25.74 c -1.04,0 -1.79,0.64844 -2.21,1.94141 L 2225.08,174.602 c -0.08,0.48 -0.03,0.898 0.14,1.089 0.21,0.258 0.72,0.289 1.01,0.289 h 33.22 c 1.23,0 1.95,-0.601 2.15,-1.781 l 25.41,-110.7498 h 2.04 l 0.16,0.6992 29.89,109.9536 c 0.41,1.269 1.19,1.878 2.43,1.878 h 22.4 c 1.02,0 1.75,-0.648 2.19,-1.929 l 31.07,-110.6018 h 1.97 l 0.2,0.7422 24.2,109.9566 c 0.21,1.352 0.79,1.832 2.19,1.832 h 32.96 c 0.28,0 0.8,-0.031 1,-0.281 0.17,-0.199 0.21,-0.617 0.11,-1.179 L 2394.78,4.62891 C 2394.57,3.42188 2393.68,2.75 2392.35,2.75 h -25.76" /><path
         id="path60"
         style="fill:#231f20;fill-opacity:1;fill-rule:nonzero;stroke:none"
         d="m 2496.48,2.83203 c -1.03,0 -1.63,0.59766 -1.63,1.62891 V 174.43 c 0,1.019 0.62,1.621 1.63,1.621 h 112.31 c 1.01,0 1.62,-0.602 1.62,-1.621 v -27.539 c 0,-1.02 -0.61,-1.641 -1.62,-1.641 h -75.48 c -1.55,0 -2.48,-0.93 -2.48,-2.5 V 108 c 0,-1.551 0.95,-2.512 2.48,-2.512 h 62.84 c 1.05,0 1.63,-0.597 1.63,-1.617 V 76.5703 c 0,-1.0117 -0.6,-1.6211 -1.63,-1.6211 h -62.84 c -1.53,0 -2.48,-0.9609 -2.48,-2.5 V 36.1289 c 0,-1.5391 0.95,-2.5 2.48,-2.5 h 75.48 c 1.01,0 1.62,-0.5976 1.62,-1.6172 V 4.46094 c 0,-1.01953 -0.61,-1.62891 -1.62,-1.62891 h -112.31" /><path
         id="path62"
         style="fill:#231f20;fill-opacity:1;fill-rule:nonzero;stroke:none"
         d="m 2715.13,145.25 c -1.53,0 -2.48,-0.949 -2.48,-2.5 v -40.418 c 0,-1.57 0.93,-2.5117 2.48,-2.5117 h 30.92 c 14.96,0 24.63,8.9687 24.63,22.8397 0,13.731 -9.67,22.59 -24.63,22.59 z M 2772.58,2.83203 c -1.86,0 -2.34,0.44922 -3,2.00781 l -30.4,64.69146 h -24.05 c -1.55,0 -2.48,-0.9297 -2.48,-2.4922 V 4.46094 c 0,-1.03125 -0.59,-1.62891 -1.64,-1.62891 h -32.69 c -1.04,0 -1.64,0.60938 -1.64,1.62891 V 174.43 c 0,1.019 0.6,1.621 1.64,1.621 h 69.78 c 35.02,0 58.55,-21.442 58.55,-53.391 0,-21.5 -11.44,-39.3592 -30.6,-47.7889 l -0.92,-0.4023 34.96,-69.92974 c 0.24,-0.46875 0.27,-0.94922 0.06,-1.25781 -0.17,-0.29297 -0.53,-0.44922 -1,-0.44922 h -36.57" /><path
         id="path64"
         style="fill:#231f20;fill-opacity:1;fill-rule:nonzero;stroke:none"
         d="m 2880.21,2.83203 c -1.03,0 -1.63,0.59766 -1.63,1.62891 V 174.43 c 0,1.019 0.62,1.621 1.63,1.621 h 32.71 c 1.02,0 1.64,-0.602 1.64,-1.621 V 4.46094 c 0,-1.01953 -0.62,-1.62891 -1.64,-1.62891 h -32.71" /><path
         id="path66"
         style="fill:#231f20;fill-opacity:1;fill-rule:nonzero;stroke:none"
         d="m 2994.98,2.83203 c -1.04,0 -1.64,0.59766 -1.64,1.62891 V 174.43 c 0,1.019 0.61,1.621 1.64,1.621 h 112.29 c 1.02,0 1.62,-0.602 1.62,-1.621 v -27.539 c 0,-1.02 -0.6,-1.641 -1.62,-1.641 h -75.47 c -1.54,0 -2.49,-0.949 -2.49,-2.5 V 108 c 0,-1.551 0.95,-2.512 2.49,-2.512 h 62.85 c 1.02,0 1.63,-0.609 1.63,-1.617 V 76.5703 c 0,-1.0117 -0.61,-1.6211 -1.63,-1.6211 h -62.85 c -1.54,0 -2.49,-0.9609 -2.49,-2.5 V 36.1289 c 0,-1.5391 0.95,-2.5 2.49,-2.5 h 75.47 c 1.02,0 1.62,-0.5976 1.62,-1.6172 V 4.46094 c 0,-1.01953 -0.6,-1.62891 -1.62,-1.62891 h -112.29" /><path
         id="path68"
         style="fill:#231f20;fill-opacity:1;fill-rule:nonzero;stroke:none"
         d="m 3233.17,0 c -29.18,0 -54.59,11.8906 -66.82,23.6797 -0.56,0.5586 -1.24,1.8398 -0.19,3.0898 l 19.56,22.3789 c 0.37,0.461 0.78,0.6836 1.24,0.6836 0.42,0 0.87,-0.1836 1.31,-0.5234 15.13,-12.1094 30.76,-18.25 46.44,-18.25 18.22,0 29.54,8.3633 29.54,21.8203 0,11.8711 -8.07,17.8203 -27.87,20.5117 l -9.27,1.2891 c -36.19,4.9922 -54.55,22.3516 -54.55,51.5903 0,31.972 23.99,52.64 61.11,52.64 22.55,0 44.04,-6.601 58.93,-18.101 0.61,-0.418 0.89,-0.739 0.95,-1.039 0.06,-0.329 -0.15,-0.86 -0.63,-1.508 l -15.73,-23.473 c -0.4,-0.5 -0.89,-0.777 -1.38,-0.777 -0.3,0 -0.63,0.09 -0.95,0.289 -14.09,9.23 -27.21,13.539 -41.19,13.539 -15.04,0 -24.37,-7.68 -24.37,-20.02 0,-11.269 8.67,-17.511 28.12,-20.25 l 9.27,-1.289 c 36.53,-4.949 54.28,-21.9997 54.28,-52.1091 C 3300.97,20.75 3274.99,0 3233.17,0" /><path
         id="path70"
         style="fill:#231f20;fill-opacity:1;fill-rule:nonzero;stroke:none"
         d="m 2970.27,1771.69 c -77.3,57.65 -144.16,51.3 -180.36,56.56 -35.73,5.18 -94.14,28.15 -129.26,58.68 -0.58,0.5 -0.4,1.46 0.35,1.67 22.05,6.33 252.63,74.53 366.37,188.26 74.15,74.15 101.51,182.44 77.34,182.44 -34.04,0 -47.48,-77.4 -139.61,-162.28 -33.59,-30.92 -51.35,-28.41 -51.35,-8.92 0,39.49 71.19,158.99 38.65,167.47 -35.07,9.14 -51.06,-62.89 -107.7,-154.59 -31.24,-50.59 -57.79,-69 -72.8,-69 -35.78,0 93.01,205.24 37.41,200.56 -30.33,-2.54 -42.09,-72.22 -110.67,-170.42 -67.31,-96.39 -136.99,-101.25 -118.87,-83.13 77.87,77.87 73.15,176.14 20.15,118.46 -48.29,-52.56 -104.04,-102.23 -108.33,-70.92 -1.49,10.9 10.52,21.69 50.53,95.21 36.47,67.03 37.54,104.31 25.85,109.51 -13.31,5.91 -29.31,-7.26 -51.93,-42.9 -22.62,-35.65 -94.76,-121.4 -116.68,-107.01 -34.81,22.87 66.06,253.96 17.15,267.7 -45.88,12.88 -80.77,-235.95 -150.84,-211.58 -84.08,29.23 24.65,313.83 -29.98,313.83 -49.26,0 -43.39,-228.87 -118.4,-228.87 -93.4,0 -59.43,228.87 -111.26,228.87 -46.02,0 3.15,-199.68 -80.37,-199.68 -54.72,0 -98.63,169.28 -146.43,169.28 -38.21,0 21.05,-105.15 21.05,-149.38 0,-41.19 -28.06,-44.68 -93.53,25.46 -59.65,63.91 -88.85,20.26 -35.33,-51.96 52.37,-70.67 52.47,-125.74 -22.34,-71.18 -64,46.66 -132.5,44.43 3.31,-90.37 138.8,-137.77 438.05,-209.58 460.17,-214.75 0.64,-0.15 0.9,-0.85 0.5,-1.38 -8.26,-11.19 -81.4,-106.01 -213.52,-146.25 -0.59,-0.18 -0.85,-0.86 -0.47,-1.35 4.68,-6.02 31.28,-37.85 71.2,-39.25 0.92,-0.04 1.38,-1.1 0.68,-1.71 -7.31,-6.29 -30.79,-30.42 -15.56,-70.07 0.31,-0.8 1.41,-0.97 1.9,-0.27 3.49,5.02 15.17,19.86 34.7,25.93 0.86,0.27 1.64,-0.69 1.15,-1.45 -5.31,-8.34 -21.68,-39.18 1.06,-73.58 0.48,-0.73 1.64,-0.64 1.96,0.17 2.7,6.83 13.49,29.41 41.27,38.98 1.01,0.34 1.89,-0.89 1.22,-1.72 -8.92,-11.02 -36,-51.76 12.64,-91.57 0.68,-0.56 1.76,-0.09 1.74,0.79 -0.26,7.82 0.82,33.85 24.45,51.79 0.7,0.53 1.75,-0.04 1.61,-0.91 -1.58,-9.47 -5.22,-44.75 23.05,-66.27 32.81,-24.98 155.88,-125.57 223.53,-297.6 0.3,-0.76 1.17,-1.09 1.85,-0.64 14.49,9.52 46.86,32.88 60.17,90.54 6.68,28.95 15.25,39.95 18.7,0 5.84,-67.45 69.7,-116.83 149.34,-118.44 1.19,-0.03 1.85,1.54 0.92,2.3 -10.98,9.15 -17.07,24.47 -17.07,49.92 0,47.66 45.61,47.28 72.72,76.43 21.38,22.98 32.2,46.48 39.11,74.16 13.18,52.74 -17.56,83.52 16.45,107.57 34,24.06 95.18,-13.1 186.18,-20.24 91.02,-7.15 112.68,-18.57 144.13,23.52 31.45,42.08 4.15,33.79 42.22,51.19 38.07,17.39 42.84,27.91 34.84,65.1 -8,37.19 -27.65,119.64 -104.96,177.29" /></g></g></svg>