<?xml version="1.0" encoding="UTF-8" standalone="no"?>
<svg
   xmlns:dc="http://purl.org/dc/elements/1.1/"
   xmlns:cc="http://creativecommons.org/ns#"
   xmlns:rdf="http://www.w3.org/1999/02/22-rdf-syntax-ns#"
   xmlns:svg="http://www.w3.org/2000/svg"
   xmlns="http://www.w3.org/2000/svg"
   viewBox="0 0 288 106.2"
   height="106.2"
   width="288"
   xml:space="preserve"
   id="svg2"
   version="1.1"><metadata
     id="metadata8"><rdf:RDF><cc:Work
         rdf:about=""><dc:format>image/svg+xml</dc:format><dc:type
           rdf:resource="http://purl.org/dc/dcmitype/StillImage" /></cc:Work></rdf:RDF></metadata><defs
     id="defs6" /><g
     transform="matrix(1.3333333,0,0,-1.3333333,0,106.2)"
     id="g10"><g
       transform="scale(0.1)"
       id="g12"><path
         id="path14"
         style="fill:#ffffff;fill-opacity:1;fill-rule:nonzero;stroke:none"
         d="M 1080,796.465 C 556.898,796.465 110.121,728.574 17.6406,635.02 5.78516,622.988 -0.152344,610.527 0.00390625,597.871 1.44922,473.652 550.277,399.395 1080,399.395 c 530.89,0 1080,74.277 1080,198.554 0,124.258 -549.11,198.516 -1080,198.516" /><path
         id="path16"
         style="fill:#a42e2e;fill-opacity:1;fill-rule:nonzero;stroke:none"
         d="m 1375.54,688.848 c -22.32,13.75 -61.54,16.797 -92.71,16.797 -59.71,0 -125.9,-12.579 -154.32,-61.094 l 92.81,-6.524 c 7.48,16.446 26.02,21.778 46.27,21.778 24.94,0 29.36,-6.856 24.71,-24.434 l -0.41,-1.523 c -35.18,-1.543 -71.86,-4.61 -107.62,-12.227 -39.1,-8.418 -77.28,-29.023 -85.45,-59.961 -10.31,-39.004 27.54,-58.867 76.92,-58.867 36.34,0 68.18,8.398 94.9,30.937 -2.4,-9.14 -3.79,-18.32 -3.54,-27.109 h 99.24 c -4.16,13.75 -0.86,28.281 2.95,42.793 l 18.13,68.379 c 7.34,27.891 18.18,53.086 -11.88,71.055 z m -280.23,-61.875 c 5.37,20.273 11.21,42.382 -1.17,58.437 -11.64,14.922 -38.81,20.235 -63.73,20.235 -32.207,0 -65.254,-9.141 -83.613,-31.309 h -1.016 l 7.246,27.48 H 855.906 L 804.309,506.621 h 102.847 l 29.778,112.695 c 4.277,16.055 11.582,34.024 40.175,34.024 22.344,0 17.989,-16.445 14.864,-28.281 L 960.664,506.621 h 102.856 z m -294.712,-9.18 c 7.382,27.891 18.203,53.086 -11.86,71.055 -22.343,13.75 -61.519,16.797 -92.691,16.797 -59.746,0 -125.926,-12.579 -154.324,-61.094 l 92.82,-6.524 c 7.461,16.446 26.016,21.778 46.27,21.778 24.917,0 29.355,-6.856 24.707,-24.434 l -0.391,-1.523 c -35.219,-1.543 -71.859,-4.61 -107.641,-12.227 -39.125,-8.418 -77.308,-29.023 -85.472,-59.961 -10.293,-39.004 27.558,-58.867 76.902,-58.867 36.363,0 68.199,8.398 94.937,30.937 -2.417,-9.14 -3.804,-18.32 -3.535,-27.109 h 99.223 c -4.16,13.75 -0.844,28.281 2.984,42.793 z m 606.472,-38.008 c -3.46,-13.75 3.57,-22.93 15.31,-30.937 -23.6,-6.114 -41.04,-19.102 -45.72,-37.813 -4.46,-17.812 7.03,-29.062 25.11,-36.133 -152.24,-27.539 -344.47,-42.617 -546.719,-42.617 -185.508,0 -355.223,11.563 -492.918,31.328 -15.117,2.149 -29.805,4.453 -44.121,6.797 l 16.406,65.274 c 11.094,-16.543 33.125,-23.868 59.609,-23.868 35.469,0 65.625,13.946 88.028,36.368 18.32,18.339 29.14,42.226 34.668,63.164 11.66,44.101 1.269,95.507 -70.645,95.507 -33.965,0 -63.965,-7.734 -80.488,-30.468 h -0.977 l 9.375,32.617 -94.199,-14.219 -60.684,-205.078 c -111.484,25.762 -183.9839,58.594 -200.6245,95.117 -2.3828,4.727 -3.711,9.473 -3.7696,14.18 0,0.156 0.0586,0.332 0.0586,0.508 0,0.273 -0.1172,0.586 -0.1172,0.859 -0.4101,23.555 29.0625,58.047 163.2427,94.277 57.5,16.075 128.085,30.489 208.71,42.832 68.946,11.485 138.458,19.883 215.106,25.782 41.812,3.222 85.699,5.742 132.867,7.617 l 120.527,2.851 c 241.605,2.032 477.625,-29.492 624.285,-60.781 -21.07,-9.297 -37.6,-23.496 -42.97,-44.902 -5.59,-22.539 5.63,-36.699 29.49,-45.059 -26.33,-7.265 -53.24,-20.625 -58.84,-43.203 z M 620.852,566.582 c -3.325,-12.578 6.168,-17.93 22.261,-17.93 38.965,0 45.84,24.063 51.504,45.469 l 1.02,3.809 c -25.449,-1.895 -68.52,-7.637 -74.785,-31.348 z m 586.798,0 c -3.34,-12.578 6.17,-17.93 22.25,-17.93 38.98,0 45.86,24.063 51.48,45.469 l 1.02,3.809 c -25.43,-1.895 -68.5,-7.637 -74.75,-31.348 z m -839.853,-8.496 c -23.965,0 -22.402,17.285 -18.906,30.488 l 11.836,44.805 c 1.953,7.344 3.007,13.203 11.054,19.141 6.758,4.726 15.508,7.695 24.004,7.695 31.485,0 21.153,-37.11 17.09,-52.539 -2.812,-10.664 -7.305,-23.867 -14.023,-34.141 -6.622,-9.941 -17.071,-15.449 -31.055,-15.449" /><path
         id="path18"
         style="fill:#153621;fill-opacity:1;fill-rule:nonzero;stroke:none"
         d="m 1780.62,597.754 c 4.96,18.711 14.47,52.715 49.75,52.715 35.37,0 26.87,-34.004 21.95,-52.715 -13.85,-52.344 -32.01,-56.152 -50.72,-56.152 -18.69,0 -34.83,3.808 -20.98,56.152 z m -320.14,-77.188 c 2.84,11.485 16.29,12.227 27.56,12.227 l 17.58,-0.352 47.6,-1.933 c 12.19,-0.371 29.06,0.41 25.82,-12.598 -4.32,-17.187 -40.14,-15.273 -54.87,-15.273 -16.17,0 -32.75,0.351 -47.67,3.418 -9.96,1.543 -18.3,5.371 -16.02,14.511 z m 68.03,146.719 c 3.54,14.141 16.31,24.063 34.92,24.063 20.18,0 27.58,-9.571 23.83,-24.453 -3.34,-13.36 -15.6,-23.301 -33.77,-23.301 -20.12,0 -28.91,8.027 -24.98,23.691 z m 45.86,61.875 c -21.62,0 -47.34,-1.953 -70.84,-8.008 l 0.06,0.313 -6.58,1.465 c -114.18,25.332 -289.05,51.543 -479.71,60.781 21.25,0.215 42.6,0.41 64.09,0.41 217.65,0 410.93,-11.172 571.14,-29.414 -14.84,-4.57 -25.39,-13.223 -32.5,-29.375 -14.47,3.086 -29.96,3.828 -45.66,3.828 z m 387.34,-134.101 c -15.6,-59.2 -91.29,-99.727 -172.3,-99.727 -81.04,0 -135.29,40.527 -119.63,99.727 16.58,62.656 90.12,103.144 173.24,103.144 83.09,0 135.24,-40.488 118.69,-103.144 z m -272.85,123.046 c -8.85,0 -22.63,-0.429 -29.28,-7.265 14.48,-10.703 21.29,-26.758 16.98,-43.945 -12.17,-48.868 -79.14,-59.61 -129.67,-59.61 l -21.43,0.781 c -8.3,0 -24.51,0 -26.87,-9.531 -2.5,-9.922 15.84,-9.18 24.67,-9.18 l 68.12,-2.304 c 21.41,-0.781 43.89,-3.047 58.97,-13.36 16.4,-11.093 21.42,-30.195 16.85,-48.515 -6.95,-27.891 -35.39,-45.469 -69.39,-53.867 -28.89,-7.637 -67.85,-8.438 -97.27,-8.438 -17.42,0 -43.87,0.43 -67.95,4.258 -157.18,-31.094 -361.77,-48.203 -577.539,-48.203 -9.082,0 -18.164,0.039 -27.246,0.117 80.093,-3.438 164.812,-5.313 253.585,-5.313 638.04,0 1066.63,95.743 1066.63,185.196 0,54.219 -157.58,110.742 -423.79,146.875 l -11.52,-28.477 -23.85,0.781" /><path
         id="path20"
         style="fill:#231f20;fill-opacity:1;fill-rule:nonzero;stroke:none"
         d="M 211.758,199.434 H 348.711 V 163.43 H 254.59 v -45.024 h 81.57 V 85.1289 H 254.59 V 4.64063 H 211.758 V 199.434" /><path
         id="path22"
         style="fill:#231f20;fill-opacity:1;fill-rule:nonzero;stroke:none"
         d="m 411.688,111.32 h 46.925 c 19.102,0 29.461,8.184 29.461,27.821 0,18.828 -10.359,27.011 -29.461,27.011 h -46.925 z m -42.833,88.114 h 105.04 c 34.921,0 57.023,-24.278 57.023,-53.739 0,-22.922 -9.277,-40.109 -30.828,-48.8395 v -0.5469 c 21.004,-5.457 27,-25.918 28.367,-45.5664 0.82,-12.2734 0.547,-35.1953 8.184,-46.10157 H 493.809 C 488.621,16.9141 489.172,35.7422 486.992,51.2891 483.984,71.7578 476.074,80.7617 454.52,80.7617 H 411.688 V 4.64063 H 368.855 V 199.434" /><path
         id="path24"
         style="fill:#231f20;fill-opacity:1;fill-rule:nonzero;stroke:none"
         d="M 557.051,199.434 H 702.734 V 163.43 H 599.883 v -41.75 h 94.394 V 88.3984 H 599.883 V 40.6523 H 704.922 V 4.64063 H 557.051 V 199.434" /><path
         id="path26"
         style="fill:#231f20;fill-opacity:1;fill-rule:nonzero;stroke:none"
         d="m 762.18,69.2969 c 0,-25.918 20.183,-36.0156 43.101,-36.0156 15.012,0 37.922,4.3671 37.922,24.289 0,21.0039 -29.187,24.5469 -57.832,32.1953 -28.926,7.6367 -58.113,18.8204 -58.113,55.3824 0,39.832 37.644,58.922 72.84,58.922 40.656,0 78.027,-17.73 78.027,-62.742 H 836.66 c -1.367,23.457 -18.008,29.461 -38.469,29.461 -13.64,0 -29.461,-5.73 -29.461,-22.098 0,-15.007 9.266,-16.914 58.106,-29.461 14.187,-3.546 57.844,-12.55 57.844,-56.7495 C 884.68,26.7383 856.57,0 803.652,0 760.535,0 720.168,21.2773 720.703,69.2969 h 41.477" /><path
         id="path28"
         style="fill:#231f20;fill-opacity:1;fill-rule:nonzero;stroke:none"
         d="m 907.266,199.434 h 42.832 v -74.746 h 78.852 v 74.746 h 42.83 V 4.64063 h -42.83 V 88.6719 H 950.098 V 4.64063 H 907.266 V 199.434" /><path
         id="path30"
         style="fill:#231f20;fill-opacity:1;fill-rule:nonzero;stroke:none"
         d="m 1228.03,107.766 h 33.28 c 19.93,0 37.66,4.363 37.66,29.199 0,24.82 -17.73,29.187 -37.66,29.187 h -33.28 z m -42.83,91.668 h 87.85 c 48.56,0 67.38,-30.829 67.38,-62.469 0,-31.652 -18.82,-62.4806 -67.38,-62.4806 h -45.02 V 4.64063 H 1185.2 V 199.434" /><path
         id="path32"
         style="fill:#231f20;fill-opacity:1;fill-rule:nonzero;stroke:none"
         d="m 1361.14,199.434 h 42.83 V 4.64063 h -42.83 V 199.434" /><path
         id="path34"
         style="fill:#231f20;fill-opacity:1;fill-rule:nonzero;stroke:none"
         d="M 1429.05,38.4688 1533.54,163.43 h -96.31 v 36.004 h 153.32 V 165.605 L 1486.06,40.6523 h 107.23 V 4.64063 H 1429.05 V 38.4688" /><path
         id="path36"
         style="fill:#231f20;fill-opacity:1;fill-rule:nonzero;stroke:none"
         d="M 1615.61,38.4688 1720.1,163.43 h -96.31 v 36.004 h 153.32 V 165.605 L 1672.62,40.6523 h 107.23 V 4.64063 H 1615.61 V 38.4688" /><path
         id="path38"
         style="fill:#231f20;fill-opacity:1;fill-rule:nonzero;stroke:none"
         d="m 1864.93,79.9414 h 50.47 l -24.56,71.4766 h -0.54 z m 4.1,119.4926 h 43.9 L 1985.79,4.64063 h -44.48 l -14.72,43.37887 h -72.85 L 1838.46,4.64063 h -43.38 l 73.95,194.79337" /></g></g></svg>