<?xml version="1.0" encoding="UTF-8" standalone="no"?>
<svg
   xmlns:dc="http://purl.org/dc/elements/1.1/"
   xmlns:cc="http://creativecommons.org/ns#"
   xmlns:rdf="http://www.w3.org/1999/02/22-rdf-syntax-ns#"
   xmlns:svg="http://www.w3.org/2000/svg"
   xmlns="http://www.w3.org/2000/svg"
   viewBox="0 0 156.8 200.39999"
   height="200.39999"
   width="156.8"
   xml:space="preserve"
   id="svg2"
   version="1.1"><metadata
     id="metadata8"><rdf:RDF><cc:Work
         rdf:about=""><dc:format>image/svg+xml</dc:format><dc:type
           rdf:resource="http://purl.org/dc/dcmitype/StillImage" /></cc:Work></rdf:RDF></metadata><defs
     id="defs6" /><g
     transform="matrix(1.3333333,0,0,-1.3333333,0,200.4)"
     id="g10"><g
       transform="scale(0.1)"
       id="g12"><path
         id="path14"
         style="fill:#f46d1e;fill-opacity:1;fill-rule:nonzero;stroke:none"
         d="m 586.539,1091.36 25.727,39.41 18.195,-41.36 32.73,36.87 10.477,-42.58 39.23,33.76 2.61,-43.15 45.097,30.13 -5.32,-43.01 50.27,26.02 -13.153,-42.23 54.661,21.49 -20.782,-40.75 58.153,16.63 -28.075,-38.64 60.746,11.5 -34.917,-35.923 62.382,6.2 -41.234,-32.637 63.043,0.797 -46.883,-28.84 62.688,-4.625 -51.801,-24.578 61.367,-9.973 -55.883,-19.926 59.051,-15.16 -59.098,-14.976 55.821,-20.11 -61.399,-9.777 51.727,-24.738 -62.699,-4.434 46.793,-28.984 -63.04,0.996 41.133,-32.77 -62.363,6.383 34.805,-36.027 -60.711,11.699 27.957,-38.746 -58.102,16.816 20.653,-40.816 -54.586,21.664 13.015,-42.25 -50.187,26.152 5.187,-43.039 -45.004,30.27 -2.746,-43.125 -39.121,33.886 -10.613,-42.546 -32.617,36.98 -18.321,-41.328 -25.601,39.5 -25.727,-39.422 -18.183,41.387 -32.743,-36.879 -10.464,42.578 -39.239,-33.766 -2.593,43.129 -45.114,-30.125 5.321,43.02 -50.27,-25.992 13.149,42.207 -54.645,-21.497 20.773,40.754 -58.156,-16.64 28.067,38.66 -60.75,-11.512 34.929,35.922 -62.386,-6.187 41.23,32.636 -63.035,-0.8 46.883,28.839 -62.7,4.629 51.801,24.578 -61.363,9.965 55.894,19.938 -59.062,15.156 59.113,14.98 -55.836,20.098 61.391,9.781 -51.723,24.743 62.715,4.433 -46.797,28.977 63.032,-0.985 -41.122,32.766 62.364,-6.395 -34.821,36.029 60.719,-11.69 -27.949,38.73 58.098,-16.81 -20.645,40.82 54.578,-21.66 -13.019,42.26 50.191,-26.17 -5.187,43.03 45.019,-30.27 2.734,43.15 39.122,-33.89 10.601,42.55 32.625,-36.98 18.317,41.31 25.601,-39.49" /><path
         id="path16"
         style="fill:#151113;fill-opacity:1;fill-rule:nonzero;stroke:none"
         d="m 153.855,28.6094 7.219,17.2304 7.164,-17.25 -14.383,0.0196 m -0.207,-16.0586 v 1.1406 c -1.46,0.1289 -2.449,0.3086 -2.976,0.5586 -0.856,0.4102 -1.281,1.1406 -1.277,2.1992 0,0.5196 0.156,1.2422 0.472,2.1406 0.321,0.9102 1.297,3.3985 2.938,7.5 l 16.484,-0.0312 2.5,-6.0195 c 0.359,-0.8477 0.645,-1.668 0.844,-2.4375 0.207,-0.7813 0.308,-1.3125 0.308,-1.6211 0,-0.9102 -0.273,-1.4922 -0.8,-1.7188 -0.532,-0.2304 -1.727,-0.4297 -3.575,-0.5898 V 12.5313 L 184.625,12.5 v 1.1484 c -1.469,0.2032 -2.508,0.5899 -3.133,1.1524 -0.621,0.5586 -1.445,2.0273 -2.488,4.3984 l -15.508,35.4727 -1.406,0.0078 -13.008,-30.6992 c -1.953,-4.6211 -3.336,-7.4297 -4.141,-8.461 -0.8,-1.0312 -2,-1.6289 -3.601,-1.8086 l -0.004,-1.1406 12.312,-0.0195" /><path
         id="path18"
         style="fill:#151113;fill-opacity:1;fill-rule:nonzero;stroke:none"
         d="m 226.828,53.9219 -0.004,-1.1328 c -2.422,-0.168 -3.992,-0.5586 -4.715,-1.1993 -0.714,-0.6406 -1.078,-2.121 -1.082,-4.4179 l -0.031,-20.0508 c -0.004,-3.2891 0.442,-5.8594 1.328,-7.6992 1.668,-3.3516 4.824,-5.0313 9.489,-5.043 5.101,0 8.531,1.7109 10.289,5.1328 0.976,1.918 1.468,4.8672 1.472,8.8789 l 0.028,16.3008 c 0.003,3.4102 -0.399,5.5586 -1.211,6.4297 -0.817,0.8672 -2.364,1.418 -4.645,1.6484 l 0.004,1.1407 14.508,-0.0313 -0.004,-1.1289 c -2.426,-0.2695 -4.012,-0.8516 -4.758,-1.7617 -0.742,-0.8985 -1.117,-3.0078 -1.125,-6.3086 l -0.023,-16.3203 c -0.004,-4.3203 -0.672,-7.711 -2,-10.1289 -2.453,-4.4688 -7.102,-6.6992 -13.942,-6.6914 -6.758,0.0117 -11.355,2.2226 -13.793,6.6406 -1.324,2.3711 -1.984,5.5 -1.972,9.3906 l 0.027,19.6094 c 0.008,2.2812 -0.34,3.75 -1.039,4.3906 -0.699,0.6406 -2.227,1.0508 -4.574,1.2383 v 1.1406 l 17.773,-0.0273" /><path
         id="path20"
         style="fill:#151113;fill-opacity:1;fill-rule:nonzero;stroke:none"
         d="m 280.016,24.8281 c 1.047,-2.8164 2.273,-5.0468 3.691,-6.7187 2.461,-2.918 5.527,-4.3789 9.191,-4.3906 1.981,0 3.7,0.6328 5.145,1.9023 1.449,1.2695 2.172,3.0391 2.18,5.3086 0.004,2.0508 -0.727,3.8398 -2.188,5.3594 -0.953,0.9492 -2.965,2.4023 -6.027,4.332 l -5.328,3.3672 c -1.602,1.0234 -2.883,2.0625 -3.832,3.1015 -1.77,1.9883 -2.641,4.1797 -2.641,6.5704 0.004,3.1679 1.055,5.8086 3.148,7.9179 2.098,2.1016 4.879,3.1524 8.34,3.1407 1.422,0 3.133,-0.3399 5.137,-1.0274 2.004,-0.6797 3.145,-1.0195 3.434,-1.0195 0.769,0 1.304,0.1797 1.601,0.5273 0.297,0.3516 0.528,0.8516 0.688,1.5117 l 1.304,-0.0117 1.368,-13.3672 -1.465,0.0078 c -1.02,4.0313 -2.653,6.8516 -4.907,8.4493 -2.257,1.6015 -4.484,2.4023 -6.691,2.4101 -1.719,0 -3.219,-0.5078 -4.492,-1.5195 -1.277,-1.0078 -1.914,-2.418 -1.918,-4.2188 0,-1.6211 0.484,-3 1.453,-4.1523 0.977,-1.168 2.492,-2.3867 4.547,-3.6602 l 5.488,-3.4296 c 3.442,-2.129 5.86,-4.0899 7.266,-5.8672 1.387,-1.8008 2.082,-3.9219 2.074,-6.3828 -0.004,-3.2891 -1.238,-6.0274 -3.711,-8.2383 -2.469,-2.1992 -5.617,-3.3008 -9.457,-3.2891 -1.93,0 -3.941,0.3672 -6.039,1.1094 -2.102,0.7305 -3.301,1.0976 -3.609,1.1094 -0.727,0 -1.219,-0.2383 -1.477,-0.711 -0.254,-0.4687 -0.418,-0.9609 -0.5,-1.4883 h -1.387 l -1.855,13.3672 h 1.469" /><path
         id="path22"
         style="fill:#151113;fill-opacity:1;fill-rule:nonzero;stroke:none"
         d="m 334.391,53.7617 35.453,-0.0625 0.226,-10.6679 h -1.465 c -0.726,3.3476 -1.656,5.5468 -2.789,6.5507 -1.128,1.0078 -3.511,1.5274 -7.136,1.5274 l -3.426,0.0117 -0.055,-32.1094 c -0.004,-2.4219 0.375,-3.9023 1.121,-4.4922 0.746,-0.5781 2.379,-0.9609 4.903,-1.1484 v -1.1406 l -18.336,0.0312 v 1.1367 c 2.695,0.2032 4.375,0.6329 5.039,1.3125 0.664,0.6485 0.996,2.3399 1,5.0391 l 0.051,31.3789 h -3.422 c -3.45,0.0117 -5.797,-0.4883 -7.047,-1.4805 -1.25,-1.0078 -2.192,-3.1992 -2.832,-6.5703 h -1.543 l 0.258,10.6836" /><path
         id="path24"
         style="fill:#151113;fill-opacity:1;fill-rule:nonzero;stroke:none"
         d="m 395.016,13.3203 c 2.531,0.1797 4.164,0.5508 4.914,1.1406 0.746,0.5704 1.125,2.0586 1.125,4.4688 l 0.047,27.9609 c 0.003,2.3008 -0.368,3.7891 -1.114,4.461 -0.75,0.6484 -2.383,1.0468 -4.91,1.1797 v 1.1289 l 18.426,-0.0196 V 52.5 c -2.531,-0.1211 -4.168,-0.5117 -4.914,-1.168 -0.75,-0.6601 -1.129,-2.1523 -1.133,-4.4531 l -0.043,-27.957 c 0,-2.4102 0.371,-3.9024 1.117,-4.4805 0.746,-0.582 2.383,-0.9609 4.907,-1.1523 v -1.1407 l -18.422,0.0313 v 1.1406" /><path
         id="path26"
         style="fill:#151113;fill-opacity:1;fill-rule:nonzero;stroke:none"
         d="m 437.992,13.25 c 2.602,0.2617 4.27,0.8516 5.008,1.7617 0.742,0.9102 1.113,3.0078 1.117,6.3203 L 444.16,48.9805 443.301,50 c -0.918,1.0898 -1.707,1.7617 -2.348,2.0117 -0.644,0.2578 -1.609,0.3985 -2.898,0.4492 v 1.1407 l 10.726,-0.0235 24.11,-30.039 0.035,20.8593 c 0.004,3.4297 -0.508,5.6602 -1.528,6.7032 -0.679,0.6679 -2.179,1.1093 -4.492,1.3086 l 0.004,1.1406 14.75,-0.0195 -0.004,-1.1407 c -2.383,-0.2422 -3.965,-0.8125 -4.761,-1.7304 -0.793,-0.9219 -1.196,-3.0313 -1.2,-6.3204 l -0.05,-33.0195 -1.079,0.0117 -27.64,34.4297 -0.035,-24.4297 c -0.004,-3.4414 0.488,-5.6601 1.488,-6.7226 0.652,-0.668 2.105,-1.1289 4.367,-1.3789 v -1.1407 l -14.758,0.0196 0.004,1.1406" /><path
         id="path28"
         style="fill:#151113;fill-opacity:1;fill-rule:nonzero;stroke:none"
         d="m 698.457,53.1992 35.453,-0.0586 0.231,-10.6797 -1.469,0.0079 c -0.727,3.3515 -1.66,5.5507 -2.789,6.5507 -1.125,1.0118 -3.516,1.5196 -7.137,1.5313 h -3.43 L 719.27,18.4492 c 0,-2.4179 0.371,-3.9101 1.113,-4.4883 0.75,-0.582 2.383,-0.9609 4.91,-1.1523 l -0.004,-1.1367 -18.336,0.0273 v 1.1406 c 2.703,0.1993 4.371,0.629 5.043,1.3008 0.664,0.6602 0.992,2.3477 0.996,5.0508 l 0.051,31.3672 -3.422,0.0117 c -3.441,0.0078 -5.797,-0.4883 -7.043,-1.4922 -1.254,-1.0078 -2.195,-3.1875 -2.832,-6.5586 h -1.551 l 0.262,10.6797" /><path
         id="path30"
         style="fill:#151113;fill-opacity:1;fill-rule:nonzero;stroke:none"
         d="m 769.316,12.7383 c 2.321,0.2422 3.836,0.6523 4.52,1.2305 0.691,0.582 1.027,2.0312 1.031,4.3906 l 0.047,27.9492 c 0,2.2305 -0.332,3.6797 -1.008,4.3711 -0.683,0.6797 -2.187,1.1016 -4.531,1.2695 l 0.008,1.1406 33.25,-0.0507 0.23,-8.9688 -1.633,0.0078 c -0.519,2.7617 -1.3,4.5625 -2.363,5.3828 -1.054,0.8086 -3.414,1.2305 -7.078,1.2305 l -8.496,0.0195 c -0.914,0 -1.48,-0.1523 -1.695,-0.4492 -0.211,-0.3008 -0.328,-0.8515 -0.328,-1.6719 l -0.02,-14.0195 9.621,-0.0195 c 2.656,0 4.352,0.3906 5.082,1.1875 0.735,0.793 1.328,2.4101 1.774,4.832 h 1.464 l -0.023,-14.5117 -1.469,0.0117 c -0.453,2.4414 -1.051,4.0508 -1.785,4.8516 -0.726,0.7773 -2.41,1.1797 -5.047,1.1875 l -9.621,0.0117 -0.023,-15.543 c 0,-1.25 0.39,-1.9883 1.179,-2.2187 0.782,-0.2188 3.125,-0.3399 7.039,-0.3477 4.227,0 7.356,0.4492 9.375,1.3789 2.016,0.9102 3.852,3.1407 5.473,6.668 h 1.723 l -2.832,-10.5078 -33.867,0.0508 0.003,1.1367" /><path
         id="path32"
         style="fill:#151113;fill-opacity:1;fill-rule:nonzero;stroke:none"
         d="m 840.734,12.6289 c 1.676,0.1914 2.946,0.6328 3.829,1.3399 0.863,0.7226 2.585,2.6718 5.179,5.8515 l 9.699,11.9805 -6.832,10.0508 c -2.984,4.4101 -5.093,7.1601 -6.304,8.2382 -1.211,1.0704 -2.817,1.6602 -4.832,1.7383 v 1.1524 l 18.937,-0.0313 v -1.1406 c -1.816,-0.0586 -3.008,-0.1875 -3.558,-0.3594 -0.836,-0.2578 -1.25,-0.8398 -1.254,-1.7304 0,-0.5469 0.199,-1.2383 0.609,-2.0274 0.199,-0.4023 0.488,-0.8633 0.859,-1.3906 l 6.418,-9.3711 6.969,8.4687 c 1.031,1.25 1.735,2.25 2.098,3.0118 0.222,0.4492 0.332,0.8593 0.336,1.2304 0,0.9297 -0.446,1.5313 -1.332,1.8399 -0.551,0.1914 -1.539,0.289 -2.985,0.3086 v 1.1523 l 14.825,-0.0312 v -1.1407 c -1.668,-0.039 -2.969,-0.3007 -3.883,-0.789 -1.449,-0.8008 -3.246,-2.5196 -5.391,-5.1602 l -9,-11.2617 11.832,-17.2773 c 1.262,-1.8829 2.301,-3.0704 3.145,-3.5821 0.832,-0.5078 2.058,-0.8789 3.672,-1.1289 v -1.1484 l -18.411,0.0273 0.004,1.1524 c 1.762,0.0273 2.992,0.1797 3.696,0.4492 0.695,0.2695 1.039,0.789 1.046,1.5586 0,0.6523 -0.46,1.75 -1.398,3.2812 -0.918,1.5313 -3.48,5.3907 -7.691,11.5782 L 853.625,20.25 c -1.07,-1.3789 -1.816,-2.3711 -2.23,-3 -0.676,-1.0117 -1.008,-1.75 -1.008,-2.2383 0,-0.9023 0.519,-1.5429 1.566,-1.9101 0.625,-0.2305 1.692,-0.3907 3.192,-0.4922 v -1.1406 l -14.411,0.0195 v 1.1406" /><path
         id="path34"
         style="fill:#151113;fill-opacity:1;fill-rule:nonzero;stroke:none"
         d="m 931.965,27.4102 7.215,17.2382 7.16,-17.2578 -14.375,0.0196 m -0.207,-16.0586 v 1.1367 c -1.469,0.1328 -2.453,0.3125 -2.981,0.5508 -0.855,0.4218 -1.285,1.1523 -1.281,2.2109 0,0.5195 0.164,1.2383 0.481,2.1406 0.32,0.8985 1.289,3.3985 2.921,7.5 l 16.5,-0.0312 2.497,-6.0196 c 0.367,-0.8515 0.648,-1.6679 0.847,-2.4492 0.207,-0.7695 0.309,-1.3008 0.309,-1.6093 0,-0.9102 -0.278,-1.4922 -0.809,-1.7227 -0.527,-0.2305 -1.726,-0.4375 -3.566,-0.5898 l -0.004,-1.1368 16.058,-0.0312 v 1.1406 c -1.464,0.207 -2.515,0.5977 -3.132,1.1602 -0.625,0.5586 -1.446,2.0273 -2.481,4.3984 l -15.515,35.4688 h -1.407 L 927.188,22.7813 c -1.954,-4.6094 -3.329,-7.4415 -4.133,-8.461 -0.813,-1.0312 -2.012,-1.6289 -3.61,-1.8086 l -0.004,-1.1406 12.317,-0.0195" /><path
         id="path36"
         style="fill:#151113;fill-opacity:1;fill-rule:nonzero;stroke:none"
         d="m 1001.02,23.7109 c 1.05,-2.8125 2.28,-5.0507 3.69,-6.7109 2.47,-2.9219 5.53,-4.3789 9.2,-4.3906 1.98,0 3.69,0.6289 5.13,1.8906 1.45,1.2813 2.18,3.0508 2.19,5.3203 0,2.0508 -0.73,3.8399 -2.19,5.3516 -0.95,0.957 -2.96,2.4101 -6.03,4.3398 l -5.33,3.3594 c -1.59,1.0195 -2.88,2.0703 -3.84,3.0977 -1.75,2 -2.63,4.1914 -2.63,6.582 0,3.168 1.06,5.8086 3.16,7.9101 2.09,2.1094 4.87,3.1602 8.33,3.1485 1.43,0 3.14,-0.3399 5.14,-1.0274 2.01,-0.6836 3.15,-1.0234 3.44,-1.0234 0.77,0 1.29,0.1797 1.59,0.5312 0.3,0.3516 0.52,0.8516 0.69,1.5 h 1.3 l 1.37,-13.371 h -1.47 c -1.01,4.0429 -2.64,6.8515 -4.9,8.4531 -2.26,1.6094 -4.49,2.4062 -6.68,2.4062 -1.73,0.0117 -3.22,-0.5 -4.5,-1.5078 -1.28,-1.0195 -1.92,-2.4219 -1.93,-4.2305 0,-1.6093 0.49,-2.9882 1.46,-4.1484 0.98,-1.1719 2.5,-2.3828 4.55,-3.6601 l 5.49,-3.4219 c 3.44,-2.1289 5.86,-4.0977 7.26,-5.8711 1.39,-1.7969 2.08,-3.918 2.08,-6.3789 -0.01,-3.2891 -1.25,-6.0274 -3.72,-8.2383 -2.46,-2.2109 -5.61,-3.3008 -9.44,-3.293 -1.94,0 -3.95,0.3711 -6.04,1.1016 -2.11,0.7422 -3.32,1.1094 -3.61,1.1094 -0.74,0 -1.22,-0.2305 -1.48,-0.6993 -0.25,-0.4687 -0.43,-0.9609 -0.51,-1.5 h -1.39 l -1.853,13.3711 h 1.473" /><path
         id="path38"
         style="fill:#f46d1e;fill-opacity:1;fill-rule:nonzero;stroke:none"
         d="M 596.344,48.0195 627.063,47.9688 602.281,29.4414 611.848,0 587.227,18.1719 562.559,0.0703125 572.305,29.4883 l -24.93,18.6015 30.617,-0.0507 9.328,28.6797 9.024,-28.6993" /><path
         id="path40"
         style="fill:#151113;fill-opacity:1;fill-rule:nonzero;stroke:none"
         d="m 331.48,218.48 -0.003,-2.289 c -3.039,-0.031 -5.114,-0.23 -6.215,-0.582 -1.942,-0.629 -2.907,-1.918 -2.907,-3.847 0,-0.992 0.336,-2.383 1.032,-4.16 0.683,-1.782 1.965,-4.774 3.84,-8.981 l 18.914,-42.422 17.289,45.891 c 0.758,2.012 1.332,3.711 1.726,5.101 0.399,1.379 0.602,2.5 0.602,3.379 0.004,2.328 -1,3.91 -3.008,4.75 -1.18,0.469 -3.125,0.75 -5.84,0.84 l 0.004,2.281 24.762,-0.043 v -2.277 c -2.582,-0.351 -4.488,-1.019 -5.719,-2.031 -1.863,-1.508 -3.719,-4.559 -5.551,-9.149 l -26.84,-68.48 h -1.839 l -29.86,66.98 c -2.515,5.598 -4.531,9.071 -6.047,10.45 -1.515,1.371 -3.734,2.16 -6.648,2.347 l 0.004,2.293 32.304,-0.051" /><path
         id="path42"
         style="fill:#151113;fill-opacity:1;fill-rule:nonzero;stroke:none"
         d="m 437.457,178.102 c 0.02,12.777 2.563,22.207 7.629,28.289 5.066,6.078 11.25,9.121 18.543,9.109 7.055,-0.012 13.16,-2.949 18.305,-8.84 5.148,-5.89 7.711,-15.43 7.691,-28.64 -0.02,-13.051 -2.582,-22.54 -7.691,-28.469 -5.106,-5.93 -11.243,-8.879 -18.422,-8.871 -7.332,0.011 -13.52,3.07 -18.543,9.172 -5.028,6.097 -7.531,15.507 -7.512,28.25 m -13.691,0.019 c -0.02,-12.312 3.781,-22.402 11.394,-30.262 7.496,-7.699 16.938,-11.57 28.317,-11.578 10.632,-0.019 19.703,3.438 27.222,10.367 8.395,7.762 12.598,18.211 12.617,31.352 0.02,12.941 -4.019,23.301 -12.105,31.09 -7.453,7.199 -16.66,10.801 -27.606,10.82 -10.91,0.012 -20.101,-3.539 -27.578,-10.672 -8.156,-7.797 -12.242,-18.179 -12.261,-31.117" /><path
         id="path44"
         style="fill:#151113;fill-opacity:1;fill-rule:nonzero;stroke:none"
         d="m 567.773,147.031 0.094,61.867 c 0.004,2.024 0.485,3.321 1.457,3.922 0.965,0.59 2.817,0.879 5.539,0.879 10.953,-0.019 19.742,-2.719 26.379,-8.121 7.735,-6.316 11.59,-15.719 11.571,-28.199 -0.024,-13.981 -4.747,-23.859 -14.161,-29.629 -6.125,-3.75 -13.933,-5.629 -23.422,-5.609 -3.042,0 -5.054,0.32 -6.015,0.949 -0.973,0.648 -1.445,1.949 -1.442,3.941 m -23,-9.25 33.735,-0.051 c 9.047,-0.019 16.68,1.129 22.89,3.411 3.403,1.218 6.684,3.019 9.848,5.379 4.992,3.75 8.727,8.351 11.203,13.8 2.481,5.45 3.723,11.2 3.735,17.25 0.023,16.801 -6.836,28.481 -20.582,35.039 -7.622,3.641 -16.957,5.469 -27.981,5.493 l -32.726,0.046 v -2.277 c 4.468,-0.332 7.351,-1.133 8.648,-2.391 1.285,-1.269 1.937,-4.121 1.926,-8.558 l -0.082,-53.953 c -0.004,-4.571 -0.684,-7.41 -2.02,-8.528 -1.336,-1.109 -4.195,-1.91 -8.59,-2.371 l -0.004,-2.289" /><path
         id="path46"
         style="fill:#151113;fill-opacity:1;fill-rule:nonzero;stroke:none"
         d="m 667.805,139.879 c 4.929,0.383 7.996,1.262 9.183,2.621 1.192,1.352 1.789,4.602 1.797,9.738 l 0.078,52.532 c 0.008,4.378 -0.648,7.21 -1.972,8.5 -1.317,1.281 -4.317,2.082 -8.969,2.41 l 0.004,2.281 34.605,-0.051 -0.004,-2.289 c -4.734,-0.23 -7.804,-1 -9.191,-2.351 -1.375,-1.329 -2.074,-4.18 -2.078,-8.5 l -0.039,-24.809 c 7.484,6.359 13.605,11.777 18.355,16.238 8.524,8.031 12.793,13.172 12.793,15.449 0.008,1.614 -0.715,2.672 -2.16,3.18 -1.449,0.512 -3.496,0.774 -6.144,0.774 v 2.289 l 31.824,-0.051 -0.008,-2.289 c -3.875,-0.379 -6.918,-1.11 -9.149,-2.219 -2.238,-1.113 -5.335,-3.543 -9.281,-7.281 l -23.765,-21.879 28.902,-31.192 c 5.234,-5.601 8.801,-9.109 10.695,-10.492 1.895,-1.398 4.672,-2.308 8.352,-2.75 l -0.004,-2.277 -37.125,0.059 0.004,2.281 c 3.363,0.121 5.629,0.379 6.828,0.789 1.18,0.41 1.769,1.23 1.777,2.469 0,0.671 -0.386,1.691 -1.148,3.082 -0.774,1.379 -1.985,3 -3.645,4.82 l -23.351,25.199 -3.762,-3.48 -0.035,-21.891 c -0.008,-4.5 0.672,-7.348 2.023,-8.559 1.368,-1.199 4.336,-2 8.922,-2.41 l -0.008,-2.281 -34.308,0.051 0.004,2.289" /><path
         id="path48"
         style="fill:#151113;fill-opacity:1;fill-rule:nonzero;stroke:none"
         d="m 814.762,168.5 14.035,33.398 13.859,-33.437 -27.894,0.039 m -0.332,-31.129 v 2.277 c -2.86,0.243 -4.813,0.602 -5.84,1.071 -1.668,0.793 -2.496,2.191 -2.488,4.242 0,1.019 0.3,2.391 0.918,4.129 0.613,1.762 2.515,6.59 5.687,14.531 l 31.981,-0.051 4.843,-11.679 c 0.711,-1.653 1.254,-3.219 1.653,-4.7 0.394,-1.5 0.593,-2.55 0.593,-3.132 0,-1.758 -0.519,-2.868 -1.55,-3.309 -1.032,-0.461 -3.344,-0.84 -6.942,-1.148 l -0.004,-2.282 30.961,-0.05 0.008,2.281 c -2.855,0.41 -4.883,1.14 -6.086,2.219 -1.203,1.082 -2.812,3.89 -4.816,8.429 l -30.137,68.813 h -2.426 L 805.488,159.5 c -3.797,-8.93 -6.457,-14.379 -8.015,-16.34 -1.547,-1.98 -3.871,-3.129 -6.973,-3.469 l -0.008,-2.293 23.938,-0.027" /><path
         id="path50"
         style="fill:#151113;fill-opacity:1;fill-rule:evenodd;stroke:none"
         d="M 932.949,849.832 C 932.746,716.863 776.41,609.32 583.75,609.617 391.105,609.914 235.094,717.938 235.301,850.906 c 0.203,132.969 156.547,240.514 349.187,240.224 192.668,-0.3 348.668,-108.333 348.461,-241.298" /><path
         id="path52"
         style="fill:none;stroke:#f3681f;stroke-width:3.1407001;stroke-linecap:butt;stroke-linejoin:miter;stroke-miterlimit:4;stroke-dasharray:none;stroke-opacity:1"
         d="M 932.949,849.832 C 932.746,716.863 776.41,609.32 583.75,609.617 391.105,609.914 235.094,717.938 235.301,850.906 c 0.203,132.969 156.547,240.514 349.187,240.224 192.668,-0.3 348.668,-108.333 348.461,-241.298 z" /><path
         id="path54"
         style="fill:#f46d1e;fill-opacity:1;fill-rule:evenodd;stroke:none"
         d="m 576.434,800.238 c -10.93,2.84 -34.7,-48.242 -15.235,-81.242 10.61,-17.98 20.438,-19.586 29.512,-4.769 22.051,35.992 3.918,81.257 -9.176,84.683 l -5.101,1.328 m 12.449,-0.582 8.84,-10.312 c 13.461,-15.711 15.574,-59.375 -4.719,-85.633 l 5.121,-0.051 c 10.211,-0.117 18.797,28.817 19.602,35.676 2.175,20.699 -4.352,61.352 -18.606,61.496 l -10.238,-1.176 m 187.949,-70.89 c 1.973,7.589 2.836,19.605 1.035,33.199 -3.379,26.223 -13.91,36.406 -21.496,39.848 l -7.469,0.867 10.754,-13.25 c 2.684,-3.305 9.77,-26.961 7.403,-48.879 -0.621,-5.629 -2.965,-12.492 -6.407,-22.66 5.629,3.55 11.024,7.086 16.18,10.875 m -131.328,74.855 -30.258,-1.543 5.859,-11.16 c 7.211,-13.734 10.153,-51.215 1.231,-73.816 -2.141,-5.414 -5.383,-9.864 -9.746,-13.356 l 31.941,-1.605 c 0.949,-0.051 4.285,7.226 9.977,21.816 10.683,27.328 -6.598,79.727 -9.004,79.664 m 75.684,1.285 7.71,-13.609 c 3.926,-5.602 9.665,-31.43 7.055,-42.809 l -9.375,-40.824 20.07,5.742 c 1.411,0.239 3.657,6.032 6.743,17.364 3.187,11.718 4.254,23.527 3.191,35.406 -1.332,14.969 -11.219,38.48 -20.051,38.574 l -15.343,0.156 m -64.473,0.5 2.519,-4.633 4,-10.585 c 14.157,-30.293 12.051,-59.743 -6.293,-88.344 l 28.125,-0.301 c 11.938,-0.125 19.844,1.512 23.715,4.91 4.371,3.844 31.953,64.031 -2.64,99.156 -3.469,-9.617 -34.383,-9.054 -37.43,-3.921 l -4.086,3.613 -7.91,0.105 m 30.348,44.465 c 1.464,-3.062 6.726,-5.793 9.656,-15.199 1.707,-5.895 0.422,-12.098 -6.145,-15.074 -4.949,-2.282 -7.914,-2.621 -12.98,0.132 -8.524,4.473 -9.899,13.743 -1.188,23.743 1.594,1.804 4.766,5.722 4.785,6.3 l 2.704,6.707 3.168,-6.609 m 0.16,9 -7.852,-0.129 0.031,2.555 -60.07,1.898 0.133,12.785 101.18,16.864 -0.137,-12.789 -58.891,-8.344 -0.015,-1.277 23.003,-0.235 c 1.715,-0.019 2.559,-0.886 2.551,-2.59 l 0.067,-8.738 m -68.266,24.942 0.106,10.226 101.164,15.582 -0.11,-10.23 -101.16,-15.578 m 0.668,17.804 0.109,11.5 101.153,13.031 -0.133,-11.507 -101.129,-13.024 m 167.926,-163.82 c 43.183,35.59 62.73,78.308 62.781,113.582 0.086,54.758 -46.84,127.969 -156.41,163.911 -34.266,11.2 -72.719,17.62 -113.379,17.68 -40.785,0.07 -79.242,-6.24 -113.559,-17.34 C 357.316,980.035 310.176,906.965 310.09,852.211 c -0.082,-54.758 46.832,-127.949 156.39,-163.918 34.278,-11.188 72.715,-17.613 113.5,-17.676 40.661,-0.062 79.133,6.246 113.434,17.328 6.996,2.207 13.617,4.645 19.973,7.203 l -29.754,-0.566 -113.836,3.309 c -2.945,0.156 -7.57,6.179 -13.859,18.05 -1.45,0.223 -4.321,-0.441 -8.583,-2.003 l -2.968,-1.083 -54.992,-1.347 -35.79,0.351 c -19.593,0.219 -34.492,3.356 -44.648,9.418 l 0.391,162.399 c 0,9.062 18.496,7.562 41.019,11.082 l 3.836,0.605 c -18.394,7.442 -19.91,36.727 -5.074,47.141 l 17.703,12.434 c 4.918,8.628 7.481,15.363 7.731,20.242 l 1.16,22.883 c 0.933,18.877 39.226,21.957 45.879,11.137 l 10.304,-16.774 c 8.961,-14.598 25.469,-23.223 49.52,-25.906 26.746,-2.973 53.008,-9.125 79.488,-13.684 37.832,-6.285 57.715,-9.512 59.723,-9.707 l -0.121,-11.512 -101.164,-14.301 0.144,12.793 57.629,8.36 c -10.449,2.742 -42.137,8.472 -95.016,17.183 -30.859,5.094 -49.046,11.52 -54.621,19.278 l -11.304,15.793 c -4.465,6.242 -17.075,16.037 -19.414,3.297 -2.79,-15.157 -0.957,-26.879 7.964,-38.219 1.125,-1.418 4.329,-4.871 6.368,-5.039 16.503,-1.418 43.332,-32.383 13.421,-55.492 2.293,0.125 4.36,-0.395 6.825,-0.481 12.687,-0.453 26.816,-1.914 37.371,-6.441 2.66,-1.25 5.558,-3.743 5.539,-6.368 l -0.067,-76.113 8.344,0.969 c 4.934,0.086 75.074,9.441 170.231,1.023 25.406,-2.179 39.183,-25.504 34.824,-70.062 -0.004,-0.113 -0.02,0.141 -0.039,0 M 580.578,1044.55 C 737.344,1044.31 864.344,957.754 864.18,851.176 864.016,744.594 736.754,658.426 579.98,658.672 423.215,658.91 296.219,745.469 296.383,852.051 c 0.16,106.582 127.426,192.739 284.195,192.499" /><path
         id="path56"
         style="fill:none;stroke:#f3681f;stroke-width:1.43059003;stroke-linecap:butt;stroke-linejoin:miter;stroke-miterlimit:3.86400008;stroke-dasharray:none;stroke-opacity:1"
         d="m 576.434,800.238 c -10.93,2.84 -34.7,-48.242 -15.235,-81.242 10.61,-17.98 20.438,-19.586 29.512,-4.769 22.051,35.992 3.918,81.257 -9.176,84.683 l -5.101,1.328 m 12.449,-0.582 8.84,-10.312 c 13.461,-15.711 15.574,-59.375 -4.719,-85.633 l 5.121,-0.051 c 10.211,-0.117 18.797,28.817 19.602,35.676 2.175,20.699 -4.352,61.352 -18.606,61.496 l -10.238,-1.176 m 187.949,-70.89 c 1.973,7.589 2.836,19.605 1.035,33.199 -3.379,26.223 -13.91,36.406 -21.496,39.848 l -7.469,0.867 10.754,-13.25 c 2.684,-3.305 9.77,-26.961 7.403,-48.879 -0.621,-5.629 -2.965,-12.492 -6.407,-22.66 5.629,3.55 11.024,7.086 16.18,10.875 m -131.328,74.855 -30.258,-1.543 5.859,-11.16 c 7.211,-13.734 10.153,-51.215 1.231,-73.816 -2.141,-5.414 -5.383,-9.864 -9.746,-13.356 l 31.941,-1.605 c 0.949,-0.051 4.285,7.226 9.977,21.816 10.683,27.328 -6.598,79.727 -9.004,79.664 m 75.684,1.285 7.71,-13.609 c 3.926,-5.602 9.665,-31.43 7.055,-42.809 l -9.375,-40.824 20.07,5.742 c 1.411,0.239 3.657,6.032 6.743,17.364 3.187,11.718 4.254,23.527 3.191,35.406 -1.332,14.969 -11.219,38.48 -20.051,38.574 l -15.343,0.156 m -64.473,0.5 2.519,-4.633 4,-10.585 c 14.157,-30.293 12.051,-59.743 -6.293,-88.344 l 28.125,-0.301 c 11.938,-0.125 19.844,1.512 23.715,4.91 4.371,3.844 31.953,64.031 -2.64,99.156 -3.469,-9.617 -34.383,-9.054 -37.43,-3.921 l -4.086,3.613 -7.91,0.105 m 30.348,44.465 c 1.464,-3.062 6.726,-5.793 9.656,-15.199 1.707,-5.895 0.422,-12.098 -6.145,-15.074 -4.949,-2.282 -7.914,-2.621 -12.98,0.132 -8.524,4.473 -9.899,13.743 -1.188,23.743 1.594,1.804 4.766,5.722 4.785,6.3 l 2.704,6.707 3.168,-6.609 m 0.16,9 -7.852,-0.129 0.031,2.555 -60.07,1.898 0.133,12.785 101.18,16.864 -0.137,-12.789 -58.891,-8.344 -0.015,-1.277 23.003,-0.235 c 1.715,-0.019 2.559,-0.886 2.551,-2.59 l 0.067,-8.738 m -68.266,24.942 0.106,10.226 101.164,15.582 -0.11,-10.23 -101.16,-15.578 m 0.668,17.804 0.109,11.5 101.153,13.031 -0.133,-11.507 -101.129,-13.024 m 167.926,-163.82 c 43.183,35.59 62.73,78.308 62.781,113.582 0.086,54.758 -46.84,127.969 -156.41,163.911 -34.266,11.2 -72.719,17.62 -113.379,17.68 -40.785,0.07 -79.242,-6.24 -113.559,-17.34 C 357.316,980.035 310.176,906.965 310.09,852.211 c -0.082,-54.758 46.832,-127.949 156.39,-163.918 34.278,-11.188 72.715,-17.613 113.5,-17.676 40.661,-0.062 79.133,6.246 113.434,17.328 6.996,2.207 13.617,4.645 19.973,7.203 l -29.754,-0.566 -113.836,3.309 c -2.945,0.156 -7.57,6.179 -13.859,18.05 -1.45,0.223 -4.321,-0.441 -8.583,-2.003 l -2.968,-1.083 -54.992,-1.347 -35.79,0.351 c -19.593,0.219 -34.492,3.356 -44.648,9.418 l 0.391,162.399 c 0,9.062 18.496,7.562 41.019,11.082 l 3.836,0.605 c -18.394,7.442 -19.91,36.727 -5.074,47.141 l 17.703,12.434 c 4.918,8.628 7.481,15.363 7.731,20.242 l 1.16,22.883 c 0.933,18.877 39.226,21.957 45.879,11.137 l 10.304,-16.774 c 8.961,-14.598 25.469,-23.223 49.52,-25.906 26.746,-2.973 53.008,-9.125 79.488,-13.684 37.832,-6.285 57.715,-9.512 59.723,-9.707 l -0.121,-11.512 -101.164,-14.301 0.144,12.793 57.629,8.36 c -10.449,2.742 -42.137,8.472 -95.016,17.183 -30.859,5.094 -49.046,11.52 -54.621,19.278 l -11.304,15.793 c -4.465,6.242 -17.075,16.037 -19.414,3.297 -2.79,-15.157 -0.957,-26.879 7.964,-38.219 1.125,-1.418 4.329,-4.871 6.368,-5.039 16.503,-1.418 43.332,-32.383 13.421,-55.492 2.293,0.125 4.36,-0.395 6.825,-0.481 12.687,-0.453 26.816,-1.914 37.371,-6.441 2.66,-1.25 5.558,-3.743 5.539,-6.368 l -0.067,-76.113 8.344,0.969 c 4.934,0.086 75.074,9.441 170.231,1.023 25.406,-2.179 39.183,-25.504 34.824,-70.062 -0.004,-0.113 -0.02,0.141 -0.039,0 M 580.578,1044.55 C 737.344,1044.31 864.344,957.754 864.18,851.176 864.016,744.594 736.754,658.426 579.98,658.672 423.215,658.91 296.219,745.469 296.383,852.051 c 0.16,106.582 127.426,192.739 284.195,192.499 z" /><path
         id="path58"
         style="fill:#151113;fill-opacity:1;fill-rule:evenodd;stroke:none"
         d="m 1027.49,1207.55 0.01,5.97 5.1,-0.01 c 1.83,-0.01 3.17,-1.35 3.17,-2.99 -0.01,-1.63 -1.45,-3.07 -2.98,-2.97 h -5.3 m -4.24,-11.33 4.22,-0.01 0.01,8.27 h 4.05 c 1.82,-0.01 3.65,-1.55 3.64,-4.81 0,-2.5 0.09,-2.79 0.29,-3.47 h 4.03 c -0.57,2.01 0.01,4.13 -0.47,6.15 -0.47,2.31 -1.9,3.46 -3.26,3.65 2.21,0.39 4.04,2.41 4.04,5.1 0.01,3.17 -2.39,5.67 -6.14,5.67 l -10.38,0.02 -0.03,-20.57 m 7.87,-5.29 c -8.46,0.01 -15.17,6.75 -15.16,15.21 0.02,8.54 6.75,15.36 15.21,15.35 8.36,-0.01 15.17,-6.95 15.16,-15.4 -0.01,-8.36 -6.85,-15.17 -15.21,-15.16 m -0.01,-2.79 c 9.82,-0.01 18.09,8.04 18.11,18.04 0.01,9.9 -8.15,18.08 -18.05,18.09 -10,0.02 -18.07,-8.04 -18.08,-18.13 -0.02,-9.9 8.03,-17.99 18.02,-18" /><path
         id="path60"
         style="fill:#151113;fill-opacity:1;fill-rule:evenodd;stroke:none"
         d="m 748.949,1368.43 c -21.793,-11.81 -37.058,-31.97 -50.094,-52.67 -26.46,-42.08 -39.003,-94.94 -15.917,-104 63.511,-24.18 168.128,212.22 66.011,156.67 m -285.179,-112.82 -0.938,-7.38 c -0.156,-14.43 -92.019,-77.91 -98.945,-38.46 -0.942,5.24 3.222,24.04 12.176,41.89 l 45.617,95.91 c 2.019,4.16 1.968,5.41 2.242,7.29 -0.887,3.35 -2.223,4.47 -8.484,3.36 l -28.411,-7.56 5.887,14.55 92.789,26.42 c -3.09,-6.45 -6.39,-12.77 -9.902,-18.98 -44.297,-78.23 -69.887,-128.5 -76.785,-150.77 -0.512,-1.52 -0.188,-2.91 1.347,-2.83 14.157,1.14 28.875,8.03 44.18,20.67 l 19.227,15.89 m 218.742,-58.92 c -16.918,0.16 -37.676,-1.01 -47.094,15.42 -35.098,61.41 94.559,188.24 161.887,177.24 90.445,-14.67 -29.317,-193.6 -114.793,-192.66 m 223.035,3.02 c -17.738,-2.78 -37.367,-0.24 -58.867,7.64 l 28.371,25.69 c 28.383,-33.79 76.004,-11.82 78.933,12.51 0.559,4.59 -5.55,20.28 -18.293,47.09 -17.418,36.63 -5.816,65.84 34.801,87.66 41.598,22.34 72.158,9.24 79.478,5.41 l -19.56,-36.32 -13.69,0.15 c 1.52,1.49 3.88,3.83 5.56,9.07 8.22,25.52 -51.069,29.07 -61.737,-6.38 -2.594,-8.62 2.941,-26.74 16.621,-54.35 34.486,-69.63 -58.73,-96.15 -71.617,-98.17 m -322.141,39.99 v 0 c -13.472,-22.34 -80.574,-51.68 -91.718,-40.53 -14.118,14.06 -5.168,34.6 8.269,60.58 39.164,75.73 55.93,110.09 56.715,111.67 l -34.957,-1.04 17.082,17.91 28.797,-0.3 27.929,51.69 34.344,6.66 -26.637,-58.72 60.293,-1.33 -18.457,-16.5 -52.082,1.25 c -38.343,-75.9 -59.671,-119.28 -67.722,-138.19 -1.563,-3.66 -4.625,-12.96 2.902,-12.97 13.449,-0.02 22.031,4.64 35.172,14.89 l 19.777,18.39 0.293,-13.46 m 318.297,233.53 41.11,-0.43 -44.797,-93.64 -12.34,0.13 16.027,93.94 m -442.168,-51.82 20.348,26.93 14.039,7.01 c 5.687,2.84 14.766,7.94 27.258,15.33 4.465,2.64 9.011,5.16 13.621,7.53 l -17.539,-28.17 -57.727,-28.63 m -200.98,-193.55 -27.625,-30.38 -108.707,0.16 34.074,30.81 21.668,-0.47 c 10.422,5.19 16.441,8.85 29.277,23.82 19.332,20.7 96.504,175.72 96.371,178.78 l -15.078,-0.54 c -38.414,-1.38 -61.957,-7.12 -70.043,-11.72 -24.07,-13.69 -35.937,-30.3 -36.172,-55.28 l -41.265,-15.03 c -1.551,23.27 47.101,112.92 153.238,109.36 l 100.051,-1.05 c 12.996,0.04 33.211,-0.71 61.609,19.63 l 18.742,17.62 24.27,9.41 c -6.957,-18.8 -61.426,-79.36 -159.723,-72.77 -3.273,-9.25 -21.957,-46.55 -56.012,-111.92 -23.292,-44.72 -53.82,-74.93 -81.554,-91.36 l 56.879,0.93" /><path
         id="path62"
         style="fill:#f46d1e;fill-opacity:1;fill-rule:evenodd;stroke:none"
         d="m 345.121,1418.33 -1.836,0.15 -0.746,-1.69 c -20.887,-47.27 -52.391,-110.51 -66.867,-130.35 -17.988,-24.67 -33.219,-41.77 -44.035,-49.48 l 3.023,-4.24 c 11.43,8.14 26.649,25.18 45.223,50.64 14.551,19.94 44.797,80.22 66.707,129.7 105.883,-7.17 151.301,67.13 156.781,76.23 l -1.012,6.39 c -5.336,-8.87 -53.171,-85.36 -157.238,-77.35" /><path
         id="path64"
         style="fill:#f46d1e;fill-opacity:1;fill-rule:evenodd;stroke:none"
         d="m 235.5,1189.73 c -2.523,0 -108.715,0.5 -108.715,0.5 l 4.309,-5.23 106.98,-0.49 27.774,32.94 -1.379,5.93 c 0,0 -27.485,-31.7 -28.969,-33.65" /><path
         id="path66"
         style="fill:#f46d1e;fill-opacity:1;fill-rule:evenodd;stroke:none"
         d="m 521.188,1440.62 c -1.598,-0.71 -53.368,-23.48 -53.368,-23.48 l 6.145,-3.12 50.992,22.57 13.16,25.73 -1.035,8.49 c 0,0 -15.086,-28.65 -15.894,-30.19" /><path
         id="path68"
         style="fill:#f46d1e;fill-opacity:1;fill-rule:evenodd;stroke:none"
         d="m 414.488,1235.21 4.782,1.63 c 0.593,7.27 43.921,89.34 73.105,142.2 l -1.371,7.03 c -80.016,-144.93 -77.473,-149.24 -76.516,-150.86" /><path
         id="path70"
         style="fill:#f46d1e;fill-opacity:1;fill-rule:evenodd;stroke:none"
         d="m 466.41,1235.52 c -4.301,-5.24 -41.097,-48.32 -86.574,-46.57 l 0.996,-0.4 c 50.871,-1.96 88.516,42.24 90.145,44.33 l 0.449,0.57 1.961,11.73 -5.176,6.3 c 0,0 -1.648,-14.57 -1.801,-15.96" /><path
         id="path72"
         style="fill:#f46d1e;fill-opacity:1;fill-rule:evenodd;stroke:none"
         d="m 590.027,1235.34 c -4.312,-5.25 -41.105,-48.33 -86.582,-46.57 l 0.996,-0.41 c 50.872,-1.97 88.52,42.24 90.141,44.32 l 0.457,0.59 1.957,11.72 -5.18,6.3 c 0,0 -1.64,-14.57 -1.789,-15.95" /><path
         id="path74"
         style="fill:#f46d1e;fill-opacity:1;fill-rule:evenodd;stroke:none"
         d="m 614.746,1391.52 5.594,-0.47 18.73,44.22 -2.414,7.43 -21.91,-51.18" /><path
         id="path76"
         style="fill:#f46d1e;fill-opacity:1;fill-rule:evenodd;stroke:none"
         d="m 688.488,1278.16 c -8.468,-19.71 -15.761,-46.23 -2.445,-60.64 h -0.012 c -7.152,13.7 -3.851,32.73 7.25,58.58 19.254,44.82 59.817,93.24 81.344,97.78 v 0.23 c -32.613,-3.44 -67.699,-53.04 -86.137,-95.95" /><path
         id="path78"
         style="fill:#f46d1e;fill-opacity:1;fill-rule:evenodd;stroke:none"
         d="m 822.746,1387.47 c 5.262,-2.19 11.598,-11.18 13.856,-26.3 0.464,-3.1 0.812,-6.98 0.8,-11.58 -0.039,-25.59 -11.367,-73.18 -78.722,-128.96 -0.02,0 -8.914,-6.25 -8.914,-6.25 -28.996,-20.46 -36.789,-25.96 -76.629,-25.9 l 0.465,0.04 c 36.179,-2.99 49.867,0.92 79.171,21.59 l 9.055,6.37 c 81.676,67.63 83.106,124.25 79.93,145.46 -2.25,15.07 -10.137,22.19 -18.207,25.55 l -0.805,-0.02" /><path
         id="path80"
         style="fill:#f46d1e;fill-opacity:1;fill-rule:evenodd;stroke:none"
         d="m 902.012,1370.27 c -2.891,0.33 -13.91,1.68 -13.91,1.68 l 4.859,-5.43 12.109,-1.84 43.129,90.76 -1.203,9.23 c 0,0 -43.422,-91.22 -44.984,-94.4" /><path
         id="path82"
         style="fill:#f46d1e;fill-opacity:1;fill-rule:evenodd;stroke:none"
         d="m 1035.61,1342.04 -17.13,0.02 7.45,-5.22 12.78,-0.03 18.25,34.02 -1.63,7.44 c 0,0 -18.34,-33.7 -19.72,-36.23" /><path
         id="path84"
         style="fill:#f46d1e;fill-opacity:1;fill-rule:evenodd;stroke:none"
         d="m 967.398,1354.57 c -3.851,-9.39 -1.121,-21.78 8.09,-36.84 5.809,-9.46 23.535,-42.9 8.254,-75.68 -12.125,-26.01 -42.656,-43.37 -88.289,-50.21 l 0.172,-0.4 c 47.449,7.11 79.949,20.74 92.848,48.41 11.054,23.71 7.867,53.85 -8.535,80.6 -8.301,13.56 -10.903,24.38 -7.711,32.14 4.246,10.36 17.023,18.86 25.402,20.94 l -0.031,0.04 c -9.325,-2.31 -24.953,-6.19 -30.2,-19" /><path
         id="path86"
         style="fill:#f46d1e;fill-opacity:1;fill-rule:evenodd;stroke:none"
         d="m 210.867,1402.42 c -11.387,-9.96 -17.883,-23.94 -19.902,-42.46 l -46.34,-17.3 4.477,-3.89 46.933,17.87 -0.847,0.63 0.707,-0.36 c 1.562,18.43 7.558,32.1 18.402,41.58 14.394,12.59 37.461,17.84 68.445,15.73 l 2.246,5.11 c -33.394,2.57 -58.34,-3.12 -74.121,-16.91" /><path
         id="path88"
         style="fill:#f46d1e;fill-opacity:1;fill-rule:evenodd;stroke:none"
         d="m 665.73,1377.54 c 0,0 -16.156,-15.07 -17.55,-16.34 -1.95,0 -49.934,1.23 -49.934,1.23 l -0.726,-1.42 c -2.075,-4.07 -47.325,-92.44 -63.254,-125.11 -1.575,-3.96 -2.672,-8.78 1.023,-9.9 10.016,21.46 59.527,118.2 66.09,131.07 3.004,0 48.816,-1.1 48.816,-1.1 l 16.543,15.64 -1.008,5.93" /><path
         id="path90"
         style="fill:#151113;fill-opacity:1;fill-rule:nonzero;stroke:none"
         d="m 317.59,541.766 c -5.301,2.617 -11.672,3.949 -18.949,3.98 -19.114,0.031 -40.743,-10.094 -64.286,-30.133 -19.031,-16.273 -40.203,-47.363 -62.917,-92.422 0,0 -0.961,-1.89 -1.594,-3.121 -2.192,0 -53.867,0.121 -59.438,0.141 2.324,4.687 14.547,29.34 14.547,29.34 3.008,6.027 9.711,18.019 19.938,35.64 l 1.699,2.93 -12.336,0.039 c -24.281,0.059 -46.4727,-6.101 -65.9727,-18.308 -19.5313,-12.231 -33.5,-28.731 -41.5079,-49.02 -2.4062,-6.113 -3.9609,-12.352 -4.6171,-18.551 l -0.4493,-4.312 30.2813,21.402 -0.1797,1.188 c -0.9688,6.421 -0.1797,12.89 2.3242,19.261 8.0938,20.508 27.7813,30.891 58.5232,30.821 h 0.364 c -2.637,-5.262 -39.6059,-79.02 -39.6059,-79.02 -7.8868,-15.812 -14.1797,-26.762 -18.711,-32.562 -4.3398,-5.571 -10.164,-10.27 -17.2343,-14.028 -1.2188,0.141 -11.9141,1.367 -11.9141,1.367 L 0,328.199 54.7344,325.32 78.9141,342.512 c 0,0 -16.7188,1.109 -24.3868,1.609 7.9336,3.731 14.6329,7.539 18.8633,11.449 5.4492,5.02 11.1407,13.27 16.9375,24.52 l 6.6367,12.988 c 0.004,0.024 3.5352,7.152 4.7462,9.582 2.223,-0.019 53.473,-0.129 59.117,-0.16 -0.312,-0.59 -0.707,-1.352 -0.707,-1.352 -17.23,-34.617 -28.844,-59.468 -34.535,-73.898 l -1.641,-4.172 44.032,17.121 c 0.011,0 7.89,3.133 7.89,3.133 5.301,2.066 8.438,4.477 9.574,7.359 l 1.645,7.289 -3.676,-1.902 c -7.219,-3.476 -12.789,-5.226 -16.558,-5.226 -1.18,0 -2.711,0.187 -3.301,1.058 -0.399,0.59 -0.844,2.18 0.742,6.199 4.375,11.11 11.715,27.032 21.816,47.34 l 8.133,15.86 c 22.914,45.66 39.613,75.32 49.664,88.171 9.746,12.465 20.852,18.766 32.996,18.735 5.758,-0.008 10.625,-2.113 14.868,-6.43 l 1.175,-1.191 27.563,19.722 -2.918,1.45" /><path
         id="path92"
         style="fill:#151113;fill-opacity:1;fill-rule:nonzero;stroke:none"
         d="m 340.422,434.809 1.355,1.98 -2.207,0.93 c -5,2.121 -11.668,3.222 -19.804,3.23 -21.086,0.051 -43.039,-8.75 -65.27,-26.16 -22.133,-17.367 -38.113,-38.23 -47.5,-62.019 -4.617,-11.7 -5.359,-19.622 -2.25,-24.18 1.895,-2.789 5.09,-4.219 9.496,-4.238 8.031,0 18.922,4.578 33.285,14.046 11.121,7.313 22.485,16.872 33.868,27.571 -1.305,-2.399 -4.598,-8.489 -4.598,-8.489 -0.02,-0.031 -4.817,-9.332 -4.817,-9.332 0.012,0.024 -4.765,-9.839 -4.765,-9.839 -2.055,-5.188 -2.242,-8.887 -0.594,-11.329 1.238,-1.839 3.359,-2.75 6.32,-2.769 8.161,-0.012 18.868,5.629 32.731,17.211 13.488,11.359 16.066,15.269 16.84,17.207 0.465,1.199 0.824,3.543 -2.082,5.98 l -1.485,1.231 -1.257,-1.469 c -14.665,-17.09 -22.422,-20.941 -26.411,-21.082 0.024,0.371 0.129,1.02 0.633,2.289 l 7.227,14.551 3.926,7.441 27.496,51.301 c 0.007,0.027 4.363,7.328 4.363,7.328 l 3.797,6.141 c -0.028,-0.039 1.703,2.469 1.703,2.469 M 310.758,420.75 c -1.406,-2.578 -5.867,-10.77 -5.867,-10.77 -10.094,-18.742 -24.426,-35.281 -42.578,-49.148 -13.301,-10.172 -23.219,-15.32 -29.485,-15.301 -2.035,0 -2.547,0.75 -2.711,1.008 -0.652,0.949 -1.308,3.723 1.727,11.402 7.582,19.219 17.601,35.547 29.773,48.489 11.969,12.718 23.121,19.14 33.16,19.121 6.004,-0.012 11.313,-1.75 15.981,-4.801" /><path
         id="path94"
         style="fill:#151113;fill-opacity:1;fill-rule:nonzero;stroke:none"
         d="m 443.609,366.012 23.399,43.258 c 0.012,0.019 6.984,14.468 6.984,14.468 1.571,4.012 2.352,7.332 2.344,10.024 0,2.019 -0.457,3.687 -1.363,5.027 -1.489,2.191 -4.055,3.32 -7.618,3.332 -7.953,0.008 -18.945,-4.441 -33.605,-13.582 -11.77,-7.32 -23.699,-16.789 -35.57,-27.418 0.703,1.399 3.703,7.348 3.703,7.348 0.008,0.019 4.594,9.441 4.594,9.441 -0.016,-0.031 4.121,8.852 4.121,8.852 2.246,5.699 2.449,9.738 0.64,12.429 -1.383,2.028 -3.797,3.059 -7.175,3.071 -5.301,0 -13.7,-4.024 -25.665,-12.34 -11.953,-8.293 -18.73,-14.793 -20.73,-19.852 -0.703,-1.8 -0.238,-3.73 1.383,-5.781 l 1.437,-1.828 1.555,1.75 c 14.129,15.711 21.242,19.019 24.734,19.008 h 0.016 c 0.023,-0.071 0.043,-0.09 0.043,-0.321 0.008,-0.609 -0.18,-1.929 -1.172,-4.449 l -5.16,-11.5 -3.152,-6.109 c -0.012,-0.02 -31.258,-62.102 -31.258,-62.102 l -4.379,-8.597 c -0.024,-0.039 -3.559,-7.532 -3.559,-7.532 l 25.203,8.86 14.313,28.633 c 7.594,15.128 19.027,29.507 33.969,42.726 14.769,13.051 26.882,19.652 35.996,19.621 0.621,0 1.418,-0.078 1.707,-0.5 0.215,-0.32 0.773,-1.668 -0.949,-6.019 -2.071,-5.25 -5.551,-12.5 -10.368,-21.559 l -15.222,-28.152 c -6.032,-11.25 -10.367,-20.207 -12.891,-26.617 -2.367,-5.981 -2.633,-10.204 -0.824,-12.864 1.289,-1.898 3.469,-2.867 6.492,-2.867 5.883,-0.012 14.723,4.098 27.012,12.598 12.285,8.48 19.301,15.269 21.465,20.722 0.461,1.207 0.836,3.539 -1.922,5.84 l -1.407,1.199 -1.261,-1.359 c -15.992,-16.922 -23.239,-20.519 -26.504,-20.562 -0.004,0.05 -0.004,0.019 -0.016,0.082 0.004,0.418 0.129,1.398 0.871,3.281 1.942,4.949 5.243,11.769 9.789,20.34" /><path
         id="path96"
         style="fill:#151113;fill-opacity:1;fill-rule:nonzero;stroke:none"
         d="m 589.813,363.969 -1.512,1.203 -1.211,-1.492 c -14.145,-17.09 -21.746,-20.899 -25.684,-21.059 0.004,0.43 0.125,1.301 0.813,3.027 l 6.617,13.942 3.617,7.281 48.93,97.25 c 9.687,19.348 18.969,33.199 27.594,41.137 8.425,7.762 18.191,11.68 29.043,11.66 4.636,-0.016 8.437,-0.594 11.277,-1.75 l 1.012,-0.41 26.793,19.504 -3.93,1.062 c -2.957,0.813 -6.746,1.231 -11.242,1.242 -18.551,0.028 -38.426,-8.375 -59.117,-25.011 -20.547,-16.516 -37.368,-37.567 -50.008,-62.543 0,0 -3.235,-6.434 -4.446,-8.891 -1.336,0.078 -3.265,0.199 -3.265,0.199 l 0.054,-0.019 c -18.98,0.051 -39.777,-9.063 -61.808,-27.063 -21.93,-17.937 -37.57,-38.5 -46.496,-61.109 -4.582,-11.617 -5.285,-19.5 -2.16,-24.09 1.945,-2.867 5.234,-4.32 9.796,-4.34 8.04,-0.027 19.829,5.27 36.04,16.141 11.847,7.941 21.539,16.379 30.066,24.988 -1.547,-2.976 -4.164,-8.039 -4.164,-8.039 -0.02,-0.039 -8.442,-18.211 -8.442,-18.211 -1.25,-3.156 -1.871,-5.816 -1.867,-7.988 0.004,-1.692 0.391,-3.09 1.149,-4.211 1.269,-1.859 3.433,-2.809 6.429,-2.82 8.075,-0.02 18.555,5.613 32.047,17.23 12.973,11.262 15.52,15.199 16.305,17.199 0.457,1.192 0.809,3.571 -2.23,5.981 m -24.192,60.929 c 4.379,-0.007 8.692,-1.558 12.871,-4.238 -1.254,-2.57 -5.59,-11.351 -5.601,-11.379 -9.746,-19.34 -23.426,-35.859 -40.657,-49.109 -13.136,-10.184 -23.082,-15.32 -29.578,-15.313 -2.019,0.02 -2.527,0.77 -2.699,1.012 -0.652,0.957 -1.297,3.738 1.734,11.418 7.758,19.68 17.844,36.109 29.997,48.82 11.937,12.5 23.347,18.801 33.933,18.789" /><path
         id="path98"
         style="fill:#151113;fill-opacity:1;fill-rule:nonzero;stroke:none"
         d="m 771.797,365.379 c 0.012,0.019 22.793,43.031 22.793,43.031 l 7.394,15.371 c 1.442,3.629 2.137,6.688 2.133,9.199 0,1.969 -0.453,3.61 -1.347,4.942 -1.528,2.226 -4.196,3.379 -7.934,3.398 -8.027,0.02 -18.75,-4.941 -32.789,-15.16 -10.391,-7.57 -20.649,-17.172 -30.719,-27.75 0.387,0.762 1.34,2.61 1.34,2.61 0.008,0.011 5.355,10.71 5.355,10.71 l 5.407,11.45 c 1.586,4.011 2.367,7.34 2.355,10.031 0.008,2.019 -0.445,3.68 -1.344,5 -1.464,2.129 -3.957,3.23 -7.421,3.25 -14.95,0.027 -35.594,-12.973 -62.872,-39.41 1.184,2.34 2.911,5.758 2.911,5.758 0.011,0.011 4.609,9.429 4.609,9.429 -0.02,-0.027 4.129,8.864 4.129,8.864 2.23,5.66 2.433,9.699 0.609,12.367 -1.39,2.062 -3.836,3.109 -7.254,3.121 -5.293,0.012 -13.672,-4.02 -25.617,-12.32 -11.933,-8.309 -18.683,-14.809 -20.691,-19.872 -0.696,-1.777 -0.231,-3.726 1.386,-5.777 l 1.426,-1.82 1.563,1.719 c 14.14,15.742 21.215,19.039 24.672,19.031 0.011,-0.063 0.031,-0.082 0.019,-0.301 0.012,-0.609 -0.156,-1.922 -1.168,-4.48 l -5.262,-11.469 c 0.008,0.027 -3.167,-6.141 -3.167,-6.141 -0.012,-0.019 -31.102,-62.09 -31.102,-62.09 l -4.395,-8.582 c -0.007,-0.066 -3.57,-7.566 -3.57,-7.566 l 24.969,8.887 14.305,28.613 c 6.582,12.93 17.507,26.75 32.437,41.109 18.32,17.61 27.516,21.289 32.012,21.278 0.933,-0.008 1.558,-0.207 1.832,-0.618 0.133,-0.191 0.336,-0.632 0.336,-1.562 0.004,-1.199 -0.321,-3.199 -1.61,-6.457 l -4.019,-8.922 -3.106,-5.879 c -0.015,-0.031 -26.722,-52.269 -26.722,-52.269 -0.032,-0.032 -3.992,-8.18 -3.992,-8.18 0.015,0.039 -4.387,-8.582 -4.387,-8.582 -0.012,-0.051 -3.571,-7.578 -3.571,-7.578 l 24.844,8.91 14.551,28.609 c 6.57,12.918 17.492,26.75 32.453,41.098 18.352,17.609 27.633,21.301 32.164,21.293 0.613,-0.012 1.406,-0.102 1.711,-0.543 0.238,-0.348 0.856,-1.84 -1.058,-6.688 l -3.567,-7.5 c -0.019,-0.05 -3.558,-7.113 -3.558,-7.113 l -3.461,-6.566 c -0.024,-0.032 -15.012,-28.082 -15.012,-28.082 -6.266,-11.66 -10.586,-20.461 -12.836,-26.141 -2.34,-5.961 -2.574,-10.18 -0.723,-12.918 1.371,-2.012 3.739,-3.051 7.047,-3.051 5.457,-0.019 14.028,4.121 26.192,12.621 12.156,8.5 19.074,15.2 21.16,20.5 0.543,1.348 0.621,3.5 -2.09,5.989 l -1.512,1.398 -1.32,-1.598 c -4.363,-5.339 -9.36,-10.191 -14.789,-14.39 -6.817,-5.262 -9.836,-6.059 -11.035,-6.078 -0.016,0.047 -0.024,0.027 -0.024,0.109 0,0.449 0.137,1.449 0.891,3.359 1.871,4.79 5.254,11.649 10.039,20.399" /><path
         id="path100"
         style="fill:#151113;fill-opacity:1;fill-rule:nonzero;stroke:none"
         d="m 897.297,358.672 3.933,7.437 27.489,51.301 c 0.008,0.031 4.367,7.34 4.367,7.34 l 3.801,6.129 c -0.032,-0.039 1.691,2.473 1.691,2.473 l 1.36,1.976 -2.196,0.953 c -5.031,2.11 -11.691,3.188 -19.801,3.207 -21.109,0.063 -43.074,-8.75 -65.269,-26.148 -22.145,-17.36 -38.129,-38.219 -47.516,-62.012 -4.617,-11.707 -5.351,-19.629 -2.254,-24.199 1.895,-2.789 5.09,-4.207 9.496,-4.219 8.024,-0.019 18.911,4.559 33.301,14.039 11.125,7.321 22.481,16.871 33.86,27.551 -1.321,-2.391 -4.602,-8.48 -4.602,-8.48 -0.019,-0.032 -4.82,-9.34 -4.82,-9.34 0.015,0.019 -4.766,-9.821 -4.766,-9.821 -2.039,-5.199 -2.23,-8.91 -0.59,-11.339 1.246,-1.821 3.364,-2.75 6.313,-2.75 8.16,-0.032 18.867,5.601 32.746,17.21 13.484,11.348 16.07,15.239 16.844,17.211 0.461,1.188 0.812,3.547 -2.098,5.957 l -1.477,1.231 -1.254,-1.457 C 901.203,345.832 893.43,342 889.434,341.84 c 0.035,0.371 0.148,1.019 0.644,2.301 l 7.219,14.531 m -4.352,65.437 c 5.993,-0.007 11.293,-1.769 15.965,-4.808 -1.394,-2.571 -5.863,-10.781 -5.863,-10.781 -10.082,-18.75 -24.414,-35.282 -42.582,-49.141 -13.289,-10.18 -23.211,-15.32 -29.477,-15.301 -2.039,0 -2.543,0.762 -2.718,1 -0.653,0.961 -1.29,3.731 1.738,11.402 7.582,19.231 17.601,35.532 29.777,48.481 11.957,12.73 23.113,19.168 33.16,19.148" /><path
         id="path102"
         style="fill:#151113;fill-opacity:1;fill-rule:nonzero;stroke:none"
         d="m 1046.72,362.859 -1.49,1.192 -1.22,-1.473 c -14.14,-17.09 -21.75,-20.906 -25.69,-21.047 0.02,0.43 0.14,1.289 0.82,3.008 l 6.61,13.93 c 0.01,0.011 3.63,7.293 3.63,7.293 l 48.93,97.25 c 9.67,19.347 18.95,33.179 27.58,41.136 8.42,7.758 18.18,11.684 29.03,11.668 4.65,-0.015 8.45,-0.613 11.3,-1.769 l 1,-0.399 26.79,19.5 -3.94,1.079 c -2.96,0.796 -6.74,1.218 -11.22,1.226 -18.54,0.039 -38.42,-8.375 -59.12,-25.015 -20.54,-16.516 -37.37,-37.567 -50,-62.54 -0.01,-0.007 -3.23,-6.437 -4.46,-8.886 -1.32,0.066 -3.26,0.179 -3.26,0.179 h 0.05 c -18.97,0.039 -39.76,-9.07 -61.798,-27.05 -21.938,-17.95 -37.574,-38.512 -46.492,-61.141 -4.582,-11.59 -5.278,-19.48 -2.168,-24.078 1.945,-2.863 5.25,-4.313 9.816,-4.32 8.027,-0.024 19.812,5.238 36.031,16.128 11.84,7.95 21.531,16.379 30.061,24.989 -1.54,-2.981 -4.17,-8.039 -4.17,-8.039 -0.02,-0.039 -8.43,-18.211 -8.43,-18.211 -1.262,-3.168 -1.887,-5.821 -1.883,-7.989 0.012,-1.691 0.399,-3.082 1.161,-4.191 1.273,-1.879 3.433,-2.84 6.432,-2.84 8.07,-0.027 18.55,5.621 32.05,17.231 12.96,11.25 15.51,15.211 16.29,17.199 0.47,1.191 0.82,3.562 -2.24,5.98 m -24.17,60.942 c 4.37,-0.02 8.68,-1.582 12.87,-4.242 -1.26,-2.571 -5.59,-11.368 -5.61,-11.387 -9.75,-19.332 -23.43,-35.863 -40.658,-49.113 -13.125,-10.168 -23.082,-15.309 -29.566,-15.297 -2.031,0.008 -2.539,0.758 -2.699,1 -0.66,0.976 -1.309,3.718 1.726,11.41 7.766,19.687 17.86,36.098 30,48.828 11.927,12.488 23.337,18.809 33.937,18.801" /><path
         id="path104"
         style="fill:#151113;fill-opacity:1;fill-rule:nonzero;stroke:none"
         d="m 1158.82,440.43 c -13.47,0.031 -30.16,-8.981 -51,-27.578 -20.41,-18.192 -34.33,-36.473 -41.39,-54.364 -4.03,-10.207 -4.68,-18.808 -1.92,-25.547 2.88,-7.07 8.7,-10.66 17.31,-10.703 13.08,-0.019 29.51,7.84 48.85,23.391 10.06,8.09 12.15,11.371 12.85,13.133 0.99,2.519 0.45,4.918 -1.51,6.789 l -1.48,1.398 -1.33,-1.519 c -14.24,-16.051 -27.58,-24.149 -39.65,-24.141 -4.52,0.02 -7.57,1.223 -9.36,3.641 -1.33,1.82 -1.99,4.351 -2.01,7.59 0,3.539 0.84,8.019 2.41,13.23 16.96,4.309 33.12,11.859 48.01,22.531 15.32,11.008 25.44,22.508 30.05,34.207 1.3,3.301 1.95,6.141 1.94,8.543 -0.01,2.071 -0.5,3.821 -1.48,5.278 -1.85,2.711 -5.31,4.113 -10.29,4.121 m -13.49,-29.989 c -2.95,-7.453 -8.98,-14.07 -17.93,-19.703 -9.01,-5.629 -18.15,-8.488 -27.14,-8.457 -0.83,0.008 -1.72,0.348 -2.58,0.547 5.85,10.75 12.59,20.043 20.21,27.231 7.95,7.531 15.06,11.339 21.1,11.332 3.62,-0.012 5.99,-0.789 7.02,-2.313 1.13,-1.656 0.9,-4.637 -0.68,-8.637" /><path
         id="path106"
         style="fill:#f46d1e;fill-opacity:1;fill-rule:nonzero;stroke:none"
         d="m 63.8633,446.961 c -4.7344,-6.41 -7.1133,-13.813 -7.0899,-22.063 0.0039,-1.828 0.2305,-3.738 0.4649,-5.636 -8.6563,-7.18 -31.5586,-23.981 -31.8008,-24.172 l 5.7109,-2.262 c 1.0196,0.762 22.4961,16.481 30.4883,23.281 l 1.1133,0.95 -0.2227,1.453 c -1.5507,9.75 0.3125,18.297 5.5313,25.347 8.1992,11.071 22.4961,15.161 34.0504,16.782 l 2.735,5.507 c -6.1174,-0.859 -29.4534,-3.609 -40.9807,-19.187" /><path
         id="path108"
         style="fill:#f46d1e;fill-opacity:1;fill-rule:nonzero;stroke:none"
         d="m 117.156,422.16 6.242,0.192 28.59,55.328 -2.363,6.379 -32.469,-61.899" /><path
         id="path110"
         style="fill:#f46d1e;fill-opacity:1;fill-rule:nonzero;stroke:none"
         d="M 103.941,397.211 90.7734,371.109 c -2.582,-4.871 -13.5156,-21 -22.1523,-25.359 l 7.5078,-0.469 c 10.5586,6.039 18.832,22.59 19.2344,23.36 0,0 9.4177,19.257 12.3867,24.691 2.961,-0.082 43.578,0.477 43.578,0.477 l 2.449,4.863 -49.07,-0.051 -0.766,-1.41" /><path
         id="path112"
         style="fill:#f46d1e;fill-opacity:1;fill-rule:nonzero;stroke:none"
         d="m 54.8516,321.941 c -1.75,0.11 -52.21488,2.809 -52.21488,2.809 l 3.94531,-4.699 49.74607,-3.43 22.5508,15.801 -0.1094,6.379 c 0,0 -22.5273,-15.903 -23.9179,-16.86" /><path
         id="path114"
         style="fill:#f46d1e;fill-opacity:1;fill-rule:nonzero;stroke:none"
         d="m 189,350.73 c -0.027,-3.039 -0.066,-7.21 -10.68,-11.71 l -49.863,-19.571 7.461,-2.59 44.449,17.352 c 12.688,5.41 12.434,4.809 12.481,9.937 l 0.386,2.743 -4.347,7.461 0.113,-3.622" /><path
         id="path116"
         style="fill:#f46d1e;fill-opacity:1;fill-rule:nonzero;stroke:none"
         d="m 293.496,513.172 c -3.797,3.094 -13.66,10.137 -24.055,9.172 -6.003,-0.571 -11.109,-3.668 -15.191,-9.235 l -8.121,-10.89 C 240.293,494.52 238.102,491.621 231.93,480.328 225.398,468.41 175.438,377 165.695,355.461 l 6.407,0.117 c 9.675,21.383 57.878,110.352 64.402,122.25 5.988,10.953 7.957,13.551 13.785,21.262 l 8.168,10.937 c 3.203,4.364 6.941,6.692 11.457,7.125 10.613,0.989 21.606,-9.132 21.719,-9.234 l 1.609,-1.5 26.856,20.48 0.996,7.309 c 0,0 -24.629,-18.769 -27.598,-21.035" /><path
         id="path118"
         style="fill:#f46d1e;fill-opacity:1;fill-rule:nonzero;stroke:none"
         d="m 234.504,348.578 5.957,2.242 c 14.461,46.489 48.48,70.629 61.449,70.668 l -6.406,2.024 c -9.145,-0.032 -45.824,-20.633 -61,-74.934" /><path
         id="path120"
         style="fill:#f46d1e;fill-opacity:1;fill-rule:nonzero;stroke:none"
         d="m 300.145,351.121 9.406,7.109 34.816,64.168 -0.961,8.801 -43.261,-80.078" /><path
         id="path122"
         style="fill:#f46d1e;fill-opacity:1;fill-rule:nonzero;stroke:none"
         d="m 279,320.398 1.969,0.012 c 25.148,0.461 44.316,27.09 44.73,28.43 l -1.859,5.398 c -0.035,-0.629 -21.047,-31.136 -44.84,-33.84" /><path
         id="path124"
         style="fill:#f46d1e;fill-opacity:1;fill-rule:nonzero;stroke:none"
         d="m 216.102,320.621 1.964,-0.391 c 24.766,1.25 35.372,9.411 43.985,17.418 l 5.086,10.231 c -8.086,-7.52 -25.758,-25.129 -51.035,-27.258" /><path
         id="path126"
         style="fill:#f46d1e;fill-opacity:1;fill-rule:nonzero;stroke:none"
         d="m 832.41,347.449 5.942,2.25 c 14.468,46.492 48.48,70.629 61.464,70.68 l -6.418,2.019 c -9.14,-0.019 -45.82,-20.648 -60.988,-74.949" /><path
         id="path128"
         style="fill:#f46d1e;fill-opacity:1;fill-rule:nonzero;stroke:none"
         d="m 898.047,350 9.414,7.109 34.801,64.172 -0.965,8.797 L 898.047,350" /><path
         id="path130"
         style="fill:#f46d1e;fill-opacity:1;fill-rule:nonzero;stroke:none"
         d="m 876.902,319.289 h 1.965 c 25.153,0.473 44.317,27.09 44.727,28.43 l -1.856,5.402 C 921.703,352.488 900.695,322 876.902,319.289" /><path
         id="path132"
         style="fill:#f46d1e;fill-opacity:1;fill-rule:nonzero;stroke:none"
         d="m 814.547,320.059 1.976,-0.387 c 24.758,1.25 35.368,9.398 43.981,17.43 l 5.078,10.226 C 857.5,339.789 839.84,322.199 814.547,320.059" /><path
         id="path134"
         style="fill:#f46d1e;fill-opacity:1;fill-rule:evenodd;stroke:none"
         d="m 413.895,440.672 c 2.062,-2.684 5.527,-9.813 -3.473,-24.774 l 8.629,7.481 c 4.297,8.66 1,10.43 -2.793,15.332 l -2.363,1.961" /><path
         id="path136"
         style="fill:#f46d1e;fill-opacity:1;fill-rule:evenodd;stroke:none"
         d="m 367.887,327.23 c -2.285,-0.66 -26.508,-7.73 -26.508,-7.73 l 7.601,-3.23 22.895,6.699 0.453,1.242 c 0.227,0.641 23.531,63.949 71.067,88.937 l 2.793,5.614 C 397.891,400.531 371.477,336.629 367.887,327.23" /><path
         id="path138"
         style="fill:#f46d1e;fill-opacity:1;fill-rule:evenodd;stroke:none"
         d="m 364.469,401.621 6.261,-0.711 c 2.918,3.469 6.184,8.02 10.223,11.762 l 2.731,8.269 c -6.286,-3.953 -16.215,-15.761 -19.215,-19.32" /><path
         id="path140"
         style="fill:#f46d1e;fill-opacity:1;fill-rule:evenodd;stroke:none"
         d="m 478.625,437.961 1.063,-2 c 1.769,-3.063 3.98,-6.84 -9.809,-31.5 l -30.961,-56.492 9.406,7.89 26.11,46.051 c 14.14,25.301 10.289,28.719 7.082,34.238 l -2.891,1.813" /><path
         id="path142"
         style="fill:#f46d1e;fill-opacity:1;fill-rule:evenodd;stroke:none"
         d="m 418.887,319.699 5.558,0.711 c 23.575,4 38.481,15.449 44.34,28.82 l -2.125,6.61 c -3.242,-9.211 -17.39,-28.602 -47.773,-36.141" /><path
         id="path144"
         style="fill:#f46d1e;fill-opacity:1;fill-rule:evenodd;stroke:none"
         d="m 549.453,320.359 h 3.145 c 28.125,7.2 43.941,21.813 44.343,29.223 l -2.691,4.898 c -0.191,-3.589 -17.258,-27.07 -44.797,-34.121" /><path
         id="path146"
         style="fill:#f46d1e;fill-opacity:1;fill-rule:evenodd;stroke:none"
         d="m 527.941,338.82 c -10.605,-8.199 -25.128,-19.429 -47.246,-19.769 l 0.754,-0.449 c 20.848,-2.704 39.129,7.937 49.68,16.097 l 1.465,1.121 4.601,10.828 -9.254,-7.828" /><path
         id="path148"
         style="fill:#f46d1e;fill-opacity:1;fill-rule:evenodd;stroke:none"
         d="m 504.559,348.539 5.375,1 c 21.019,54.781 50.472,70.691 55.746,72.289 l -3.551,-0.156 c -5.691,-1.723 -34.945,-10.563 -57.57,-73.133" /><path
         id="path150"
         style="fill:#f46d1e;fill-opacity:1;fill-rule:evenodd;stroke:none"
         d="m 689.055,507.855 c -6.094,1.375 -34.336,5.653 -51.774,-28.296 l -66.297,-127.289 10.977,9.851 59.965,115.059 c 17.441,33.992 45.652,25.761 46.84,25.39 l 1.183,-0.371 26.817,17.93 1.851,7.254 c 0,0 -27.801,-18.363 -29.562,-19.528" /><path
         id="path152"
         style="fill:#f46d1e;fill-opacity:1;fill-rule:evenodd;stroke:none"
         d="m 1005.4,320.512 3.15,0.008 c 28.12,7.191 43.94,21.789 44.33,29.21 l -2.68,4.911 c -0.19,-3.61 -17.25,-27.09 -44.8,-34.129" /><path
         id="path154"
         style="fill:#f46d1e;fill-opacity:1;fill-rule:evenodd;stroke:none"
         d="m 983.887,338.98 c -10.61,-8.21 -25.137,-19.441 -47.254,-19.781 l 0.762,-0.449 c 20.843,-2.699 39.128,7.941 49.687,16.109 l 1.453,1.11 4.606,10.84 -9.254,-7.829" /><path
         id="path156"
         style="fill:#f46d1e;fill-opacity:1;fill-rule:evenodd;stroke:none"
         d="m 960.508,348.691 5.371,1.008 c 21.012,54.77 50.471,70.672 55.751,72.289 l -3.56,-0.16 c -5.69,-1.726 -34.933,-10.566 -57.562,-73.137" /><path
         id="path158"
         style="fill:#f46d1e;fill-opacity:1;fill-rule:evenodd;stroke:none"
         d="m 1144.99,507.996 c -6.08,1.387 -34.33,5.66 -51.77,-28.285 l -66.29,-127.301 10.98,9.86 59.95,115.05 c 17.46,34.004 45.67,25.758 46.86,25.399 l 1.18,-0.367 26.8,17.933 1.86,7.246 c 0,0 -27.8,-18.363 -29.57,-19.535" /><path
         id="path160"
         style="fill:#f46d1e;fill-opacity:1;fill-rule:evenodd;stroke:none"
         d="m 639.094,399.488 6.59,-0.449 6.461,6.82 3.546,10.95 -16.597,-17.321" /><path
         id="path162"
         style="fill:#f46d1e;fill-opacity:1;fill-rule:evenodd;stroke:none"
         d="m 701.496,326.859 c -2.453,-0.769 -26.715,-8.3 -26.715,-8.3 l 6.332,-3.098 24.711,7.277 0.344,1.442 c 0.113,0.468 13.988,53.14 64.82,93.121 l -2.476,-1.321 C 716.91,377.422 703.457,334.109 701.496,326.859" /><path
         id="path164"
         style="fill:#f46d1e;fill-opacity:1;fill-rule:evenodd;stroke:none"
         d="m 641.297,326.691 c -2.469,-0.761 -26.723,-8.3 -26.723,-8.3 l 6.34,-3.09 24.707,7.269 0.348,1.45 c 0.109,0.468 13.988,53.128 64.816,93.101 l -2.476,-1.301 c -51.606,-38.582 -65.055,-81.871 -67.012,-89.129" /><path
         id="path166"
         style="fill:#f46d1e;fill-opacity:1;fill-rule:evenodd;stroke:none"
         d="m 748.438,440.602 c 2.203,-5.172 0.925,-16.571 -4.926,-24.93 l 8.008,7.418 c 2.453,6.199 0.617,9.699 -2.207,16.371 l -0.875,1.141" /><path
         id="path168"
         style="fill:#f46d1e;fill-opacity:1;fill-rule:evenodd;stroke:none"
         d="m 690.398,442.289 c 2.192,-5.168 0.911,-16.578 -4.929,-24.93 l 8,7.43 c 2.465,6.18 0.625,9.699 -2.207,16.359 l -0.864,1.141" /><path
         id="path170"
         style="fill:#f46d1e;fill-opacity:1;fill-rule:evenodd;stroke:none"
         d="m 765.93,347.488 9.242,6.821 c 34.098,56.679 32.984,73.39 33.734,80.691 l -0.433,2.121 c -0.555,-5.41 -8.055,-32.281 -42.543,-89.633" /><path
         id="path172"
         style="fill:#f46d1e;fill-opacity:1;fill-rule:evenodd;stroke:none"
         d="m 744.645,319.148 2.843,-0.097 c 31.172,2.238 46.239,23.59 49.012,29.758 l -2.207,6.019 c -1.84,-6.047 -19.656,-31.258 -49.648,-35.68" /><path
         id="path174"
         style="fill:#f46d1e;fill-opacity:1;fill-rule:evenodd;stroke:none"
         d="m 1175.3,436.988 c 0.12,-0.488 4.08,-50.179 -80.09,-74.957 l -1.5,-0.441 -0.62,-2.93 c -0.96,-4.449 -3.83,-9.801 3.21,-15.789 l 0.31,1.219 c -1.56,3.398 -0.95,5.551 -0.33,8.031 0.39,1.559 1.55,3.738 1.91,5.379 70.02,21.172 77.87,60.309 77.82,75.422 0,1.539 -0.11,3.047 -0.32,4.019 l -0.39,0.047" /><path
         id="path176"
         style="fill:#f46d1e;fill-opacity:1;fill-rule:evenodd;stroke:none"
         d="m 1103.28,385.789 7.1,1.25 c -0.78,-1.609 12.28,24.441 28.01,32.82 l -0.11,0.231 c -19.05,-8.309 -35.31,-35.149 -35,-34.301" /><path
         id="path178"
         style="fill:#f46d1e;fill-opacity:1;fill-rule:evenodd;stroke:none"
         d="m 1078.9,319.172 0.48,-0.442 c 48.17,1.051 70.01,28.59 69.99,34.758 l -2.62,6.293 c -0.17,-4.281 -15.49,-37.043 -67.85,-40.609" /></g></g></svg>