<svg width="61" height="60" viewBox="0 0 61 60" fill="none" xmlns="http://www.w3.org/2000/svg">
<path d="M44.803 29.5923C36.4201 29.5923 29.5994 36.4116 29.5994 44.7958C29.5994 53.1786 36.4195 60 44.803 60C53.1878 60 60.0085 53.1793 60.0085 44.7958C60.0085 36.4123 53.1885 29.5923 44.803 29.5923ZM44.803 56.7652C38.2033 56.7652 32.8342 51.3955 32.8342 44.7958C32.8342 38.1962 38.2033 32.8257 44.803 32.8257C51.404 32.8257 56.7737 38.1962 56.7737 44.7958C56.7737 51.3955 51.404 56.7652 44.803 56.7652Z" fill="#0057B8"/>
<path d="M50.8776 43.1784H46.4204V38.7218C46.4204 37.8316 45.6959 37.1058 44.8036 37.1058C43.9127 37.1058 43.1876 37.8316 43.1876 38.7218V43.1784H38.731C37.8401 43.1784 37.1156 43.9042 37.1156 44.7958C37.1156 45.6867 37.8401 46.4118 38.731 46.4118H43.1876V50.8691C43.1876 51.7607 43.9127 52.4858 44.8036 52.4858C45.6959 52.4858 46.4204 51.7607 46.4204 50.8691V46.4118H50.8776C51.7685 46.4118 52.495 45.6867 52.495 44.7958C52.495 43.9042 51.7685 43.1784 50.8776 43.1784Z" fill="#0057B8"/>
<path d="M31.7607 12.3239C34.7711 6.55247 39.5262 3.2422 44.809 3.2422C46.2876 3.2422 47.7284 3.50503 49.0884 4.0226C54.6468 6.14071 59.1769 12.5517 56.767 22.0997C56.3485 23.7515 55.5822 25.5953 54.4898 27.5766C54.2802 27.9547 54.2317 28.3914 54.3517 28.8058C54.4723 29.221 54.7466 29.5653 55.124 29.7736C55.8814 30.1907 56.9065 29.8928 57.3209 29.1394C58.5481 26.9155 59.4168 24.8129 59.902 22.8915C62.7817 11.4781 56.9119 3.54344 50.2394 1.00076C48.496 0.336957 46.6569 0.000673866 44.7706 0.000673866C39.1299 -4.88348e-08 33.9084 3.05014 30.3259 8.40102C26.7414 3.05014 21.5199 0 15.8805 0C13.9943 0 12.1551 0.336283 10.4124 1.00009C3.73996 3.54277 -2.12984 11.4781 0.751825 22.8909C2.69742 30.5991 10.1428 38.7986 17.8982 46.5129C19.8688 48.4734 21.8103 50.1292 23.5295 51.597L24.4885 52.4171C24.7816 52.6698 25.1556 52.8073 25.5418 52.8073C26.0142 52.8073 26.4617 52.6018 26.769 52.2439C27.3499 51.5673 27.2724 50.5443 26.5951 49.962L25.6274 49.1351C23.9574 47.7105 22.0651 46.0944 20.1794 44.2189C13.1101 37.1866 5.6458 29.0599 3.88823 22.099C1.47763 12.5503 6.00702 6.13937 11.5655 4.0226C12.9248 3.50436 14.3636 3.24288 15.8428 3.24288C21.1263 3.24288 25.8828 6.5518 28.8925 12.3225C29.1715 12.8603 29.7207 13.1932 30.3266 13.1932C30.9311 13.1932 31.481 12.8603 31.7607 12.3239Z" fill="#0057B8"/>
</svg>
