<svg width="253" height="68" viewBox="0 0 253 68" fill="none" xmlns="http://www.w3.org/2000/svg">
<path d="M59.0145 31.4185H59.1186C59.332 31.4177 59.5433 31.4615 59.7388 31.5472C59.9343 31.6329 60.1098 31.7585 60.2539 31.916L61.3388 32.9546C61.3388 33.2303 60.9257 34.4784 60.0994 36.6992L60.0054 36.7967L60.0524 36.9009C59.4886 38.0921 59.0268 39.329 58.6719 40.5983C58.5125 40.8519 58.4115 41.1378 58.3763 41.4353C58.1524 42.0897 57.7046 43.4723 57.0328 45.5832H57.231C57.4526 45.6235 57.5668 45.674 57.5668 45.7378C57.6211 45.7331 57.6737 45.7171 57.7214 45.6908C57.9358 45.7089 58.149 45.7403 58.3595 45.7849C58.4695 45.7575 58.5821 45.7417 58.6954 45.7378V45.7849L58.7995 45.7378H59.2866C59.4052 45.9619 59.7042 46.074 60.1834 46.074C60.4079 46.1336 60.6013 46.2767 60.7241 46.474C60.7811 46.4731 60.8367 46.4915 60.8819 46.5263C60.927 46.5611 60.959 46.6102 60.9727 46.6656C61.2347 46.6656 61.3623 46.7832 61.3623 47.0185C61.2145 47.153 60.4901 47.2829 59.1892 47.4084V47.3614C59.1829 47.3609 59.1765 47.3617 59.1706 47.3639C59.1646 47.3661 59.1593 47.3695 59.1548 47.374C59.1503 47.3785 59.1469 47.3839 59.1447 47.3898C59.1425 47.3958 59.1416 47.4021 59.1421 47.4084C57.5948 47.4712 56.7059 47.5025 56.4752 47.5025C55.4273 51.088 54.5058 54.7126 53.7109 58.3765C53.6236 58.4135 53.4792 59.0891 53.2743 60.3933C53.1259 60.8613 53.0081 61.3385 52.9216 61.8219H52.8746C52.8734 61.8283 52.8738 61.835 52.8757 61.8412C52.8776 61.8475 52.8811 61.8532 52.8857 61.8578C52.8903 61.8624 52.896 61.8659 52.9023 61.8678C52.9085 61.8698 52.9152 61.8701 52.9216 61.8689C52.6697 63.0925 52.4883 63.7009 52.3775 63.7009H52.1423C52.0382 63.7009 51.6923 63.4521 51.1011 62.958C50.8089 62.7832 50.6611 62.6689 50.6544 62.6219C50.6477 62.5748 50.7686 61.8521 50.9903 60.6051L50.8929 60.5546C50.9446 60.0547 51.0276 59.5585 51.1414 59.0689C51.1163 59.0243 51.1004 58.9752 51.0944 58.9244C51.1817 58.9244 51.3273 58.232 51.531 56.8471C51.6251 56.8303 51.7762 56.3698 51.9811 55.4622C52.0046 55.4622 52.0349 55.395 52.0752 55.2605C52.0498 55.2173 52.0338 55.1692 52.0281 55.1194C52.2969 53.7748 52.542 52.9076 52.7704 52.4975C52.7459 52.4539 52.73 52.4059 52.7234 52.3563C52.7928 52.3563 52.9048 51.9933 53.0593 51.2672C53.3213 50.0706 53.5833 49.0151 53.852 48.1009C53.899 48.1009 53.9292 47.9395 53.946 47.6168L53.852 47.5563H53.6034C53.4679 47.5562 53.3332 47.5766 53.2037 47.6168C53.1512 47.6093 53.1015 47.5884 53.0593 47.5563C52.8292 47.5923 52.5969 47.6125 52.364 47.6168H51.9744C51.7997 47.758 51.1067 48.9244 49.8953 51.116C49.1407 52.4 48.5506 53.042 48.1252 53.042C47.4534 52.5143 47.094 52.2017 47.084 52.1076C47.084 52.0841 47.1008 51.9832 47.131 51.8118L47.084 51.6101C47.563 50.6503 47.9782 49.6599 48.3267 48.6454L48.9615 47.7109C48.9639 47.6981 48.9632 47.6848 48.9593 47.6723C48.9554 47.6597 48.9486 47.6483 48.9393 47.6391C48.93 47.6298 48.9187 47.6229 48.9061 47.6191C48.8936 47.6152 48.8804 47.6144 48.8675 47.6168H48.6693C47.487 47.46 46.8959 47.3098 46.8959 47.1664C46.5357 46.7411 46.2047 46.2919 45.905 45.8219C45.9113 45.8224 45.9177 45.8215 45.9236 45.8193C45.9295 45.8171 45.9349 45.8137 45.9394 45.8092C45.9439 45.8047 45.9473 45.7993 45.9495 45.7934C45.9517 45.7875 45.9525 45.7811 45.952 45.7748L47.131 45.9294C49.1082 45.8488 50.0968 45.73 50.0968 45.5731C50.696 44.3051 51.391 43.0848 52.1759 41.9227C52.934 40.3567 53.8429 38.8684 54.8899 37.479C55.188 37.0084 55.4486 36.515 55.6691 36.0034C56.0369 35.5903 56.3394 35.1232 56.5659 34.6185C57.2377 33.6258 57.6004 33.1294 57.6542 33.1294C57.8199 32.753 58.2733 32.1826 59.0145 31.4185ZM53.0492 45.6941C53.1601 45.6941 53.4389 45.6773 53.8889 45.6471L54.1375 45.6941C54.265 45.663 54.3958 45.6472 54.5271 45.6471H54.6212C54.6886 45.3683 54.8262 45.1114 55.0209 44.9009C55.091 44.7108 55.1394 44.5135 55.1653 44.3126L55.1149 44.2051C55.219 43.7177 55.3164 43.4723 55.4105 43.4723L55.3635 43.3647C55.7428 42.7437 56.011 42.0612 56.1561 41.3479C56.2472 40.8859 56.4324 40.4477 56.7003 40.0605L56.6532 39.9664C56.7886 39.611 56.9008 39.2472 56.9891 38.8773H56.9421C56.4252 39.614 55.9638 40.3881 55.5616 41.1933C55.5325 41.1933 54.9223 42.2342 53.7311 44.316C53.2765 44.9905 53.0492 45.4499 53.0492 45.6941Z" fill="white"/>
<path d="M83.0066 31.3714H83.1141V31.4185C82.9495 31.9765 82.842 32.2588 82.795 32.2588C82.748 32.2588 82.8151 32.3059 82.8554 32.3059C82.828 32.5558 82.7717 32.8017 82.6875 33.0386C82.721 33.0827 82.7419 33.1349 82.748 33.1899C82.725 33.4014 82.6891 33.6113 82.6405 33.8185C82.959 33.3882 83.1739 32.8901 83.2686 32.363L83.3727 32.3059H83.4197V32.5647H83.5272C83.6078 32.2588 83.6716 32.1042 83.7287 32.1042H83.7858C83.6448 32.8213 83.4724 33.5809 83.2686 34.3832L83.5742 33.8655H83.6347C82.8689 36.7563 81.9318 39.9866 80.8234 43.5563C78.3916 51.7244 77.1757 55.888 77.1757 56.0471L75.8322 60.3126C75.241 62.605 74.511 63.7513 73.6422 63.7513C71.8419 63.3714 70.9383 63.0622 70.9383 62.8168C70.6306 61.4485 70.4919 60.0475 70.5252 58.6454V58.3866C70.524 58.3801 70.5244 58.3735 70.5263 58.3672C70.5283 58.361 70.5317 58.3553 70.5363 58.3506C70.541 58.346 70.5467 58.3426 70.5529 58.3406C70.5592 58.3387 70.5658 58.3383 70.5722 58.3395L70.5252 58.2319V57.7109C70.5247 57.7046 70.5256 57.6983 70.5278 57.6923C70.5299 57.6864 70.5334 57.681 70.5379 57.6765C70.5423 57.6721 70.5477 57.6686 70.5537 57.6664C70.5596 57.6642 70.5659 57.6634 70.5722 57.6639L70.5252 57.5597C70.6216 57.4026 70.6749 57.2229 70.6797 57.0387V55.9395C70.6777 55.8693 70.6939 55.7999 70.7267 55.7378C70.6955 55.6716 70.6794 55.5993 70.6797 55.5261V55.1126C70.6797 54.9076 70.6965 54.6286 70.7267 54.2723L70.6797 54.1681C70.7117 54.1057 70.7278 54.0365 70.7267 53.9664C70.6562 53.4521 70.6193 53.1731 70.6193 53.126V52.4538C70.6242 52.2631 70.6444 52.0731 70.6797 51.8857C70.6808 51.8775 70.68 51.8692 70.6774 51.8613C70.6747 51.8535 70.6703 51.8463 70.6645 51.8405C70.6586 51.8346 70.6515 51.8302 70.6436 51.8276C70.6358 51.8249 70.6275 51.8241 70.6193 51.8252L70.6797 51.5664V51.1462C70.6792 51.1399 70.6801 51.1336 70.6823 51.1276C70.6845 51.1217 70.6879 51.1163 70.6924 51.1118C70.6968 51.1073 70.7022 51.1039 70.7082 51.1017C70.7141 51.0995 70.7204 51.0987 70.7267 51.0992L70.6797 50.9916C70.7502 50.2521 70.7872 49.7849 70.7872 49.5866L70.7267 49.479C70.7808 48.7995 70.8875 48.1252 71.0458 47.4622C71.0378 47.4067 71.0171 47.3538 70.9854 47.3076L71.1399 47.0487C71.1157 47.0002 71.0998 46.9479 71.0929 46.8941L71.2003 46.8336C71.2499 46.9864 71.2659 47.148 71.2474 47.3076H71.3045L71.459 45.3815L71.3515 45.3345C71.2939 45.535 71.259 45.7413 71.2474 45.9496C71.2799 45.9988 71.2995 46.0555 71.3045 46.1143C71.1097 46.1143 71.0022 46.2857 70.9686 46.6353C69.8311 49.9966 68.7921 53.4465 67.8516 56.9849L67.593 57.6571C67.6192 57.7048 67.6353 57.7575 67.64 57.8118C67.575 57.8521 67.3668 58.5613 67.0152 59.9395C66.8264 60.093 66.5862 60.1687 66.3435 60.1513C66.3435 60.0571 66.0076 59.9193 65.3526 59.7378C65.3526 59.6202 65.178 59.5328 64.832 59.479C64.832 59.4387 64.832 59.4185 64.785 59.4185C64.8689 59.1293 64.9207 58.8317 64.9395 58.5311V58.3798L64.832 58.437H64.785V58.3798L65.3056 56.4538C65.2398 56.3382 65.1879 56.2152 65.1511 56.0874L65.1981 55.8857L65.1511 55.7782L65.7792 53.8521C66.0894 52.5273 66.4878 51.2246 66.9716 49.9529C66.968 49.8432 66.9894 49.7342 67.0342 49.634C67.079 49.5338 67.1461 49.4452 67.2302 49.3748L67.1832 49.2672L67.2772 49.1126L67.2302 49.0084C67.2762 48.8593 67.3478 48.7194 67.4418 48.595L67.3847 48.4874C67.5272 47.9627 67.7372 47.4588 68.0095 46.9882C68.1527 46.6336 68.2596 46.2653 68.3285 45.8891C68.314 45.8907 68.2994 45.889 68.2856 45.8841C68.2718 45.8793 68.2593 45.8714 68.249 45.8611C68.2387 45.8508 68.2308 45.8383 68.226 45.8245C68.2211 45.8107 68.2195 45.796 68.2211 45.7815C68.389 45.6403 68.5782 45.1361 68.7887 44.2689L68.7417 43.963C68.8928 43.963 68.9936 43.7008 69.0473 43.1832C69.0236 43.1345 69.0077 43.0823 69.0003 43.0286C69.1347 43.0286 69.5523 41.8308 70.2532 39.4353C70.2131 39.372 70.1921 39.2985 70.1927 39.2235C70.5678 38.5344 70.8502 37.7986 71.0324 37.0353C71.1299 36.6894 71.2686 36.3564 71.4455 36.0437L71.3884 35.9496V35.8891C71.6135 35.5126 71.8587 35.3244 72.1173 35.3244C72.6248 35.3934 73.1168 35.5492 73.5717 35.7849C73.8214 36.0023 74.105 36.1771 74.4114 36.3025L73.9042 45.6336L73.8437 45.7412C73.8437 45.7714 73.8639 45.7882 73.9042 45.7882C73.5885 49.6246 73.4306 52.3854 73.4306 54.0706L73.3836 54.2723C73.3836 54.3126 73.3836 54.3328 73.4306 54.3328C73.4252 54.3858 73.4093 54.4373 73.3836 54.484C73.3433 55.8958 73.3265 56.9546 73.3265 57.6639V57.7109C73.3265 57.758 73.3802 57.8118 73.4911 57.8656C73.6334 57.4756 73.7512 57.077 73.8437 56.6723C73.7833 56.6723 73.7497 56.6353 73.7497 56.5647C73.7561 56.5659 73.7627 56.5655 73.769 56.5636C73.7753 56.5616 73.781 56.5582 73.7856 56.5536C73.7902 56.5489 73.7936 56.5432 73.7956 56.537C73.7975 56.5307 73.7979 56.5241 73.7967 56.5176L73.9042 56.5647H73.9378V56.4605L73.8908 56.1983L73.9949 56.2588L75.2947 51.9798C75.7851 50.3563 76.1445 49.0723 76.383 48.1277C76.4065 48.1277 76.4401 48.0773 76.4871 47.9731L76.4401 47.8689C76.8566 46.6454 77.1522 45.656 77.3268 44.9008L77.74 43.6034V43.5563H77.6325V43.7076H77.5284C77.5881 43.5237 77.6231 43.3326 77.6325 43.1395H77.74V43.1899C77.74 43.2202 77.7198 43.237 77.6795 43.237C77.7243 43.3156 77.7453 43.4055 77.74 43.4958H77.787C77.787 43.377 78.1531 42.1994 78.8853 39.963C78.8853 39.8689 79.3332 38.4123 80.2289 35.5933C80.3867 34.8605 80.5647 34.4941 80.8066 34.4941C80.8066 34.3933 80.9275 34.2017 81.1727 33.926C81.1321 33.863 81.111 33.7893 81.1122 33.7143L81.2667 33.6067L81.2197 33.5126V33.4555C81.3798 33.2846 81.4718 33.061 81.4783 32.8269L81.5858 32.8874H81.6631V32.8269H81.5556C81.6129 32.6792 81.6491 32.5242 81.6631 32.3664H81.7706V32.4134L81.7235 32.6756L81.8176 32.7328C81.9418 32.2756 82.1199 32.0605 82.3483 32.0605V31.9866C82.3489 31.9116 82.3279 31.8381 82.2878 31.7748C82.3348 31.6 82.3886 31.516 82.4423 31.516C82.4733 31.5614 82.4939 31.613 82.5028 31.6672C82.4154 32.2286 82.3281 32.5076 82.2408 32.5076L82.2878 32.6151C82.1388 33.0555 82.0166 33.5045 81.9217 33.9597V34.0202H82.0292C82.2419 33.1093 82.5751 32.231 83.02 31.4084L83.0066 31.3714ZM73.3836 57.9261V58.0773C73.3979 58.0795 73.4125 58.0783 73.4263 58.0739C73.4401 58.0695 73.4527 58.0619 73.4631 58.0519C73.4735 58.0418 73.4814 58.0294 73.4863 58.0158C73.4911 58.0021 73.4928 57.9875 73.4911 57.9731L73.3836 57.9261ZM83.6347 33.4521H83.7287V33.5092C83.7304 33.522 83.7291 33.5349 83.725 33.5471C83.7208 33.5593 83.7139 33.5703 83.7048 33.5794C83.6958 33.5885 83.6847 33.5954 83.6725 33.5996C83.6604 33.6037 83.6474 33.605 83.6347 33.6034V33.4521Z" fill="white"/>
<path d="M84.3199 42.8807C84.8395 42.9886 85.3355 43.1889 85.7843 43.4723C85.7843 43.5126 85.9086 43.6034 86.1605 43.7445C86.1839 43.8201 86.2221 43.8902 86.2728 43.9508C86.3236 44.0114 86.3859 44.0612 86.4561 44.0975C86.3443 44.6847 86.1985 45.265 86.0195 45.8353H85.8784L85.9254 45.6336H85.8314L85.1596 47.6908C84.8855 48.0997 84.6886 48.5554 84.5785 49.0353C84.4845 49.3513 84.4039 49.5092 84.3333 49.5092L84.1889 49.4252C84.0278 49.6731 83.897 49.9394 83.7993 50.2185C83.8329 50.2185 83.8463 50.2185 83.8463 50.2521C83.7388 50.2992 83.6582 50.4739 83.6112 50.7731L83.6582 50.8437C83.6467 50.9736 83.5977 51.0974 83.5172 51.2C83.5221 51.2427 83.5383 51.2833 83.5642 51.3176C83.5642 51.5832 83.4668 51.7176 83.2686 51.7176C82.9327 52.9076 82.6472 53.6034 82.3953 53.7983L82.4423 53.8824C82.3642 54.1327 82.2311 54.3624 82.0527 54.5546H81.999C81.9999 54.4963 81.9835 54.439 81.9519 54.3899C81.9778 54.3556 81.994 54.315 81.999 54.2723H81.9049C81.9049 54.4067 81.7605 54.6084 81.4683 54.8605H81.0787C81.0787 54.9345 80.998 54.9983 80.8435 55.0622H80.7932C80.7327 55.0622 80.6789 54.9445 80.642 54.7092C80.5932 54.7049 80.5456 54.6924 80.5009 54.6723C81.1122 52.4448 81.84 50.1333 82.6842 47.7378C83.1378 46.3301 83.5079 44.8968 83.7926 43.4454C83.7688 43.4099 83.7528 43.3698 83.7456 43.3277C83.7388 43.079 83.9336 42.9378 84.3199 42.8807ZM84.3199 49.1092L84.2225 49.3815C84.2863 49.3815 84.3333 49.3008 84.3669 49.1428V49.1092H84.3199ZM84.4711 48.5882L84.424 48.8739V48.9076H84.4711C84.4823 48.8283 84.498 48.7497 84.5181 48.6723V48.5882H84.4711Z" fill="white"/>
<path d="M92.7472 42.9983H92.8748C93.822 42.9983 94.6293 43.5742 95.2965 44.7261C95.3436 44.9849 95.404 45.116 95.4746 45.116C95.6694 44.2958 95.8104 43.8857 95.8743 43.8857H96.0053C96.2404 43.8857 96.4621 44.1345 96.677 44.6286C96.7315 44.8657 96.8233 45.0926 96.9491 45.3009L97.0801 46.1412C96.9339 47.1811 96.6795 48.2029 96.321 49.1899L96.1463 49.237V49.3681C95.6783 50.4885 95.2966 51.4969 95.001 52.3933C94.954 52.3933 94.9103 52.4807 94.87 52.6555C94.9013 52.7083 94.9176 52.7688 94.917 52.8303C94.9118 52.8917 94.8932 52.9513 94.8624 53.0047C94.8317 53.0582 94.7895 53.1042 94.739 53.1395V53.163H94.823V53.2437C94.5296 53.6157 94.0885 54.5121 93.4996 55.9328C93.3251 56.3186 93.1195 56.6896 92.8849 57.042C92.8849 57.3042 92.6498 57.8319 92.1796 58.6252C91.9982 58.753 91.734 59.2101 91.3869 59.9967C91.1204 60.2399 90.8937 60.5234 90.7151 60.837C90.5673 60.8034 90.4901 60.7597 90.4901 60.7059C90.6815 60.7059 90.8562 60.5277 91.0241 60.1748V60.1378H90.9737C90.8917 60.2006 90.8173 60.2728 90.7521 60.353C90.7526 60.348 90.752 60.3429 90.7503 60.3382C90.7487 60.3335 90.746 60.3292 90.7424 60.3256C90.7389 60.3221 90.7346 60.3194 90.7299 60.3177C90.7251 60.316 90.7201 60.3155 90.7151 60.316C90.5973 60.5384 90.4322 60.7323 90.2315 60.8841V61.0151L90.396 60.8941H90.4431C90.2852 61.153 90.1844 61.2874 90.1374 61.2941L90.0601 61.2303L90.0131 61.3277C90.0702 61.3277 90.0971 61.3614 90.0971 61.4084V61.4555L89.7881 61.8118C89.7881 61.7479 89.7612 61.7177 89.7075 61.7177C89.2811 62.1088 88.893 62.5399 88.5487 63.0051C88.278 63.2813 87.9678 63.5158 87.6284 63.7009H87.5343V63.6202L87.8534 63.3109C87.847 63.3121 87.8403 63.3118 87.8341 63.3098C87.8278 63.3079 87.8221 63.3044 87.8175 63.2998C87.8129 63.2952 87.8094 63.2895 87.8075 63.2832C87.8056 63.277 87.8052 63.2703 87.8064 63.2639C87.3934 63.4939 86.9468 63.6572 86.483 63.7479H86.436L86.483 63.6672H86.305C86.1889 63.7002 86.0712 63.7272 85.9523 63.7479V63.7009L86.0296 63.5832H85.5459C85.4854 63.5832 85.4418 63.5126 85.4182 63.3714C86.1098 63.0005 86.749 62.5393 87.3193 62C88.1639 61.1322 88.9045 60.1689 89.5261 59.1294C90.6547 57.2392 91.6264 55.2594 92.4315 53.2101C92.4315 53.153 92.4785 53.079 92.5726 52.9849V52.9378C91.9915 53.395 91.3835 53.8521 90.7554 54.3093C90.574 54.5681 90.0601 54.8034 89.2204 55.0185H88.7166L88.505 54.9714L88.458 55.0656C88.6058 55.0656 88.6797 55.1227 88.6797 55.1933H88.5856C88.3281 55.1933 87.962 54.8829 87.4873 54.2622C86.6073 53.3782 86.1673 52.4975 86.1673 51.6135V51.4824C86.2143 50.4045 86.7136 48.9591 87.6653 47.1462C89.4343 44.3832 91.1282 43.0006 92.7472 42.9983ZM93.6205 44.9849C93.5802 45.0555 93.2577 45.1563 92.6532 45.2908C92.2957 45.5419 91.9116 45.7527 91.5078 45.9193C90.8547 46.4138 90.3008 47.0274 89.8754 47.7277C89.4518 48.2825 89.0807 48.8756 88.767 49.4992C88.1737 50.5293 87.7432 51.645 87.4906 52.8067C87.5142 52.9244 87.6015 52.9849 87.7526 52.9849C89.4701 52.9849 91.5324 51.3502 93.9396 48.0807H93.9732L94.0706 48.1277C94.1686 48.0156 94.2296 47.8759 94.2452 47.7277C94.215 47.7277 94.1982 47.7109 94.1982 47.6773H94.2452L94.3292 47.7277C94.6988 47.2397 94.9714 46.6851 95.132 46.0941C95.1573 45.9276 95.2308 45.7722 95.3436 45.6471C94.833 45.2067 94.5106 44.9748 94.3762 44.9748C94.3786 44.9877 94.3779 45.001 94.374 45.0135C94.3701 45.026 94.3633 45.0374 94.354 45.0467C94.3447 45.0559 94.3334 45.0628 94.3208 45.0667C94.3083 45.0706 94.2951 45.0713 94.2822 45.0689C94.0664 45.0173 93.8457 44.9891 93.6238 44.9849H93.6205ZM88.8174 62.9109H88.8644C88.7872 63.0588 88.7267 63.1328 88.6864 63.1328H88.6394V63.0857C88.6394 63.0521 88.7166 62.995 88.8174 62.9109ZM90.3188 61.3277H90.3658V61.4084C90.1979 61.6437 90.0971 61.7647 90.0568 61.7647H90.0098V61.7177C90.1743 61.4689 90.2785 61.3412 90.3188 61.3412V61.3277ZM90.8965 59.9563L90.8024 60.084H90.9771V60.037C90.9767 60.0271 90.9743 60.0174 90.9699 60.0085C90.9656 59.9996 90.9594 59.9917 90.9518 59.9854C90.9442 59.9791 90.9353 59.9744 90.9258 59.9717C90.9163 59.969 90.9063 59.9683 90.8965 59.9698V59.9563ZM91.0275 59.684V59.7311L91.0745 59.8151C91.0432 59.868 91.0269 59.9285 91.0275 59.9899H91.1551L91.2021 59.8151L91.0275 59.684ZM91.2861 53.7143H91.3331C91.4705 53.5788 91.6355 53.4744 91.8168 53.4084V53.3244C91.659 53.3378 91.4809 53.4689 91.2861 53.7277V53.7143ZM92.1225 52.9714H92.2199C92.2199 52.9177 92.3811 52.8 92.7035 52.6185C92.7208 52.4698 92.7815 52.3294 92.8782 52.2151H92.8312C92.3609 52.6454 92.1225 52.8975 92.1225 52.9849V52.9714ZM94.4736 47.274V47.3109C94.4736 47.3748 94.4434 47.4051 94.3897 47.4051V47.358C94.3863 47.3177 94.4266 47.2874 94.4636 47.2874L94.4736 47.274Z" fill="white"/>
<path d="M102.622 32.7429L102.8 32.837C102.839 32.8117 102.882 32.7956 102.928 32.7899C102.928 32.837 103.042 32.9244 103.264 33.0487C103.475 33.3089 103.712 33.5466 103.972 33.758C103.972 33.7983 104.076 33.9261 104.281 34.1479V34.279C104.137 34.4605 103.962 35.3647 103.747 36.995L103.16 39.1933C103.16 39.3434 102.706 41.0241 101.799 44.2353V44.3294C102.894 43.4622 103.727 43.0084 104.305 42.9849H104.695C105.59 42.9849 106.554 43.7132 107.586 45.1698C107.745 45.5281 107.833 45.914 107.845 46.3059C107.845 47.4263 107.554 48.9188 106.972 50.7832C106.884 51.2471 106.8 51.479 106.713 51.479V51.4319C107.015 50.4376 107.263 49.4278 107.455 48.4067V48.3731H107.408C106.826 50.5871 106.315 52.3395 105.873 53.6303L105.437 54.8135C105.436 54.8198 105.437 54.8261 105.439 54.832C105.442 54.838 105.445 54.8434 105.449 54.8479C105.454 54.8523 105.459 54.8558 105.465 54.858C105.471 54.8602 105.478 54.861 105.484 54.8605C105.36 55.2737 105.215 55.6799 105.047 56.0773V56.1882H104.953C104.952 56.1058 104.922 56.0264 104.869 55.963C105.087 55.3813 105.249 54.7803 105.353 54.1681H105.212C105.19 54.4018 105.085 54.62 104.916 54.7832L104.953 54.9614L104.433 56.2723H104.338C104.261 56.2723 104.201 56.1244 104.16 55.8353H104.127C104.009 56.0067 103.922 56.0941 103.865 56.0941C103.482 55.9059 103.277 55.758 103.254 55.6572C103.305 55.4288 103.332 55.1955 103.334 54.9614L103.254 54.995H103.207C103.67 53.3233 104.019 52.1849 104.255 51.5798C105.193 48.642 105.662 46.614 105.662 45.4958V44.9614C105.662 44.9076 105.615 44.8807 105.521 44.8807C104.332 45.3154 103.212 46.3664 102.162 48.0336C101.566 49.059 101.053 50.1302 100.627 51.237C100.375 52.1042 100.2 52.5546 100.106 52.5815C100.012 52.6084 100.012 52.5546 100.012 52.4975L100.059 52.4168L99.8343 52.3698H99.6227C99.4047 53.2777 99.1242 54.1695 98.783 55.0387H98.7024C98.8981 54.5107 99.0597 53.9706 99.1861 53.4219V53.3748H99.1289C98.8199 54.4908 98.5311 55.0891 98.2556 55.1698C98.2286 55.1307 98.2113 55.0858 98.2053 55.0387C98.2327 55.0011 98.25 54.9571 98.2556 54.9109L98.1582 54.8605C98.0631 54.9389 97.9454 54.9849 97.8224 54.9916C97.7619 54.9916 97.6578 54.8908 97.5167 54.6857C97.4521 54.7377 97.374 54.7703 97.2917 54.7798C97.2917 54.7395 97.164 54.6521 96.902 54.521C96.902 54.5748 96.8718 54.6017 96.808 54.6017C96.755 54.4976 96.7273 54.3824 96.7274 54.2656C96.7524 54.0141 96.795 53.7648 96.855 53.5193H96.7274C96.7321 53.2853 96.8096 53.0585 96.9491 52.8706C96.9491 52.8941 96.9491 52.9042 96.986 52.9042L96.9491 52.7395L99.1289 44.7126C99.176 44.7126 99.2499 44.4067 99.3506 43.7916C99.4077 43.7042 99.6664 42.7832 100.133 40.9916C100.779 38.9313 101.307 36.8361 101.715 34.716V34.5849H101.796L101.843 34.8437H101.89C102.047 33.4431 102.264 32.7429 102.542 32.7429H102.622ZM99.4212 52.2387L99.3741 52.5445V52.5815H99.4212C99.437 52.4668 99.4651 52.3541 99.5051 52.2454L99.4212 52.2387ZM105.42 53.5496C105.322 53.7085 105.276 53.8943 105.289 54.0807H105.42C105.443 53.8934 105.503 53.7127 105.598 53.5496H105.551L105.467 53.5966C105.465 53.5863 105.459 53.5771 105.45 53.5709C105.441 53.5648 105.431 53.5619 105.42 53.563V53.5496ZM106.092 53.5025V53.6336H105.998V53.5966C106 53.5755 106.01 53.5558 106.025 53.5411C106.04 53.5263 106.06 53.5174 106.082 53.516L106.092 53.5025ZM106.612 51.5765H106.706L106.397 52.6286H106.303V52.5815C106.427 52.2586 106.527 51.9272 106.602 51.5899L106.612 51.5765Z" fill="white"/>
<path d="M113.001 31.4655L113.071 31.5126L113.26 31.4655C113.59 31.4693 113.908 31.5882 114.16 31.8017C114.249 31.8002 114.337 31.8266 114.411 31.8772C114.485 31.9277 114.542 32 114.573 32.084C114.707 32.084 114.909 32.2286 115.174 32.5109C115.174 33.3849 114.784 35.4801 114.005 38.7966L113.827 39.805V39.9227C113.914 39.9227 115.359 39.8107 118.16 39.5866H118.197V39.6336C118.016 39.6894 117.831 39.7288 117.643 39.7513V39.8353L118.916 39.7143L118.986 39.7513C119.139 39.7369 119.289 39.7088 119.436 39.6672C119.481 39.6992 119.536 39.7158 119.591 39.7143C119.639 39.7024 119.686 39.6867 119.732 39.6672L119.816 39.7143L119.886 39.6672L119.957 39.7143C120.399 39.6263 120.85 39.5835 121.301 39.5866C121.301 39.674 121.361 39.7143 121.489 39.7143L121.714 39.6672V39.7177L121.794 39.6706C121.93 39.7698 122.082 39.8428 122.244 39.8857H122.305L122.493 39.8387L122.53 39.9193L122.375 40.0034L122.412 40.0975C122.412 40.1681 122.224 40.2219 121.855 40.2622L121.925 40.3798V40.4269H121.892L121.821 40.3798V40.4639C121.857 40.4659 121.893 40.4753 121.925 40.4915C121.957 40.5077 121.986 40.5303 122.009 40.558H122.345C122.345 40.7227 122.248 40.8067 122.053 40.8067C121.777 40.9009 121.64 40.9681 121.64 41.0084C121.64 41.0387 121.771 41.0555 122.016 41.0555L121.969 41.1361V41.1832C122.15 41.2 122.241 41.2538 122.241 41.3513V41.4319C121.344 41.4958 120.897 41.5933 120.897 41.7277C120.893 41.7704 120.876 41.811 120.85 41.8454L121.039 41.8118H121.418V41.8924C121.049 41.8924 119.75 42.0303 117.522 42.3059V42.2723C115.303 42.5479 113.857 42.6857 113.186 42.6857H113.152C113.058 42.7866 112.881 43.3737 112.621 44.4471C112.422 45.274 112.023 46.5849 111.426 48.3798C110.843 50.4213 110.494 51.442 110.378 51.442V51.358C110.459 50.9981 110.571 50.6461 110.714 50.3059L110.63 50.2723C110.26 51.2179 109.725 52.7384 109.024 54.8336H108.954C108.99 54.4471 109.041 54.2555 109.095 54.2555L109.058 54.1714V54.1244C109.132 53.9991 109.174 53.8568 109.179 53.7109L109.024 53.8286H108.987V53.795L109.471 52.2319V52.1546C109.41 52.1546 109.236 52.6588 108.954 53.6672C108.739 54.1122 108.561 54.5743 108.423 55.0487H108.349V54.921H108.423L108.315 54.6723L108.386 54.6353C108.386 54.6925 108.416 54.7193 108.456 54.7193V54.6353C108.386 54.6353 108.325 54.5782 108.278 54.4572L108.315 54.3765L108.231 54.3395H108.198C108.198 54.474 108.174 54.5412 108.127 54.5412H108.09C108.108 54.4279 108.131 54.3157 108.161 54.2051C108.084 54.242 107.983 54.4672 107.865 54.8773H107.785L107.865 54.2051H107.785C107.785 54.316 107.748 54.3698 107.677 54.3698V54.2857C107.721 54.2101 107.745 54.1245 107.748 54.037V53.9899H107.714L107.523 54.2857H107.489V54.2521C107.489 54.1076 107.513 54.037 107.56 54.037L107.523 53.9563C107.576 53.6821 107.691 53.4236 107.859 53.2L107.825 53.116L107.929 52.9513C107.927 52.824 107.916 52.697 107.895 52.5714C107.996 52.3115 108.272 51.4017 108.722 49.842C108.681 49.842 108.644 49.8051 108.604 49.7244V49.6773C108.604 49.6235 108.628 49.5966 108.675 49.5966C108.675 49.6807 108.702 49.7244 108.755 49.7244C108.808 49.4815 108.883 49.244 108.98 49.0151L108.863 49.0992V49.0521C109.01 48.3244 109.211 47.6087 109.464 46.9109C109.464 46.8639 109.541 46.5748 109.689 46.074C110.262 44.0796 110.55 42.9647 110.552 42.7294C109.064 42.6353 108.288 42.4639 108.225 42.2219C108.17 42.1014 108.135 41.9733 108.121 41.842C108.121 40.9277 108.097 40.2051 108.05 39.6672C108.085 39.6234 108.136 39.5946 108.191 39.5866C109.174 39.8694 110.192 40.0087 111.214 40C111.617 38.5031 112.065 36.2689 112.558 33.2975C112.652 32.1008 112.727 31.5025 112.783 31.5025L113.001 31.4655ZM108.359 53.9664C108.329 54.0771 108.306 54.1893 108.288 54.3025C108.335 54.3025 108.372 54.2051 108.396 54.0067V53.9731L108.359 53.9664ZM108.964 54.084V54.2151H108.87V54.1714C108.886 54.1143 108.917 54.084 108.964 54.084ZM109.555 51.7311C109.525 51.8283 109.5 51.927 109.481 52.0269V52.0605H109.518L109.635 51.7244L109.555 51.7311ZM109.518 46.958C109.543 47.0092 109.556 47.0656 109.555 47.1227H109.588C109.609 47.0089 109.637 46.8966 109.672 46.7866C109.649 46.8034 109.595 46.8605 109.518 46.9714V46.958ZM109.776 51.0219C109.778 51.0786 109.767 51.1351 109.743 51.1866L109.813 51.2235L109.86 51.0219H109.776ZM110.381 51.4824V51.6471H110.31V51.5664C110.317 51.5227 110.341 51.4824 110.381 51.4824ZM111.466 47.4487C111.392 47.9318 111.24 48.3995 111.016 48.8336C110.992 49.0629 110.942 49.2886 110.865 49.5059C110.852 49.62 110.829 49.7326 110.794 49.842H110.865C110.933 49.4965 111.035 49.1587 111.17 48.8336L111.573 47.4891V47.442L111.466 47.4487ZM111.725 46.7059L111.691 46.9042V46.9546H111.725C111.734 46.8684 111.758 46.7844 111.795 46.7059H111.725ZM118.54 39.5328H118.694V39.6269H118.54V39.5328ZM118.953 39.4958H119.06V39.5798H118.946L118.953 39.4958Z" fill="white"/>
<path d="M135.152 31.4655C135.579 31.4655 135.824 31.5765 135.922 31.8017C135.969 31.9434 135.985 32.0936 135.969 32.242H136.029C136.029 32.1311 136.063 32.074 136.133 32.074C136.204 32.074 136.241 32.1177 136.241 32.1815C136.217 32.7328 136.18 33.0084 136.133 33.0084L136.241 33.2807L136.194 33.3882C136.194 33.4252 136.194 33.4454 136.241 33.4454C136.13 34.1378 136.039 34.4874 135.969 34.4874L136.029 34.5916L135.693 35.7513L135.801 35.7983C135.816 35.6846 135.856 35.5756 135.918 35.479V35.3143C136.005 35.0219 136.096 34.8773 136.19 34.8773H136.237V35.1462C136.062 35.4148 135.933 35.7116 135.858 36.0235C135.898 36.2824 135.918 36.4269 135.918 36.4605C135.694 37.3569 135.289 38.7473 134.702 40.6319C134.402 41.7188 134.201 42.2656 134.098 42.2723L134.158 42.3798C133.83 43.6627 133.427 44.9254 132.952 46.1614C132.258 48.3273 131.434 50.4499 130.487 52.5177C130.22 53.208 129.911 53.8814 129.563 54.5345C128.757 56.3169 127.822 58.038 126.765 59.684L126.057 60.9513H126.164V61.0555C125.759 61.7895 125.241 62.4552 124.629 63.0286C124.184 63.4495 123.599 63.6892 122.987 63.7009C122.342 63.7009 121.373 63.2997 120.081 62.4975C119.641 62.0086 119.358 61.3984 119.268 60.7462L119.315 60.4639C119.245 59.9899 119.208 59.7009 119.208 59.5899H119.282C119.282 59.5563 119.262 59.5429 119.221 59.5429C119.309 58.5345 119.383 57.8622 119.446 57.5261L119.389 57.4185C119.43 57.1361 119.501 56.8589 119.601 56.5916C119.568 56.526 119.552 56.4532 119.554 56.3799L119.719 56.1546V55.8185L119.658 55.4824C119.698 55.3714 119.735 55.3177 119.766 55.3177C119.766 55.3114 119.765 55.305 119.763 55.2991C119.761 55.2931 119.757 55.2877 119.753 55.2833C119.748 55.2788 119.743 55.2753 119.737 55.2732C119.731 55.271 119.725 55.2701 119.719 55.2706C120.263 52.3955 120.59 50.9143 120.699 50.8269C120.809 50.7395 120.939 50.1916 121.089 49.1832C121.411 48.0023 121.868 46.5457 122.459 44.8135C122.525 44.2137 122.672 43.6256 122.896 43.0656C122.99 43.0656 123.226 42.4986 123.605 41.3647C123.712 40.8896 124.279 39.2818 125.304 36.5412C125.739 34.8941 126.066 34.0706 126.285 34.0706C126.352 34.0317 126.429 34.0119 126.507 34.0135C126.878 34.0135 127.481 34.3989 128.314 35.1698V35.442C128.495 35.442 128.586 35.479 128.586 35.5496L126.712 41.0622L125.234 45.6101C124.503 47.6503 123.9 49.7338 123.427 51.8488C123.093 52.9315 122.822 54.0324 122.614 55.1462C122.359 56.0929 122.208 57.0644 122.164 58.0437C122.005 58.5755 121.934 59.1294 121.952 59.684L122.009 60.1815L121.952 60.4538L122.009 60.7362C122.009 60.7664 121.992 60.7832 121.952 60.7832L122.009 61.0555V61.3916H122.117C122.204 61.3916 122.604 60.9177 123.323 59.9731C125.362 56.7911 126.693 54.4157 127.313 52.8471C127.635 52.3249 128.403 50.5322 129.617 47.4689C130.087 46.2185 131 43.442 132.354 39.1395C132.504 38.486 132.705 37.8453 132.956 37.2235L132.899 37.116C133.247 36.1841 133.543 35.2336 133.785 34.2689C134.038 33.3233 134.294 32.772 134.551 32.6151V32.5681L134.494 32.2958C134.618 32.2958 134.83 32.0202 135.095 31.4689L135.152 31.4655ZM135.639 35.9093V36.074C135.7 36.074 135.777 36 135.861 35.8487H135.804C135.755 35.8815 135.698 35.9022 135.639 35.9093Z" fill="white"/>
<path d="M136.345 41.6874C136.434 41.7319 136.531 41.7604 136.63 41.7714C136.666 41.7498 136.706 41.7371 136.748 41.7345C136.969 41.8735 137.182 42.0273 137.383 42.195C137.477 42.1863 137.571 42.2081 137.652 42.2571C137.733 42.3061 137.796 42.3797 137.833 42.4672C138.021 42.4672 138.249 42.6185 138.504 42.9277V43.2C138.505 43.7713 138.414 44.3389 138.232 44.8807C138.169 45.2168 138.111 45.3748 138.054 45.3748C138.029 45.3364 138.013 45.2927 138.007 45.2471H137.96C137.925 45.4271 137.848 45.5964 137.735 45.7412V45.8387C137.769 45.8387 137.873 45.7008 138.071 45.4219L138.155 45.4723H138.202C138.202 45.4073 138.643 44.9972 139.526 44.242C140.775 43.3927 141.671 42.9669 142.213 42.9647H142.26C142.873 43.0454 143.57 43.4118 144.349 44.0639C144.443 44.0639 144.594 44.2151 144.799 44.5143C144.974 44.7053 145.099 44.936 145.165 45.1866H145.071C145.014 44.9714 144.957 44.8504 144.893 44.8504V44.9445C144.951 45.0236 144.984 45.1186 144.987 45.2168V45.442C144.987 45.4483 144.987 45.4547 144.984 45.4606C144.982 45.4666 144.979 45.4719 144.974 45.4764C144.97 45.4809 144.964 45.4843 144.959 45.4865C144.953 45.4887 144.946 45.4896 144.94 45.4891C144.965 45.5275 144.981 45.5712 144.987 45.6168C144.985 45.7597 144.953 45.9007 144.893 46.0303L144.94 46.1244C144.876 46.521 144.812 46.716 144.752 46.716L144.668 46.6689C144.668 46.7328 144.651 46.763 144.621 46.763L144.668 46.8471C144.637 47.0286 144.589 47.1193 144.527 47.1193V46.8941L144.574 46.8L144.473 46.7765C144.416 46.7765 144.312 47.1395 144.154 47.8656C144.018 47.9997 143.898 48.1498 143.798 48.3126C143.798 48.4157 143.538 49.2191 143.019 50.7227C142.878 51.2448 142.682 51.8398 142.431 52.5076C142.093 53.8723 141.805 54.5546 141.568 54.5546H141.474C141.474 54.4908 141.447 54.4571 141.39 54.4571C141.363 54.5011 141.347 54.5505 141.343 54.6017L141.118 54.5546L140.929 54.6017C140.567 54.5445 140.385 54.3933 140.385 54.1412H140.338C140.278 54.1412 140.244 54.1882 140.244 54.2824H140.164V54.1882C140.164 54.0314 140.947 51.3916 142.515 46.2689C142.515 46.158 142.559 45.795 142.642 45.1832H142.515L142.642 45.005C142.642 44.9412 142.616 44.9109 142.562 44.9109C142.024 45.25 141.527 45.6505 141.081 46.1042H141.114L142.011 45.4689H142.061V45.516C141.488 45.94 140.947 46.4063 140.442 46.9109C140.154 47.2034 139.636 47.8084 138.897 48.7294V48.6824C139.303 48.0463 139.752 47.4387 140.241 46.8639V46.8168H140.207C140.027 47.0696 139.812 47.2959 139.569 47.4891C139.413 47.708 139.23 47.9067 139.025 48.0807C137.808 49.83 136.786 51.708 135.979 53.6807V53.7143C136.066 53.7143 136.247 53.4017 136.523 52.7698L137.063 51.7177H137.161V51.7647L135.707 54.8605L135.387 55.0387L135.293 54.9916C135.173 55.0189 135.051 55.0346 134.927 55.0387C134.442 54.7605 133.922 54.5459 133.382 54.4C133.382 54.3462 133.214 54.2857 132.885 54.2252V54.1782C132.885 53.8286 133.522 51.4331 134.796 46.9916C135.522 44.7507 135.885 43.2818 135.885 42.5849L135.838 42.3462C135.889 42.138 135.921 41.9252 135.932 41.7109H136.157C136.22 41.719 136.285 41.7109 136.345 41.6874ZM137.396 51.237V51.3647H137.302V51.3177C137.303 51.3062 137.306 51.295 137.311 51.2847C137.316 51.2744 137.323 51.2652 137.332 51.2577C137.341 51.2502 137.351 51.2446 137.362 51.241C137.373 51.2374 137.385 51.2361 137.396 51.237ZM137.94 50.279V50.3261C137.819 50.5312 137.712 50.7446 137.621 50.9647H137.54V50.9177C137.622 50.6762 137.759 50.4574 137.94 50.279ZM138.578 49.1899H138.625V49.2269C138.439 49.6 138.213 49.9526 137.954 50.279V50.1378C138.107 49.7887 138.318 49.4681 138.578 49.1899ZM142.535 45.1866C142.535 45.2336 142.428 45.3076 142.199 45.4084H142.152C142.186 45.3366 142.24 45.2769 142.309 45.2372C142.377 45.1975 142.456 45.1798 142.535 45.1866ZM143.667 49.0958H143.761V49.2269H143.667V49.0958ZM143.808 48.6353H143.892V48.7294C143.892 48.7933 143.865 48.8235 143.808 48.8235V48.6353Z" fill="white"/>
<path d="M156.504 34.1849H156.585V34.3395H156.679C157.075 34.3395 157.411 34.6218 157.687 35.1899V35.237C157.688 35.2484 157.687 35.2601 157.684 35.271C157.68 35.282 157.674 35.292 157.666 35.3002C157.658 35.3083 157.648 35.3145 157.637 35.3181C157.626 35.3217 157.614 35.3227 157.603 35.321C157.564 35.2936 157.519 35.2774 157.472 35.2739V35.3479C157.506 35.3959 157.524 35.4537 157.522 35.5126V35.684C157.522 35.7076 157.522 35.7176 157.472 35.7176C157.499 35.7564 157.517 35.8015 157.522 35.8487C157.465 36.1849 157.394 36.3563 157.307 36.3563V36.4034L157.391 36.5345C157.391 36.5972 157.261 37.1485 157.001 38.1882H156.918V38.1042H156.901L156.854 38.3193L156.934 38.2723H156.981V38.3193L156.723 38.9916C156.275 40.6387 155.992 41.7726 155.873 42.3933H155.789C155.834 42.4429 155.863 42.505 155.873 42.5714C155.828 42.8494 155.744 43.1198 155.624 43.3748H155.557L155.604 43.6706V43.7176L155.346 44.9109H155.262V44.9479L155.346 45.079C155.288 45.079 155.262 45.1126 155.262 45.1597C155.345 45.2727 155.391 45.4091 155.393 45.5496C155.201 46.0593 155.058 46.586 154.966 47.1227H154.919C154.92 47.1162 154.92 47.1096 154.918 47.1033C154.916 47.0971 154.913 47.0914 154.908 47.0868C154.903 47.0821 154.898 47.0787 154.891 47.0767C154.885 47.0748 154.878 47.0744 154.872 47.0756C154.872 47.1126 154.832 47.1563 154.754 47.2034C154.754 47.237 154.754 47.2504 154.788 47.2504C154.748 47.6721 154.65 48.0861 154.496 48.4807C154.5 48.5277 154.516 48.5728 154.543 48.6118C154.526 48.7409 154.494 48.8674 154.445 48.9882L154.496 49.0723C154.385 49.5059 154.328 49.7445 154.328 49.7916L154.365 49.8857C154.322 49.9793 154.293 50.0791 154.281 50.1815C154.281 50.205 154.281 50.2185 154.328 50.2185L154.022 52.2622L154.069 52.3462C153.998 52.6398 153.97 52.9421 153.985 53.2437C153.908 53.4151 153.848 53.5025 153.811 53.5025C153.79 53.4616 153.777 53.4171 153.774 53.3714L153.811 53.079C153.754 53.079 153.727 53.0454 153.727 52.9815C153.738 52.9831 153.749 52.9821 153.76 52.9787C153.77 52.9753 153.78 52.9694 153.788 52.9617C153.796 52.9539 153.803 52.9444 153.806 52.9338C153.81 52.9233 153.812 52.912 153.811 52.9008V52.8639H153.562C153.522 53.0035 153.494 53.1463 153.478 53.2908V53.4084L153.596 53.3244C153.659 53.3244 153.69 53.3681 153.69 53.4555C153.584 53.5593 153.511 53.6911 153.478 53.8353H153.562C153.562 53.7546 153.589 53.7143 153.643 53.7143L153.69 53.7983C153.643 53.7983 153.599 53.842 153.562 53.9294C153.673 53.9697 153.727 54.0067 153.727 54.0471V54.1412H153.643C153.589 54.1412 153.562 54.0975 153.562 54.0101H153.542C153.538 54.0558 153.526 54.1003 153.505 54.1412L153.623 54.3899L153.589 54.5681C153.635 54.8265 153.705 55.0798 153.801 55.3244H153.754L153.542 55.3714C153.062 55.274 152.82 55.163 152.82 55.0353C152.556 55.0353 152.358 54.4403 152.229 53.2504V53.163H152.266L152.182 52.6555L152.229 52.3966V52.0168L152.266 51.9227L152.182 51.8891C151.849 52.2806 151.539 52.6902 151.251 53.116C150.986 53.4704 150.672 53.785 150.317 54.0504C150.294 54.1513 149.982 54.3866 149.421 54.7832C149.474 54.7832 149.501 54.8101 149.501 54.8639C149.305 54.9746 149.09 55.0476 148.866 55.079C148.253 55.079 147.347 54.5546 146.149 53.5059C145.888 53.1615 145.739 52.7448 145.723 52.3126C145.722 52.3063 145.723 52.3 145.725 52.294C145.727 52.2881 145.731 52.2827 145.735 52.2782C145.74 52.2737 145.745 52.2703 145.751 52.2681C145.757 52.2659 145.763 52.265 145.77 52.2656L145.723 52.0538V51.7177C145.742 50.439 146.032 49.179 146.572 48.0202C146.67 47.7378 146.767 47.5966 146.868 47.5966L146.834 47.5126C147.207 46.7203 147.634 45.9544 148.111 45.2202C148.57 44.4937 149.157 43.857 149.844 43.3412H149.81L149.679 43.4353H149.595V43.3882C149.595 43.2538 150.005 43.1126 150.825 42.9647C151.334 43.0129 151.826 43.1737 152.266 43.4353C152.642 43.6758 152.987 43.9614 153.293 44.2857L153.458 43.9798V43.7311C153.457 43.6421 153.476 43.554 153.513 43.4728C153.549 43.3916 153.603 43.3192 153.67 43.2605C153.658 43.2616 153.647 43.2602 153.637 43.2563C153.626 43.2525 153.617 43.2462 153.609 43.2381C153.601 43.23 153.595 43.2203 153.592 43.2096C153.588 43.1989 153.587 43.1876 153.589 43.1765C153.627 43.1512 153.671 43.1351 153.717 43.1294V43.079C153.633 43.079 153.589 43.0521 153.589 42.9983V42.9513C153.633 42.8722 153.689 42.7998 153.754 42.7361L153.717 42.4773C153.821 42.3899 153.945 41.926 154.096 41.0824H154.18V40.9882H154.096V40.9042C154.096 40.8336 154.15 40.7933 154.261 40.7765C154.216 40.7324 154.187 40.6743 154.18 40.6118C154.321 40.1849 154.489 39.6034 154.687 38.8605C154.748 38.8605 154.781 38.8336 154.781 38.7798L154.734 38.6958C154.905 38.3432 155.032 37.9705 155.11 37.5866C155.339 37.358 155.446 37.1866 155.446 37.0756C155.606 36.7659 155.737 36.4418 155.836 36.1076C155.893 36.1076 155.92 36.0773 155.92 36.0134L155.873 35.9294C155.967 35.6773 156.054 35.5529 156.132 35.5529V35.5059L156.051 35.3748C156.111 34.9513 156.212 34.7361 156.343 34.7361L156.296 34.6555L156.504 34.1849ZM150.764 45.5395L150.68 45.4924C150.673 45.5948 150.639 45.6933 150.579 45.777C150.52 45.8606 150.439 45.9262 150.344 45.9664C149.948 46.4431 149.593 46.9525 149.283 47.4891C148.963 48.0297 148.679 48.5912 148.433 49.1697C148.396 49.1881 148.357 49.1994 148.316 49.2034L148.349 49.2874V49.4185C148.272 49.4185 148.074 50.0403 147.761 51.284C147.721 51.7322 147.677 51.9563 147.63 51.9563L147.677 52.0403C147.668 52.1856 147.637 52.3285 147.583 52.4639C147.583 53.0084 147.671 53.2807 147.842 53.2807C148.835 52.5625 149.683 51.664 150.344 50.6319C150.886 49.8413 151.382 49.021 151.832 48.1748H151.916V48.2588L151.752 48.595C151.782 48.595 151.799 48.595 151.799 48.6286C151.877 48.6286 152.188 48.121 152.732 47.1059C152.962 46.4603 153.117 45.7903 153.193 45.1092C152.953 44.9522 152.676 44.8617 152.39 44.8471C151.784 44.8803 151.208 45.1254 150.764 45.5395ZM151.876 51.5899V51.6235C151.887 51.6253 151.898 51.6244 151.909 51.6209C151.919 51.6175 151.929 51.6116 151.937 51.6037C151.945 51.5958 151.95 51.5862 151.954 51.5757C151.957 51.5651 151.958 51.5538 151.957 51.5429V51.4824C151.931 51.4832 151.907 51.4939 151.89 51.5121C151.872 51.5303 151.862 51.5546 151.862 51.5798L151.876 51.5899ZM153.656 52.3933L153.703 52.605H153.609V52.6521C153.609 52.6924 153.653 52.7294 153.74 52.7698H153.787L153.824 52.521H153.74L153.824 52.3933V52.3462C153.773 52.3742 153.714 52.387 153.656 52.3832V52.3933ZM155.524 38.1042L155.487 38.1882C155.487 38.242 155.524 38.2723 155.571 38.2723L155.618 38.1882C155.618 38.1244 155.587 38.0941 155.524 38.0941V38.1042ZM155.782 41.758V41.805C155.782 41.8588 155.819 41.8857 155.866 41.8857H155.913V41.8387C155.913 41.7849 155.886 41.758 155.829 41.758H155.782ZM155.947 35.9765C155.964 36.0336 155.994 36.0605 156.044 36.0605H156.078V35.9765H155.947ZM156.125 36.5345C156.118 36.5765 156.102 36.6166 156.078 36.6521H156.162V36.5345H156.125ZM156.256 36.3563C156.256 36.4101 156.289 36.4403 156.336 36.4403H156.42V36.3563H156.256ZM156.289 35.5059H156.42C156.42 35.4588 156.377 35.4118 156.289 35.3647V35.5059Z" fill="white"/>
<path d="M161.747 42.9882H161.969L163.235 43.2471C164.595 43.9193 165.275 44.4863 165.278 44.9479C165.278 45.9092 164.83 46.9255 163.934 47.9966C163.115 48.7765 162.315 49.1664 161.536 49.1664H161.408C160.568 49.1293 159.747 48.8993 159.01 48.4941H158.845C158.055 50.2868 157.661 51.7087 157.663 52.7597V52.8269C157.664 53.1352 157.708 53.4418 157.794 53.7378C158.018 53.7378 158.628 53.4073 159.625 52.7462L160.498 52.2622C160.639 52.3092 160.71 52.3832 160.71 52.484H160.757L160.888 52.3899C160.911 52.3916 160.933 52.4024 160.949 52.42C160.964 52.4375 160.972 52.4605 160.972 52.484V52.6151C160.955 52.7451 160.892 52.8647 160.794 52.9513V52.9983L161.019 52.9513H161.099C161.163 52.9513 161.193 52.9849 161.193 53.0353C161.087 53.1335 160.995 53.2467 160.921 53.3714C160.949 53.4099 160.967 53.4551 160.972 53.5025C160.874 53.5025 160.599 53.8387 160.142 54.5109C159.787 54.7528 159.391 54.9282 158.973 55.0286C158.244 54.9353 157.528 54.7617 156.837 54.5109C156.027 54.4471 155.621 54.1983 155.621 53.7647C155.302 53.3047 155.148 52.7503 155.184 52.1916C155.21 52.1532 155.226 52.1095 155.231 52.0639L155.184 51.9798C155.205 51.7805 155.297 51.5954 155.443 51.4588V51.0689L155.527 50.9412L155.49 50.8471C155.51 50.8058 155.522 50.7615 155.527 50.716C155.515 50.7177 155.504 50.7167 155.493 50.7131C155.482 50.7094 155.472 50.7033 155.464 50.6951C155.456 50.6869 155.449 50.677 155.446 50.666C155.442 50.655 155.441 50.6434 155.443 50.6319C155.477 50.6319 155.49 50.6319 155.49 50.5849C155.43 50.5849 155.396 50.558 155.396 50.5042V50.3731C155.51 49.7276 155.737 49.1073 156.068 48.5412H156.105C155.925 48.8965 155.811 49.2814 155.769 49.6773H155.849V49.5462C155.918 49.2223 156.039 48.9114 156.205 48.6252L156.158 48.5412V48.4605C156.252 48.4605 156.424 48.1076 156.676 47.4084C156.716 47.4084 156.79 47.3042 156.901 47.0992V47.0655C156.753 47.1674 156.645 47.3169 156.595 47.4891L156.511 47.5361V47.4891C156.641 47.1706 156.829 46.8788 157.065 46.6286V46.7765H157.159C157.362 46.4122 157.608 46.0736 157.892 45.7681C157.942 45.7681 158.016 45.684 158.117 45.5092L159.722 43.9866H159.588C159.588 43.9059 159.732 43.8487 160.024 43.8084C160.73 43.2616 161.304 42.9882 161.747 42.9882ZM155.262 51.2605H155.359V51.4353H155.262V51.2605ZM155.312 51.6975V52.0034H155.393V51.6975H155.312ZM155.312 52.0504V52.2656H155.393L155.359 52.0504H155.312ZM155.312 52.3866V52.6118H155.359V52.3866H155.312ZM155.524 50.4269C155.519 50.4714 155.507 50.5147 155.487 50.5546H155.557V50.4269H155.524ZM155.618 49.9529C155.555 50.0901 155.523 50.2392 155.524 50.3899C155.571 50.3899 155.628 50.2555 155.702 49.9899L155.618 49.9529ZM155.665 49.8588V49.9059H155.702L155.749 49.7277C155.691 49.7345 155.665 49.7782 155.665 49.8655V49.8588ZM159.396 44.0874H159.443V44.1815C159.396 44.1815 159.326 44.2252 159.232 44.3126H159.185V44.2655C159.185 44.2118 159.252 44.1546 159.396 44.0874ZM159.185 47.963L159.265 48.0101L159.359 47.963L159.443 48.0101C159.45 48.0113 159.456 48.0109 159.463 48.009C159.469 48.007 159.475 48.0036 159.479 47.999C159.484 47.9943 159.487 47.9886 159.489 47.9824C159.491 47.9761 159.492 47.9695 159.49 47.963C159.606 47.9806 159.718 48.0122 159.826 48.0571C160.305 48.0571 160.959 47.5933 161.788 46.6655C162.339 45.8992 162.614 45.2202 162.614 44.6185H162.577C161.878 44.9916 161.244 45.4752 160.7 46.0504L159.957 46.8773C159.646 47.193 159.386 47.5546 159.185 47.9496V47.963Z" fill="white"/>
<path d="M173.107 42.9042L173.225 42.9748C173.403 42.9663 173.581 42.9427 173.755 42.9042C173.802 42.9042 173.903 43.0319 174.061 43.284L173.99 43.4017V43.4353C174.242 43.4689 174.37 43.5193 174.37 43.5899C174.33 43.5899 174.256 43.6672 174.145 43.8252V43.8958H174.333V43.9798C174.135 44.2362 173.87 44.4328 173.567 44.5479C173.567 44.6824 173.134 44.9244 172.267 45.2807C171.479 45.7011 170.735 46.1999 170.047 46.7697C169.177 47.4604 168.413 48.2759 167.78 49.1899C167.01 50.4212 166.488 51.7915 166.245 53.2235C166.15 53.5013 166.075 53.7855 166.02 54.074C166.02 54.0975 166.02 54.1076 166.057 54.1076C165.986 54.6689 165.859 54.9479 165.677 54.9479C165.677 54.995 165.6 55.0353 165.442 55.0656L165.137 54.9143C165.089 54.939 165.036 54.9506 164.982 54.9479C164.605 54.7543 164.209 54.6 163.8 54.4874L163.528 54.2286L163.457 54.2622H163.41C163.363 54.2622 163.34 54.2353 163.34 54.1815C163.713 52.4315 164.263 50.7241 164.982 49.0857C165.358 48.4639 165.681 47.9697 165.949 47.5966C166.592 46.7849 167.338 46.0616 168.17 45.4454C169.344 44.5416 170.645 43.8177 172.032 43.2975C172.369 43.1146 172.732 42.9821 173.107 42.9042Z" fill="white"/>
<path d="M182.67 31.4655L182.74 31.5126L182.932 31.4655C183.26 31.4701 183.577 31.5889 183.828 31.8017C183.918 31.8002 184.006 31.8266 184.08 31.8772C184.154 31.9277 184.21 32 184.242 32.084C184.376 32.084 184.577 32.2286 184.843 32.5109C184.843 33.3849 184.453 35.4801 183.674 38.7966L183.496 39.805V39.9227C183.583 39.9227 185.029 39.8107 187.832 39.5866H187.866V39.6336C187.685 39.6894 187.499 39.7288 187.311 39.7513V39.8353L188.588 39.7143L188.658 39.7513C188.81 39.737 188.959 39.7089 189.105 39.6672C189.15 39.6988 189.204 39.7153 189.26 39.7143C189.308 39.7024 189.355 39.6867 189.401 39.6672L189.485 39.7143L189.555 39.6672L189.626 39.7143C190.068 39.6263 190.518 39.5835 190.969 39.5866C190.969 39.674 191.03 39.7143 191.157 39.7143L191.382 39.6672V39.7177L191.463 39.6706C191.598 39.7698 191.751 39.8428 191.913 39.8857H191.984L192.172 39.8387L192.209 39.9193L192.054 40.0034L192.091 40.0975C192.091 40.1681 191.906 40.2219 191.533 40.2622L191.607 40.3798V40.4269H191.57L191.497 40.3899V40.474C191.533 40.476 191.568 40.4854 191.6 40.5016C191.633 40.5178 191.661 40.5404 191.685 40.5681H192.021C192.021 40.7328 191.92 40.8168 191.725 40.8168C191.45 40.9109 191.312 40.9782 191.312 41.0185C191.312 41.0487 191.446 41.0656 191.688 41.0656L191.641 41.1462V41.1933C191.822 41.2101 191.913 41.2639 191.913 41.3614V41.442C191.016 41.5059 190.57 41.6034 190.57 41.7378C190.566 41.7809 190.55 41.822 190.522 41.8555L190.711 41.8219H191.09V41.9025C190.721 41.9025 189.422 42.0403 187.194 42.316V42.2824C184.975 42.558 183.531 42.6958 182.861 42.6958H182.824C182.73 42.7966 182.553 43.3838 182.293 44.4572C182.094 45.284 181.697 46.595 181.101 48.3899C180.517 50.4314 180.166 51.4521 180.05 51.4521V51.3681C180.131 51.0082 180.243 50.6562 180.386 50.316L180.302 50.2824C179.928 51.2258 179.395 52.7462 178.703 54.8437H178.632C178.673 54.4572 178.72 54.2656 178.773 54.2656L178.733 54.1714V54.1244C178.805 53.998 178.845 53.8562 178.851 53.7109L178.696 53.8286H178.659V53.795L179.146 52.2319V52.1546C179.081 52.1546 178.908 52.6588 178.626 53.6672C178.411 54.1122 178.233 54.5743 178.095 55.0487H178.024V54.921H178.095L177.987 54.6723L178.058 54.6353C178.058 54.6925 178.091 54.7193 178.128 54.7193V54.6353C178.058 54.6353 178.001 54.5782 177.954 54.4572L177.987 54.3765L177.903 54.3395H177.87C177.87 54.474 177.846 54.5412 177.799 54.5412H177.762C177.78 54.4279 177.803 54.3157 177.833 54.2051C177.756 54.242 177.658 54.4672 177.537 54.8773H177.457L177.537 54.2051H177.457C177.457 54.316 177.42 54.3698 177.349 54.3698V54.2857C177.393 54.2101 177.417 54.1245 177.42 54.037V53.9899H177.39L177.201 54.2857H177.164V54.2521C177.164 54.1076 177.188 54.037 177.235 54.037L177.201 53.9563C177.256 53.6824 177.371 53.4241 177.537 53.2L177.504 53.116L177.611 52.9513C177.608 52.8239 177.596 52.697 177.574 52.5714C177.677 52.3115 177.953 51.4017 178.401 49.842C178.36 49.842 178.323 49.8051 178.283 49.7244V49.6773C178.283 49.6235 178.306 49.5966 178.353 49.5966C178.353 49.6807 178.38 49.7244 178.437 49.7244C178.488 49.4813 178.562 49.2438 178.659 49.0151L178.542 49.0992V49.0521C178.69 48.3243 178.892 47.6086 179.146 46.9109C179.206 46.6284 179.28 46.349 179.368 46.074C179.943 44.0796 180.231 42.9647 180.231 42.7294C178.743 42.6353 177.967 42.4639 177.903 42.2219C177.849 42.1014 177.814 41.9733 177.799 41.842C177.799 40.9277 177.776 40.2051 177.729 39.6672C177.764 39.6234 177.814 39.5946 177.87 39.5866C178.852 39.8692 179.87 40.0084 180.893 40C181.296 38.5031 181.744 36.2689 182.236 33.2975C182.33 32.1008 182.408 31.5025 182.461 31.5025L182.67 31.4655ZM178.031 53.9664C178.001 54.0771 177.978 54.1893 177.961 54.3025C178.008 54.3025 178.041 54.2051 178.065 54.0067V53.9731L178.031 53.9664ZM178.632 54.084V54.2151H178.548V54.1714C178.558 54.1143 178.585 54.084 178.632 54.084ZM179.223 51.7311C179.176 51.9126 179.153 52.0101 179.153 52.0269V52.0605H179.186L179.304 51.7244L179.223 51.7311ZM179.186 46.958C179.212 47.0092 179.224 47.0656 179.223 47.1227H179.257C179.278 47.0089 179.306 46.8966 179.341 46.7866C179.317 46.8034 179.267 46.8605 179.186 46.9714V46.958ZM179.445 51.0219C179.447 51.0786 179.436 51.1351 179.412 51.1866L179.482 51.2235L179.529 51.0219H179.445ZM180.05 51.4824V51.6471H179.979V51.5664C179.986 51.5227 180.009 51.4824 180.05 51.4824ZM181.135 47.4487C181.06 47.9312 180.909 48.3987 180.688 48.8336C180.663 49.0629 180.611 49.2885 180.533 49.5059C180.521 49.62 180.497 49.7326 180.463 49.842H180.533C180.601 49.4965 180.704 49.1587 180.839 48.8336L181.242 47.4891V47.442L181.135 47.4487ZM181.397 46.7059L181.36 46.9042V46.9546H181.397C181.406 46.8684 181.43 46.7844 181.467 46.7059H181.397ZM188.208 39.5328H188.363V39.6269H188.208V39.5328ZM188.621 39.4958H188.729V39.5798H188.621V39.4958Z" fill="white"/>
<path d="M187.936 32.7429L188.114 32.837C188.154 32.8111 188.198 32.7949 188.245 32.7899C188.245 32.837 188.359 32.9244 188.581 33.0487C188.791 33.31 189.029 33.5478 189.29 33.758C189.29 33.7983 189.391 33.9261 189.596 34.1479V34.279C189.454 34.4605 189.278 35.3658 189.065 36.995L188.474 39.1933C188.474 39.3434 188.026 41.0241 187.13 44.2353V44.3294C188.222 43.4622 189.058 43.0084 189.632 42.9849H190.022C190.918 42.9849 191.882 43.7132 192.914 45.1698C193.075 45.5275 193.164 45.9136 193.176 46.3059C193.176 47.4263 192.884 48.9188 192.299 50.7832C192.215 51.2471 192.128 51.479 192.041 51.479V51.4319C192.344 50.4379 192.593 49.428 192.786 48.4067V48.3731H192.739C192.135 50.5759 191.609 52.3216 191.161 53.6101L190.721 54.7933C190.721 54.8235 190.721 54.8403 190.771 54.8403C190.645 55.2533 190.499 55.6594 190.331 56.0571V56.1882H190.237C190.235 56.1064 190.207 56.0273 190.156 55.963C190.374 55.3813 190.536 54.7803 190.64 54.1681H190.499C190.475 54.4013 190.37 54.6188 190.203 54.7832L190.237 54.9614L189.72 56.2723H189.622C189.545 56.2723 189.485 56.1244 189.448 55.8353H189.411C189.293 56.0067 189.206 56.0941 189.152 56.0941C188.766 55.9059 188.561 55.758 188.537 55.6572C188.59 55.4289 188.618 55.1956 188.621 54.9614L188.537 54.995H188.49C188.954 53.3233 189.304 52.1849 189.542 51.5798C190.478 48.642 190.946 46.614 190.946 45.4958V44.9614C190.946 44.9076 190.899 44.8807 190.805 44.8807C189.616 45.3154 188.496 46.3664 187.446 48.0336C186.852 49.0597 186.338 50.1308 185.911 51.237C185.659 52.1042 185.484 52.5546 185.39 52.5815C185.296 52.6084 185.296 52.5546 185.296 52.4975L185.343 52.4168L185.122 52.3698H184.907C184.691 53.2779 184.411 54.1698 184.07 55.0387H183.986C184.182 54.5107 184.344 53.9706 184.47 53.4219V53.3748H184.443C184.136 54.4952 183.845 55.0936 183.57 55.1698C183.545 55.1298 183.529 55.0852 183.523 55.0387C183.548 55.0003 183.564 54.9566 183.57 54.9109L183.476 54.8605C183.381 54.9389 183.263 54.9849 183.14 54.9916C183.076 54.9916 182.975 54.8908 182.831 54.6857C182.767 54.7371 182.69 54.7697 182.609 54.7798C182.609 54.7395 182.478 54.6521 182.22 54.521C182.22 54.5748 182.186 54.6017 182.125 54.6017C182.07 54.4984 182.041 54.3829 182.042 54.2656C182.068 54.0142 182.112 53.7649 182.172 53.5193H182.042C182.046 53.2847 182.125 53.0576 182.267 52.8706C182.267 52.8941 182.267 52.9042 182.3 52.9042L182.267 52.7395L184.45 44.716C184.497 44.716 184.571 44.4101 184.675 43.795C184.729 43.7076 184.991 42.7866 185.454 40.995C186.1 38.9347 186.628 36.8395 187.036 34.7193V34.5882H187.12L187.167 34.8471H187.214C187.371 33.4465 187.587 32.7462 187.862 32.7462L187.936 32.7429ZM184.739 52.2387L184.688 52.5445V52.5815H184.739C184.754 52.4671 184.781 52.3545 184.819 52.2454L184.739 52.2387ZM190.734 53.5496C190.639 53.7095 190.594 53.8948 190.607 54.0807H190.734C190.758 53.8938 190.819 53.7134 190.912 53.5496H190.865L190.785 53.5966C190.785 53.5798 190.768 53.563 190.734 53.563V53.5496ZM191.406 53.5025V53.6336H191.312V53.5966C191.312 53.5496 191.342 53.516 191.396 53.516L191.406 53.5025ZM191.927 51.5765H192.021L191.715 52.6286H191.621V52.5815C191.742 52.2583 191.841 51.927 191.916 51.5899L191.927 51.5765Z" fill="white"/>
<path d="M199.272 42.9882H199.497L200.76 43.2471C202.124 43.9193 202.802 44.4773 202.802 44.9479C202.802 45.9092 202.355 46.9255 201.459 47.9966C200.639 48.7765 199.84 49.1664 199.061 49.1664H198.93C198.09 49.1288 197.271 48.8988 196.535 48.4941H196.367C195.581 50.2868 195.188 51.7087 195.188 52.7597V52.8269C195.189 53.1352 195.233 53.4418 195.319 53.7378C195.537 53.7378 196.149 53.4017 197.146 52.7462L198.023 52.2622C198.164 52.3092 198.234 52.3832 198.234 52.484H198.281L198.412 52.3899C198.424 52.3908 198.435 52.3939 198.445 52.3991C198.456 52.4043 198.465 52.4115 198.472 52.4202C198.48 52.4289 198.485 52.4391 198.489 52.45C198.493 52.461 198.494 52.4726 198.493 52.484V52.6151C198.478 52.7455 198.414 52.8655 198.315 52.9513V52.9983L198.54 52.9513H198.624C198.688 52.9513 198.718 52.9849 198.718 53.0353C198.611 53.1335 198.52 53.2467 198.446 53.3714C198.473 53.41 198.49 53.4553 198.493 53.5025C198.399 53.5025 198.124 53.8387 197.667 54.5109C197.312 54.7528 196.916 54.9282 196.498 55.0286C195.769 54.9361 195.052 54.7624 194.362 54.5109C193.549 54.4471 193.146 54.1983 193.146 53.7647C192.827 53.3047 192.673 52.7503 192.709 52.1916C192.734 52.1532 192.75 52.1095 192.756 52.0639L192.709 51.9798C192.728 51.7801 192.82 51.5945 192.968 51.4588V51.0689L193.048 50.9412L193.015 50.8471C193.034 50.8058 193.045 50.7614 193.048 50.716C192.995 50.716 192.968 50.6891 192.968 50.6319C192.974 50.6331 192.981 50.6328 192.987 50.6308C192.993 50.6289 192.999 50.6254 193.004 50.6208C193.008 50.6162 193.012 50.6105 193.014 50.6042C193.016 50.598 193.016 50.5913 193.015 50.5849C192.951 50.5849 192.921 50.558 192.921 50.5042V50.3731C193.035 49.7276 193.262 49.1073 193.592 48.5412H193.626C193.446 48.8965 193.333 49.2814 193.29 49.6773H193.374V49.5462C193.442 49.2224 193.561 48.9115 193.727 48.6252L193.68 48.5412V48.4605C193.774 48.4605 193.948 48.1076 194.2 47.4084C194.241 47.4084 194.315 47.3042 194.425 47.0992V47.0655C194.278 47.1678 194.169 47.317 194.116 47.4891L194.036 47.5361V47.4891C194.166 47.1706 194.354 46.8788 194.59 46.6286V46.7765H194.684C194.887 46.4122 195.133 46.0736 195.416 45.7681C195.463 45.7681 195.537 45.684 195.641 45.5092L197.247 43.9866H197.116C197.116 43.9059 197.264 43.8487 197.553 43.8084C198.26 43.2616 198.833 42.9882 199.272 42.9882ZM192.79 51.2605H192.884V51.4353H192.79V51.2605ZM192.837 51.6975V52.0034H192.921V51.6975H192.837ZM192.837 52.0504V52.2656H192.921L192.884 52.0504H192.837ZM192.837 52.3866V52.6118H192.884V52.3866H192.837ZM193.048 50.4269C193.046 50.4713 193.034 50.5147 193.015 50.5546H193.099V50.4269H193.048ZM193.146 49.9529C193.083 50.0902 193.05 50.239 193.048 50.3899C193.099 50.3899 193.156 50.2555 193.226 49.9899L193.146 49.9529ZM193.193 49.8588V49.9059H193.226L193.273 49.7277C193.22 49.7322 193.193 49.7782 193.193 49.8655V49.8588ZM196.924 44.0874H196.971V44.1815C196.924 44.1815 196.854 44.2252 196.756 44.3126H196.709V44.2655C196.709 44.2118 196.78 44.1546 196.924 44.0874ZM196.709 47.963L196.793 48.0101L196.887 47.963L196.971 48.0101C196.978 48.0113 196.985 48.0109 196.991 48.009C196.997 48.007 197.003 48.0036 197.007 47.999C197.012 47.9943 197.015 47.9886 197.017 47.9824C197.019 47.9761 197.02 47.9695 197.018 47.963C197.134 47.981 197.246 48.0126 197.354 48.0571C197.834 48.0571 198.486 47.5933 199.313 46.6655C199.863 45.8992 200.139 45.2202 200.139 44.6185H200.105C199.406 44.9908 198.772 45.4744 198.228 46.0504L197.482 46.8773C197.172 47.194 196.912 47.5554 196.709 47.9496V47.963Z" fill="white"/>
<path d="M221.78 31.4555H221.84C222.405 31.4555 222.939 31.9933 223.432 33.0723C223.432 33.1126 223.432 33.1328 223.385 33.1328L223.432 33.4689C223.432 34.0571 223.15 34.7798 222.583 35.6303C222.403 36.1953 222.132 36.7269 221.78 37.2034C220.584 39.4017 219.864 40.5221 219.62 40.5647H219.56C219.56 40.3664 219.388 40.2689 219.039 40.2689C218.622 39.9529 218.414 39.7289 218.414 39.5966H218.367L218.203 39.6908L218.146 39.5966C220.161 36.2151 221.168 34.3283 221.168 33.9361H221.108C221.014 33.9361 220.596 34.2824 219.855 34.9748C219.714 34.9748 218.93 35.6796 217.504 37.0891C216.93 37.6739 216.624 38.0504 216.584 38.2252C216.584 38.3496 216.664 38.4134 216.819 38.4134V38.4605C216.444 38.9315 216.043 39.3804 215.616 39.805L215.452 39.6975C214.359 40.99 213.401 42.3911 212.593 43.879C212.626 43.9243 212.646 43.9778 212.65 44.0336L212.758 43.9866C212.758 44.0168 212.778 44.0336 212.818 44.0336C212.66 44.2637 212.525 44.5092 212.415 44.7664H212.321V44.6252C211.793 45.0241 211.337 45.9731 210.954 47.4723C210.906 47.6335 210.886 47.8017 210.894 47.9698H210.954V48.0639C210.953 48.204 210.989 48.342 211.058 48.4639L211.001 48.7597C212.799 48.3563 214.557 47.7939 216.255 47.079C217.267 46.7286 218.325 46.5293 219.395 46.4874C220.577 46.7731 221.168 47.0824 221.168 47.4219C221.638 47.9451 222.042 48.5243 222.371 49.1462V49.3479C222.371 50.1277 221.931 51.191 221.051 52.5378C220.751 52.9847 220.506 53.4653 220.319 53.9698H220.258L220.141 53.9227C219.822 54.4608 219.438 54.9566 218.995 55.3983C218.995 55.5025 218.807 55.7647 218.428 56.1916L218.146 56.084C218.471 55.7173 218.737 55.3023 218.935 54.8538H218.888C218.711 55.0806 218.518 55.294 218.31 55.4924L216.658 57.7143V57.8689H216.832C216.832 57.7905 217.211 57.2829 217.968 56.3462L218.203 56.158H218.367V56.2521C216.605 58.6543 215.444 60.1625 214.884 60.7765C214.741 60.7901 214.604 60.8386 214.484 60.9177V60.8235C215.364 59.6975 215.808 59.0924 215.808 59.005C215.455 59.232 215.176 59.5567 215.005 59.9395C214.295 60.6428 213.661 61.4191 213.114 62.2555C213.02 62.279 212.832 62.5076 212.546 62.9277C212.45 62.9299 212.356 62.9586 212.275 63.0108C212.193 63.063 212.128 63.1366 212.086 63.2235C211.75 63.5832 211.576 63.7647 211.519 63.7647L211.461 63.6706V63.6235C211.461 63.4891 211.573 63.3076 211.797 63.079C211.797 63.0084 211.757 62.9748 211.68 62.9748C211.537 63.077 211.406 63.1955 211.29 63.3277H211.169L211.052 63.2706C211.054 63.2848 211.053 63.2994 211.049 63.3131C211.044 63.3268 211.036 63.3392 211.026 63.3494C211.016 63.3596 211.004 63.3672 210.99 63.3716C210.976 63.376 210.962 63.3771 210.948 63.3748H210.83V63.2471C210.831 63.2327 210.835 63.2187 210.841 63.2059C210.847 63.1931 210.857 63.1818 210.868 63.1727C210.879 63.1635 210.891 63.1567 210.905 63.1528C210.919 63.1488 210.933 63.1477 210.948 63.1496C210.912 63.041 210.891 62.9278 210.887 62.8135L210.551 63.0051H210.373V62.8639L212.388 60.1076C212.643 59.799 212.868 59.467 213.06 59.116V58.9748C213.195 58.9748 213.419 58.7261 213.732 58.2286V58.1815H213.567V58.1345C213.567 58.0874 213.625 58.0403 213.732 57.9933H213.792V58.0403L213.732 58.1345H213.853C213.963 57.9078 214.097 57.6936 214.253 57.4958L214.192 57.4017L218.586 51.3513C219.051 50.6503 219.454 49.9103 219.791 49.1395V49.0924H219.711C219.247 49.0924 218.181 49.4196 216.513 50.074C214.617 50.7664 213.152 51.1126 212.12 51.1126C211.712 51.0431 211.322 50.891 210.974 50.6656C209.673 49.6818 208.988 48.977 208.919 48.5513C208.865 48.5513 208.808 48.3832 208.754 48.0538C208.714 48.0538 208.694 48.037 208.694 48.0067C208.694 47.9765 208.714 47.9126 208.754 47.9126L208.694 47.5765V47.3748C208.715 47.2306 208.777 47.0955 208.872 46.9849L208.811 46.8773C209.109 45.7616 209.551 44.6893 210.125 43.6874C210.776 42.5445 211.232 41.7882 211.492 41.4185C211.642 41.042 212.252 40.1557 213.322 38.7597C214.425 37.2878 215.646 35.9084 216.973 34.6353C219.022 32.5132 220.624 31.4532 221.78 31.4555ZM215.841 58.8773V58.9714C216.335 58.4336 216.584 58.1244 216.584 58.037H216.527C216.218 58.2408 215.979 58.534 215.841 58.8773Z" fill="white"/>
<path d="M228.108 31.4655L228.178 31.5126L228.366 31.4655C228.695 31.469 229.013 31.5879 229.263 31.8017C229.353 31.7992 229.441 31.8252 229.515 31.8759C229.59 31.9266 229.646 31.9994 229.676 32.084C229.811 32.084 230.012 32.2286 230.281 32.5109C230.281 33.3849 229.891 35.4801 229.112 38.7966L228.934 39.805V39.9227C229.021 39.9227 230.466 39.8107 233.267 39.5866H233.304V39.6336C233.123 39.6894 232.938 39.7288 232.75 39.7513V39.8353L234.023 39.7143L234.093 39.7513C234.245 39.7369 234.396 39.7088 234.543 39.6672C234.588 39.6992 234.643 39.7158 234.698 39.7143C234.746 39.7024 234.793 39.6867 234.839 39.6672L234.919 39.7143L234.99 39.6672L235.064 39.7143C235.506 39.626 235.956 39.5832 236.407 39.5866C236.407 39.674 236.471 39.7143 236.599 39.7143L236.821 39.6672V39.7177L236.905 39.6706C237.04 39.7702 237.192 39.8432 237.355 39.8857H237.425L237.613 39.8387L237.65 39.9193L237.496 40.0034L237.529 40.0975C237.529 40.1681 237.345 40.2219 236.975 40.2622L237.046 40.3798V40.4269H237.012L236.941 40.3798V40.4639C236.978 40.4663 237.013 40.4759 237.045 40.492C237.077 40.5082 237.106 40.5306 237.13 40.558H237.465C237.465 40.7227 237.368 40.8067 237.17 40.8067C236.894 40.9009 236.757 40.9681 236.757 41.0084C236.757 41.0387 236.891 41.0555 237.136 41.0555L237.089 41.1361V41.1832C237.271 41.2 237.361 41.2538 237.361 41.3513V41.4319C236.461 41.4958 236.018 41.5933 236.018 41.7277C236.013 41.7704 235.997 41.811 235.971 41.8454L236.159 41.8118H236.505V41.8924C236.132 41.8924 234.825 42.0303 232.605 42.3059V42.2723C230.386 42.5479 228.942 42.6857 228.272 42.6857H228.239C228.141 42.7866 227.967 43.3748 227.705 44.4471C227.51 45.274 227.112 46.5849 226.512 48.3798C225.93 50.4213 225.58 51.442 225.461 51.442V51.358C225.545 50.9991 225.658 50.6473 225.797 50.3059L225.716 50.2723C225.347 51.2179 224.812 52.7384 224.111 54.8336H224.077C224.114 54.4471 224.161 54.2555 224.218 54.2555L224.181 54.1714V54.1244C224.255 53.9986 224.295 53.8564 224.299 53.7109L224.148 53.8286H224.111V53.795L224.594 52.2319V52.1546C224.529 52.1546 224.357 52.6588 224.077 53.6672C223.861 54.1119 223.682 54.5741 223.543 55.0487H223.473V54.921H223.543L223.439 54.6723L223.51 54.6353C223.51 54.6925 223.54 54.7193 223.58 54.7193V54.6353C223.51 54.6353 223.449 54.5782 223.402 54.4572L223.439 54.3765L223.355 54.3395H223.321C223.321 54.474 223.295 54.5412 223.248 54.5412H223.214C223.231 54.4279 223.255 54.3157 223.285 54.2051C223.207 54.242 223.106 54.4672 222.989 54.8773H222.905L222.989 54.2051H222.905C222.905 54.316 222.871 54.3698 222.801 54.3698V54.2857C222.845 54.2101 222.869 54.1245 222.871 54.037V53.9899H222.834L222.646 54.2857H222.613V54.2521C222.613 54.1076 222.636 54.037 222.683 54.037L222.646 53.9563C222.7 53.6821 222.815 53.4236 222.982 53.2L222.949 53.116L223.053 52.9513C223.051 52.824 223.04 52.697 223.019 52.5714C223.12 52.3115 223.395 51.4017 223.845 49.842C223.805 49.842 223.765 49.8051 223.728 49.7244V49.6773C223.728 49.6235 223.751 49.5966 223.798 49.5966C223.798 49.6807 223.825 49.7244 223.879 49.7244C223.932 49.4815 224.007 49.244 224.104 49.0151L223.986 49.0992V49.0521C224.132 48.324 224.333 47.6082 224.588 46.9109C224.648 46.6281 224.723 46.3487 224.813 46.074C225.388 44.0796 225.676 42.9647 225.676 42.7294C224.188 42.6353 223.412 42.4639 223.348 42.2219C223.293 42.1014 223.257 41.9734 223.241 41.842C223.241 40.9277 223.217 40.2051 223.17 39.6672C223.207 39.6237 223.258 39.5951 223.315 39.5866C224.297 39.8694 225.315 40.0087 226.338 40C226.741 38.5031 227.189 36.2689 227.681 33.2975C227.775 32.1008 227.85 31.5025 227.906 31.5025L228.108 31.4655ZM223.466 53.9664C223.436 54.0771 223.413 54.1893 223.395 54.3025C223.442 54.3025 223.479 54.2051 223.503 54.0067V53.9731L223.466 53.9664ZM224.07 54.084V54.2151H223.986V54.1714C223.983 54.1143 224.01 54.084 224.077 54.084H224.07ZM224.658 51.7311C224.611 51.9126 224.588 52.0101 224.588 52.0269V52.0605H224.625L224.742 51.7244L224.658 51.7311ZM224.625 46.958C224.649 47.0095 224.66 47.0659 224.658 47.1227H224.695C224.716 47.0092 224.742 46.8969 224.776 46.7866C224.749 46.8034 224.692 46.8605 224.615 46.9714L224.625 46.958ZM224.883 51.0219C224.885 51.0786 224.874 51.1351 224.85 51.1866L224.92 51.2235L224.967 51.0219H224.883ZM225.485 51.4824V51.6471H225.421V51.5664C225.421 51.5227 225.438 51.4824 225.474 51.4824H225.485ZM226.573 47.4487C226.499 47.9318 226.347 48.3995 226.123 48.8336C226.099 49.0629 226.048 49.2886 225.972 49.5059C225.959 49.6203 225.934 49.733 225.898 49.842H225.972C226.039 49.4965 226.142 49.1587 226.277 48.8336L226.677 47.4891V47.442L226.573 47.4487ZM226.831 46.7059L226.798 46.9042V46.9546H226.831C226.841 46.8684 226.865 46.7844 226.902 46.7059H226.831ZM233.646 39.5328H233.798V39.6269H233.646V39.5328ZM234.06 39.4958H234.154V39.5798H234.05L234.06 39.4958Z" fill="white"/>
<path d="M235.43 42.5042C235.689 42.5042 235.93 42.7092 236.152 43.116C236.223 43.479 236.397 43.6605 236.683 43.6605C236.878 43.7311 237.167 44.121 237.543 44.8303C237.623 44.8303 237.717 45.0824 237.828 45.5866C237.781 46.084 237.687 46.3328 237.543 46.3328C237.338 47.3076 237.116 47.7983 236.871 47.7983V47.9966L236.965 47.963L237.012 48.0437V48.121L236.777 48.0739L236.246 49.4655L236.293 49.6336C236.202 49.9478 236.09 50.2555 235.957 50.5546C235.834 50.9714 235.693 51.5541 235.534 52.3025C235.487 52.3025 235.433 52.3429 235.38 52.4202V52.6353H235.497V52.8C235.299 52.8 235.202 53.1361 235.202 53.8387C235.178 53.9496 235.145 54.0034 235.108 54.0034L235.155 54.2185V54.2655C234.963 55.163 234.869 55.6471 234.869 55.7177C234.902 55.7661 234.919 55.8238 234.916 55.8824V56.2622C234.916 56.316 234.886 56.3429 234.822 56.3429C234.924 56.9773 235.115 57.5941 235.39 58.1748V58.3059L235.155 58.3899C234.657 58.2084 234.244 57.7356 233.915 56.9714C233.613 56.1553 233.433 55.299 233.381 54.4303C233.381 54.4239 233.381 54.4176 233.384 54.4117C233.386 54.4057 233.389 54.4003 233.394 54.3959C233.398 54.3914 233.404 54.3879 233.41 54.3857C233.415 54.3836 233.422 54.3827 233.428 54.3832C233.425 54.3401 233.408 54.299 233.381 54.2655C233.411 54.0022 233.427 53.7374 233.428 53.4723V53.3916L233.381 53.0958H233.24L233.146 53.1294C233.146 53.0756 233.116 53.0487 233.052 53.0487C233.052 53.1563 232.988 53.2134 232.864 53.2134V53.2605C232.864 53.3143 232.911 53.3412 233.005 53.3412V53.3916C232.438 54.0921 231.69 54.6235 230.842 54.9277C230.665 54.9398 230.498 55.0149 230.372 55.1395V55.1731C230.466 55.1731 230.513 55.2034 230.513 55.2571V55.3042H230.459C230.129 55.3236 229.799 55.2615 229.498 55.1231C229.198 54.9848 228.936 54.7745 228.736 54.5109C228.366 54.2756 227.9 53.721 227.342 52.8471C227.325 52.6264 227.261 52.4119 227.154 52.2185C227.143 52.1338 227.16 52.0479 227.201 51.9731C227.173 51.8211 227.157 51.6671 227.154 51.5126C227.154 50.6812 227.536 49.637 228.299 48.3798C228.665 47.968 228.985 47.5171 229.253 47.0353C229.253 47.0129 229.733 46.512 230.694 45.5328C230.694 45.4454 231.191 45.0185 232.182 44.2454C233.476 43.2011 234.559 42.6207 235.43 42.5042ZM235.585 44.0034V44.121L235.632 44.205C234.809 44.5233 234.046 44.9778 233.374 45.5496C233.401 45.6599 233.416 45.7724 233.421 45.8857C233.18 46.0114 232.954 46.166 232.75 46.3462C232.564 46.5444 232.39 46.7532 232.229 46.9714C232.087 47.2003 231.888 47.388 231.651 47.516L230.459 48.9546C230.123 49.3244 229.975 49.563 229.975 49.6639C229.911 49.6639 229.74 49.9328 229.455 50.4672C229.196 50.7529 228.954 51.4454 228.736 52.5479L228.924 53.2571C229.909 53.2571 231.22 52.2958 232.857 50.3731C233.28 49.8387 233.616 49.3815 233.865 49.0017C234.393 48.116 234.795 47.1612 235.061 46.1647C235.477 45.0443 235.748 44.3518 235.873 44.0874C235.88 44.0886 235.886 44.0882 235.893 44.0863C235.899 44.0843 235.905 44.0809 235.909 44.0763C235.914 44.0716 235.917 44.0659 235.919 44.0597C235.921 44.0534 235.922 44.0468 235.92 44.0403C235.92 43.9832 235.89 43.9563 235.826 43.9563L235.585 44.0034ZM233.186 53.0084H233.233C233.297 53.0084 233.327 52.9815 233.327 52.9244V52.8773C233.28 52.8773 233.233 52.921 233.186 53.0084Z" fill="white"/>
<path d="M246.071 42.9042L246.188 42.9748C246.367 42.9663 246.544 42.9427 246.719 42.9042C246.766 42.9042 246.87 43.0319 247.025 43.284L246.954 43.4017V43.4353C247.206 43.4689 247.334 43.5193 247.334 43.5899C247.293 43.5899 247.219 43.6672 247.109 43.8252V43.8958H247.297V43.9798C247.099 44.2362 246.834 44.4328 246.531 44.5479C246.531 44.6824 246.098 44.9244 245.231 45.2807C244.443 45.7011 243.699 46.1999 243.011 46.7697C242.14 47.4604 241.376 48.2759 240.744 49.1899C239.974 50.4212 239.452 51.7915 239.209 53.2235C239.113 53.5013 239.038 53.7855 238.984 54.074C238.984 54.0975 238.984 54.1076 239.021 54.1076C238.95 54.6689 238.822 54.9479 238.641 54.9479C238.641 54.995 238.564 55.0353 238.406 55.0656L238.1 54.9143C238.053 54.939 237.999 54.9506 237.946 54.9479C237.568 54.7543 237.172 54.6 236.763 54.4874L236.491 54.2286L236.421 54.2622H236.374C236.327 54.2622 236.303 54.2353 236.303 54.1815C236.678 52.432 237.228 50.7247 237.946 49.0857C238.322 48.4639 238.648 47.9697 238.913 47.5966C239.555 46.7849 240.302 46.0616 241.133 45.4454C242.307 44.5416 243.609 43.8177 244.996 43.2975C245.333 43.1146 245.695 42.9821 246.071 42.9042Z" fill="white"/>
<path d="M248.385 42.9882H248.751C249.396 42.9882 250.446 43.2829 251.902 43.8723C252.609 44.2398 252.963 44.5983 252.963 44.9479C252.961 45.071 252.974 45.194 253 45.3143C252.913 45.6504 252.835 45.8353 252.765 45.8353H252.681C252.506 45.7891 252.342 45.7092 252.197 45.6L252.113 45.6336C251.505 45.4022 250.876 45.2289 250.236 45.116L250.202 45.1967L250.236 45.2807H250.001C249.565 45.1833 249.122 45.1159 248.677 45.079C248.647 45.1563 248.563 45.1967 248.429 45.1967V45.1496C248.339 45.142 248.25 45.1617 248.172 45.2061C248.094 45.2505 248.031 45.3175 247.992 45.3983C247.634 45.4674 247.285 45.5803 246.954 45.7345C246.954 45.7109 246.954 45.7009 246.917 45.7009C246.917 45.8017 246.863 45.8555 246.753 45.8555V45.9361C246.815 46.3283 247.63 46.8639 249.198 47.5429C250.416 47.9754 251.281 48.4168 251.794 48.8672C252.195 49.3045 252.426 49.8709 252.446 50.4639C252.383 52.0953 252.249 52.9098 252.043 52.9076C251.646 53.2344 251.176 53.4583 250.672 53.5597C250.603 53.5597 248.777 53.9967 245.194 54.8706C244.855 54.9643 244.507 55.0196 244.156 55.0353L244.109 54.9546V54.8C244.108 54.7936 244.108 54.7869 244.11 54.7807C244.112 54.7744 244.116 54.7687 244.12 54.7641C244.125 54.7595 244.131 54.756 244.137 54.7541C244.143 54.7521 244.15 54.7517 244.156 54.753C244.111 54.6944 244.082 54.6248 244.072 54.5513C244.093 54.5152 244.105 54.475 244.109 54.4336C244.098 54.4353 244.086 54.4343 244.075 54.4307C244.064 54.4271 244.054 54.4209 244.046 54.4128C244.038 54.4046 244.032 54.3946 244.028 54.3837C244.025 54.3727 244.024 54.361 244.025 54.3496C244.079 54.3496 244.109 54.3261 244.109 54.279V54.2319C244.048 54.1797 244.006 54.1089 243.988 54.0303C244.066 53.8556 244.107 53.6668 244.109 53.4756C244.201 53.3637 244.332 53.2915 244.475 53.274C244.475 53.1093 244.764 52.9748 245.349 52.874V52.7563H245.312C245.288 52.7563 245.181 52.7563 244.976 52.7899V52.7093C246.393 52.2611 247.901 51.8465 249.5 51.4656L249.534 51.3849V51.3479C249.446 51.3479 249.168 51.3882 248.697 51.4656V51.3849C249.366 51.2775 250.022 51.1029 250.656 50.8639L250.703 50.7933C250.189 50.5279 249.651 50.3107 249.097 50.1446C248.821 49.9728 248.524 49.8372 248.214 49.7412C247.635 49.4386 247.099 49.0611 246.618 48.6185C246.397 48.4591 246.216 48.2497 246.091 48.0073C245.965 47.765 245.899 47.4965 245.896 47.2235L245.933 47.1429L245.779 46.8235C245.779 46.7933 245.779 46.7765 245.815 46.7765L245.779 46.7059V46.2723C245.779 46.2171 245.763 46.163 245.731 46.1177C245.731 46.1113 245.732 46.105 245.734 46.0991C245.736 46.0931 245.74 46.0877 245.744 46.0833C245.749 46.0788 245.754 46.0753 245.76 46.0731C245.766 46.071 245.772 46.0701 245.779 46.0706L245.731 45.8723V45.116C245.731 44.5244 246.16 43.9373 247.018 43.3546C247.433 43.1125 247.905 42.9859 248.385 42.9882Z" fill="white"/>
<path d="M18.3828 42.6252C18.398 36.7939 20.373 31.1373 23.9902 26.5655C27.6073 21.9938 32.6562 18.7728 38.3244 17.4208C43.9926 16.0689 49.9504 16.6646 55.2392 19.1121C60.5281 21.5597 64.8403 25.7167 67.4821 30.9143C65.5703 26.8312 62.6451 23.3065 58.9855 20.6761C55.3259 18.0457 51.054 16.3975 46.5771 15.8886C42.1002 15.3796 37.5677 16.027 33.4118 17.769C29.256 19.5109 25.6153 22.2893 22.8371 25.8392C20.059 29.3891 18.2359 33.5921 17.5418 38.0474C16.8477 42.5026 17.3057 47.0615 18.8722 51.2893C20.4387 55.517 23.0614 59.2727 26.4901 62.198C29.9188 65.1234 34.0393 67.1209 38.4585 68C32.7379 66.6658 27.6383 63.4302 23.9921 58.8216C20.3459 54.213 18.3685 48.5035 18.3828 42.6252Z" fill="white"/>
<path d="M4.05746 15.6168L5.4816 18.2387L8.0914 19.6773L5.47489 21.1025L4.03731 23.7176L2.61316 21.0958L0 19.6571L2.61989 18.2319L4.05746 15.6168Z" fill="white"/>
<path d="M11.2621 0L11.9742 1.31092L13.2808 2.03026L11.9708 2.74286L11.2521 4.05043L10.54 2.73949L9.2334 2.02017L10.5434 1.30757L11.2621 0Z" fill="white"/>
<path d="M17.308 9.09243L18.0201 10.4034L19.3267 11.1227L18.0167 11.8353L17.2979 13.1395L16.5859 11.8319L15.2793 11.1126L16.5892 10.4L17.308 9.09243Z" fill="white"/>
</svg>
