<svg width="834" height="440" viewBox="0 0 834 440" fill="none" xmlns="http://www.w3.org/2000/svg">
<path d="M364.166 89.81C367.806 86.4 369.106 81.34 367.566 76.6C366.026 71.86 361.996 68.53 357.056 67.9L299.846 60.68C299.126 60.59 298.516 60.14 298.206 59.49L273.666 7.31C271.546 2.8 267.126 0 262.146 0C257.166 0 252.746 2.8 250.626 7.31L226.086 59.49C225.776 60.15 225.156 60.59 224.436 60.69L167.226 67.91C162.276 68.53 158.256 71.87 156.716 76.6C155.176 81.34 156.476 86.4 160.106 89.81L202.146 129.28C202.676 129.78 202.906 130.5 202.776 131.21L191.956 187.85C191.016 192.74 192.946 197.6 196.976 200.54C201.006 203.47 206.226 203.8 210.596 201.4L261.116 173.61C261.756 173.26 262.516 173.26 263.146 173.61L313.676 201.4C315.616 202.47 317.726 203 319.826 203C322.446 203 325.056 202.18 327.286 200.55C331.316 197.62 333.246 192.76 332.306 187.86L321.486 131.22C321.346 130.51 321.586 129.79 322.116 129.29L364.166 89.81ZM258.666 14.35C258.666 14.36 258.666 14.36 258.666 14.35ZM310.786 117.2C306.096 121.6 304.016 128 305.226 134.31L314.516 182.95L271.126 159.09C265.496 155.99 258.766 155.99 253.136 159.09L209.746 182.96L219.036 134.32C220.246 128 218.166 121.6 213.476 117.21L177.376 83.32L226.506 77.12C232.886 76.32 238.326 72.36 241.066 66.54L262.136 21.73L283.216 66.54C285.956 72.36 291.396 76.31 297.776 77.12L346.906 83.32L310.786 117.2Z" fill="white" fill-opacity="0.8"/>
<path d="M111.726 188.87C113.176 189.88 114.826 190.37 116.466 190.37C119.076 190.37 121.646 189.14 123.256 186.84L154.066 142.84C156.686 139.09 155.776 133.93 152.036 131.31C148.296 128.69 143.126 129.6 140.506 133.34L109.706 177.33C107.076 181.09 107.986 186.25 111.726 188.87Z" fill="white" fill-opacity="0.8"/>
<path d="M93.6063 214.76C89.8563 212.14 84.6963 213.05 82.0763 216.79L1.49635 331.87C-1.12365 335.61 -0.21365 340.78 3.52635 343.4C4.97635 344.41 6.62634 344.9 8.26634 344.9C10.8763 344.9 13.4463 343.67 15.0563 341.37L95.6363 226.29C98.2563 222.54 97.3463 217.38 93.6063 214.76Z" fill="white" fill-opacity="0.8"/>
<path d="M448.316 248.07V248.77C448.316 249.13 448.026 249.42 447.666 249.42H442.906C442.546 249.42 442.256 249.13 442.256 248.77V248.07C442.256 247.71 442.546 247.42 442.906 247.42H447.666C448.026 247.42 448.316 247.71 448.316 248.07ZM436.866 242.25C437.326 243.68 437.556 245.35 437.556 247.24V249.45H421.526C421.556 251.21 421.736 252.71 422.056 253.97C422.376 255.23 422.836 256.27 423.446 257.08C424.046 257.9 424.786 258.49 425.666 258.88C426.546 259.26 427.556 259.46 428.696 259.46C429.526 259.46 430.296 259.37 431.016 259.18C431.726 258.99 432.376 258.74 432.956 258.43C433.536 258.12 434.046 257.76 434.496 257.36C434.946 256.96 435.306 256.54 435.586 256.1C435.806 256.19 436.016 256.39 436.206 256.69C436.406 256.99 436.496 257.34 436.496 257.75C436.496 258.24 436.326 258.76 435.976 259.31C435.636 259.87 435.106 260.38 434.396 260.85C433.686 261.32 432.806 261.71 431.756 262.03C430.696 262.34 429.456 262.5 428.036 262.5C426.296 262.5 424.736 262.21 423.346 261.62C421.956 261.03 420.786 260.17 419.836 259.05C418.886 257.93 418.146 256.54 417.636 254.9C417.126 253.26 416.876 251.4 416.876 249.32C416.876 244.82 417.796 241.44 419.646 239.17C421.496 236.9 424.126 235.76 427.546 235.76C429.096 235.76 430.496 236 431.726 236.49C432.966 236.98 434.016 237.7 434.876 238.66C435.736 239.62 436.396 240.82 436.866 242.25ZM432.696 246.87C432.696 245.6 432.606 244.44 432.416 243.39C432.226 242.34 431.926 241.44 431.526 240.69C431.116 239.94 430.576 239.36 429.916 238.95C429.246 238.54 428.436 238.34 427.456 238.34C425.666 238.34 424.296 239.06 423.336 240.51C422.376 241.96 421.806 244.08 421.636 246.87H432.696ZM348.116 255.19L338.156 227.67H329.176V229.69C331.426 229.69 331.706 230.47 331.736 232.14V257.55C331.706 259.22 331.426 260 329.176 260V262.02H337.236V260C334.976 260 334.706 259.22 334.676 257.55V257.56V231.36L345.836 262.03H348.446L359.466 231.27V257.56C359.436 259.23 359.156 260.01 356.906 260.01V262.03H366.656V260.01C364.406 260.01 364.126 259.23 364.096 257.56V232.15C364.126 230.48 364.406 229.7 366.656 229.7V227.68H357.986L348.116 255.19ZM414.706 258.99C413.886 258.32 413.056 257.34 412.226 256.05L405.806 246.53L409.186 242.72C410.436 241.3 411.606 240.19 412.676 239.41C413.746 238.63 414.846 238.24 415.956 238.24V236.22H406.386V238.24C408.546 238.24 409.096 238.88 407.786 240.48C406.466 241.93 405.266 243.26 405.046 243.5L399.616 249.44V225.42H392.516V227.44C394.776 227.44 395.046 228.22 395.076 229.89V257.54C395.046 259.21 394.766 259.99 392.516 259.99V262.01H402.176V259.99C399.926 259.99 399.646 259.21 399.616 257.54V253.31L402.766 249.8L407.356 256.83C408.026 257.9 408.656 258.72 409.186 259.36C410.846 261.35 411.656 262.52 414.346 262.52C417.316 262.52 417.686 260 417.686 260H417.546C416.486 260 415.526 259.67 414.706 258.99ZM390.996 259.98V260.11C390.976 260.62 390.716 262.5 387.776 262.5C384.636 262.5 383.856 258.57 383.756 257.96L383.746 257.87C383.246 258.54 382.216 262.48 375.846 262.48C374.776 262.48 373.786 262.33 372.876 262.02C371.956 261.71 371.166 261.24 370.506 260.61C369.836 259.97 369.316 259.18 368.946 258.21C368.566 257.25 368.386 256.11 368.386 254.79C368.386 252.24 369.296 250.34 371.116 249.1C374.776 246.61 380.006 246.94 383.356 246.94V244.05C383.356 243.19 383.306 242.39 383.216 241.66C383.126 240.93 382.916 240.31 382.606 239.78C382.296 239.26 381.846 238.85 381.256 238.56C380.666 238.27 379.876 238.13 378.896 238.13C377.966 238.13 377.226 238.26 376.656 238.52C376.086 238.78 375.636 239.14 375.316 239.61C374.996 240.08 374.776 240.64 374.666 241.28C374.556 241.92 374.506 242.62 374.506 243.37C373.176 243.37 372.156 243.14 371.466 242.69C370.766 242.24 370.416 241.45 370.416 240.34C370.416 239.51 370.646 238.8 371.096 238.22C371.556 237.64 372.176 237.17 372.966 236.8C373.756 236.43 374.676 236.16 375.726 235.99C376.776 235.82 377.896 235.73 379.086 235.73C380.556 235.73 381.846 235.87 382.936 236.16C384.036 236.45 384.946 236.92 385.686 237.58C386.426 238.24 386.976 239.1 387.346 240.15C387.716 241.21 387.896 242.5 387.896 244.04V256.52C387.896 257.19 387.936 257.66 388.006 258.11C388.476 260.88 390.996 259.98 390.996 259.98ZM383.336 249.05C380.976 249.05 376.816 248.79 374.616 250.71C374.056 251.2 373.646 251.81 373.406 252.53C373.166 253.25 373.046 254.08 373.046 255.02C373.046 256.52 373.366 257.65 373.996 258.39C374.636 259.13 375.616 259.51 376.946 259.51C377.916 259.51 378.796 259.35 379.586 259.04C380.376 258.73 381.046 258.28 381.606 257.7C382.166 257.12 382.586 256.42 382.886 255.59C383.186 254.76 383.336 253.84 383.336 252.82V249.05ZM590.736 257.22V245.17C590.736 239.22 588.216 235.75 582.336 235.75C579.216 235.75 576.506 236.98 575.116 239.87V225.46H568.026V227.48C570.286 227.48 570.556 228.26 570.586 229.93V257.55C570.556 259.22 570.276 260 568.026 260V262.02H577.686V260C575.436 260 575.156 259.22 575.126 257.55V247.18C575.126 242.88 576.926 238.82 580.956 238.82C584.966 238.82 586.246 241.36 586.246 245.4V258.34C586.246 260.07 587.286 262.64 590.866 262.64C593.476 262.63 593.936 260.67 593.936 260.67C593.936 260.67 590.736 261.15 590.736 257.22ZM599.896 260.32C599.996 260.8 600.066 260.98 600.126 261.1H599.356C599.256 260.98 599.206 260.71 599.106 260.32C599.046 259.99 598.856 259.84 598.446 259.84H598.096V261.1H597.356V257.92C597.646 257.88 598.056 257.82 598.576 257.82C599.176 257.82 599.446 257.92 599.656 258.07C599.846 258.21 599.986 258.44 599.986 258.75C599.986 259.14 599.696 259.39 599.326 259.51V259.55C599.646 259.65 599.806 259.9 599.896 260.32ZM599.206 258.85C599.206 258.56 598.996 258.37 598.526 258.37C598.336 258.37 598.196 258.39 598.116 258.41V259.32H598.466C598.876 259.32 599.206 259.18 599.206 258.85ZM485.806 260.5H486.446V262.52H473.206V260.5H474.306C476.786 260.5 477.536 259.12 477.096 257.37C477.026 257.09 476.926 256.77 476.806 256.41L475.416 252.48C473.276 253.24 470.896 253.67 468.276 253.67C465.866 253.67 463.656 253.29 461.646 252.6L460.386 256.08C460.246 256.46 460.136 256.83 460.056 257.2C459.726 258.73 460.156 259.53 460.726 259.94C461.246 260.32 462.056 260.5 463.136 260.5H464.246V262.52H452.486V260.5H453.406C453.876 260.5 454.276 260.45 454.606 260.35C455.396 260.11 455.896 259.36 456.266 258.62C456.506 258.14 456.776 257.51 457.076 256.74L459.036 251.48C452.326 247.95 448.566 240.64 448.566 233.08C448.566 212.36 471.626 205.55 491.336 205.55C508.576 205.55 525.596 212 534.976 219.02C535.046 219.08 535.066 219.18 535.016 219.26C534.966 219.34 534.866 219.36 534.786 219.32C527.986 215.7 513.106 208.81 492.486 208.81C474.466 208.81 451.866 214.5 451.866 233.56C451.866 240.03 455.016 245.71 460.016 248.85L467.746 228.14H471.506L479.026 248.72C482.036 246.8 484.276 243.98 485.626 240.63C485.656 240.56 485.736 240.52 485.806 240.54C485.886 240.56 485.926 240.63 485.916 240.71C485.346 244.5 483.096 247.96 479.626 250.35L482.396 257.94C482.586 258.44 482.776 258.86 482.976 259.19C483.616 260.26 484.546 260.5 485.806 260.5ZM474.766 250.65L468.656 233.32L462.536 250.13C464.566 250.96 466.806 251.42 469.196 251.42C471.206 251.43 473.066 251.16 474.766 250.65ZM601.856 259.45C601.856 261.23 600.426 262.65 598.596 262.65C596.766 262.65 595.316 261.24 595.316 259.45C595.316 257.67 596.766 256.27 598.596 256.27H598.616C600.426 256.27 601.856 257.67 601.856 259.45ZM601.266 259.45C601.266 258 600.106 256.86 598.596 256.86C597.086 256.86 595.916 258 595.916 259.45C595.916 260.91 597.096 262.06 598.596 262.06C600.096 262.06 601.266 260.92 601.266 259.45ZM544.486 221.13C544.336 220.99 544.276 220.78 544.316 220.58L544.996 217.34C545.036 217.13 544.816 216.96 544.626 217.06L541.696 218.61C541.516 218.71 541.296 218.7 541.116 218.6L538.236 216.95C538.046 216.84 537.816 217 537.856 217.22L538.426 220.48C538.466 220.68 538.386 220.89 538.236 221.02L535.776 223.25C535.616 223.39 535.696 223.66 535.916 223.69L539.196 224.16C539.396 224.19 539.576 224.32 539.656 224.51L541.016 227.53C541.106 227.73 541.386 227.73 541.476 227.54L542.936 224.57C543.026 224.39 543.206 224.26 543.406 224.24L546.696 223.88C546.916 223.86 547.006 223.59 546.846 223.44L544.486 221.13ZM564.236 250.23C563.646 249.62 562.896 249.06 561.996 248.54C561.086 248.02 559.996 247.5 558.726 246.97C557.656 246.53 556.746 246.14 555.986 245.78C555.226 245.43 554.606 245.06 554.126 244.69C553.646 244.31 553.296 243.9 553.076 243.46C552.856 243.01 552.746 242.48 552.746 241.87C552.746 241.31 552.836 240.79 553.006 240.32C553.176 239.85 553.446 239.44 553.816 239.1C554.186 238.75 554.656 238.49 555.236 238.3C555.816 238.11 556.516 238.02 557.326 238.02C558.746 238.02 559.796 238.47 560.466 239.36C561.126 240.25 561.466 241.51 561.466 243.12C562.576 243.12 563.436 242.86 564.046 242.33C564.646 241.81 564.946 241.1 564.946 240.23C564.946 239.63 564.796 239.07 564.496 238.53C564.196 237.99 563.756 237.52 563.156 237.12C562.556 236.72 561.826 236.4 560.946 236.17C560.066 235.93 559.056 235.82 557.916 235.82C556.556 235.82 555.316 235.97 554.206 236.27C553.096 236.57 552.136 237 551.336 237.57C550.536 238.14 549.926 238.85 549.486 239.7C549.056 240.55 548.836 241.52 548.836 242.61C548.836 243.66 548.986 244.57 549.286 245.32C549.586 246.08 550.026 246.76 550.626 247.35C551.216 247.95 551.976 248.5 552.896 249.01C553.816 249.52 554.886 250.05 556.126 250.6C557.286 251.1 558.246 251.55 559.016 251.94C559.786 252.33 560.396 252.71 560.836 253.09C561.286 253.47 561.596 253.87 561.776 254.3C561.956 254.73 562.046 255.24 562.046 255.84C562.046 256.48 561.926 257.07 561.696 257.61C561.456 258.15 561.126 258.61 560.676 259C560.226 259.38 559.676 259.68 559.016 259.89C558.356 260.1 557.596 260.21 556.736 260.21C555.766 260.21 554.946 260.05 554.276 259.73C553.606 259.41 553.076 258.97 552.666 258.41C552.256 257.85 551.966 257.21 551.796 256.47C551.626 255.73 551.536 254.94 551.536 254.1C551.256 254.1 550.936 254.15 550.586 254.25C550.236 254.35 549.906 254.53 549.596 254.78C549.296 255.03 549.036 255.37 548.816 255.8C548.606 256.23 548.496 256.77 548.496 257.41C548.496 258.26 548.686 259 549.066 259.63C549.446 260.26 549.976 260.8 550.666 261.23C551.356 261.66 552.186 261.98 553.166 262.19C554.146 262.4 555.236 262.51 556.446 262.51C557.866 262.51 559.166 262.35 560.336 262.04C561.506 261.73 562.506 261.25 563.336 260.62C564.166 259.99 564.806 259.2 565.266 258.26C565.726 257.32 565.946 256.22 565.946 254.97C565.946 253.97 565.806 253.08 565.526 252.31C565.266 251.53 564.826 250.84 564.236 250.23ZM492.416 247.42H487.656C487.296 247.42 487.006 247.71 487.006 248.07V248.77C487.006 249.13 487.296 249.42 487.656 249.42H492.416C492.776 249.42 493.066 249.13 493.066 248.77V248.07C493.056 247.71 492.766 247.42 492.416 247.42ZM527.496 228.13V230.12H528.586C529.636 230.12 530.416 230.3 530.936 230.67C531.456 231.03 531.716 231.62 531.716 232.44C531.716 232.99 531.336 234.39 531.206 234.92L525.016 256.08L517.046 228.45H513.616L505.986 256.81L499.616 234.15C499.526 233.8 499.436 233.48 499.366 233.2C499.126 232.34 499.216 231.23 499.956 230.66C500.426 230.3 501.146 230.11 502.096 230.11H503.186V228.12H490.106V230.11C491.066 230.11 492.096 230.07 492.886 230.62C493.526 231.07 493.856 231.86 494.096 232.61L502.786 262.01H507.166L514.426 235.42L522.166 262.01H526.436L534.566 233.79C534.796 233 535.036 232.37 535.266 231.89C535.916 230.54 536.626 230.23 537.716 230.1V228.13H527.496ZM544.016 257.55V236.22H537.526L536.936 238.24C539.186 238.24 539.466 239.02 539.496 240.69V240.66V257.55C539.466 259.22 539.186 260 536.936 260V262.02H546.566V260C544.326 260 544.056 259.23 544.016 257.55Z" fill="white" fill-opacity="0.8"/>
<path d="M201.686 296.65C201.876 296.46 202.066 296.26 202.266 296.07C205.596 292.9 209.646 290.36 214.306 288.53C218.526 286.87 223.246 285.97 228.356 285.83L268.886 227.95C271.506 224.2 270.596 219.04 266.856 216.42C263.116 213.8 257.946 214.71 255.326 218.45L201.686 295.05V296.65Z" fill="white" fill-opacity="0.8"/>
<path d="M149.156 387.34C145.366 387.34 141.906 386.37 139.006 384.56L116.316 416.97C113.696 420.72 114.606 425.88 118.346 428.5C119.796 429.51 121.446 430 123.086 430C125.696 430 128.266 428.77 129.876 426.47L157.276 387.34H149.156Z" fill="white" fill-opacity="0.8"/>
<path d="M90.3163 326.5L20.1363 426.73C17.5163 430.48 18.4263 435.64 22.1663 438.26C23.6163 439.27 25.2663 439.76 26.9063 439.76C29.5163 439.76 32.0863 438.53 33.6963 436.23L90.3163 355.37V326.5Z" fill="white" fill-opacity="0.8"/>
<path d="M126.916 286.66C130.916 286.66 134.546 286.92 137.896 287.42L172.706 237.7C175.326 233.95 174.416 228.79 170.676 226.17C166.936 223.55 161.766 224.46 159.146 228.2L118.216 286.66H126.916Z" fill="white" fill-opacity="0.8"/>
<path d="M165.686 376.34H149.156C146.096 376.34 143.896 375.19 142.566 372.88L129.496 350.04C128.886 349.07 128.196 348.36 127.446 347.91C126.696 347.46 125.606 347.23 124.206 347.23H119.566V376.34H101.316V297.66H126.916C132.606 297.66 137.456 298.24 141.466 299.41C145.476 300.58 148.756 302.21 151.296 304.3C153.836 306.39 155.676 308.85 156.836 311.7C157.986 314.54 158.566 317.64 158.566 320.99C158.566 323.55 158.226 325.96 157.536 328.23C156.856 330.5 155.846 332.6 154.516 334.52C153.186 336.45 151.536 338.17 149.576 339.68C147.616 341.19 145.356 342.43 142.796 343.41C143.986 344.02 145.096 344.79 146.146 345.71C147.186 346.63 148.126 347.72 148.956 348.98L165.686 376.34ZM126.916 334.65C129.396 334.65 131.516 334.34 133.266 333.71C135.016 333.08 136.446 332.21 137.556 331.09C138.676 329.97 139.486 328.67 139.986 327.17C140.486 325.68 140.746 324.06 140.746 322.34C140.746 318.88 139.616 316.18 137.366 314.24C135.116 312.3 131.636 311.32 126.916 311.32H119.576V334.65H126.916Z" fill="white" fill-opacity="0.8"/>
<path d="M190.686 376.34H172.326V297.66H190.686V376.34Z" fill="white" fill-opacity="0.8"/>
<path d="M249.386 313.64C248.846 314.5 248.276 315.15 247.686 315.58C247.096 316.01 246.326 316.23 245.396 316.23C244.566 316.23 243.676 315.97 242.726 315.45C241.776 314.93 240.696 314.34 239.486 313.7C238.276 313.05 236.906 312.47 235.356 311.95C233.806 311.43 232.046 311.17 230.066 311.17C226.646 311.17 224.096 311.9 222.426 313.36C220.756 314.82 219.916 316.79 219.916 319.27C219.916 320.85 220.416 322.17 221.426 323.21C222.436 324.25 223.756 325.15 225.396 325.91C227.036 326.67 228.906 327.36 231.016 327.99C233.126 328.62 235.276 329.32 237.466 330.1C239.666 330.87 241.816 331.78 243.916 332.83C246.026 333.87 247.896 335.21 249.536 336.83C251.176 338.45 252.496 340.42 253.506 342.74C254.516 345.06 255.016 347.86 255.016 351.14C255.016 354.78 254.386 358.18 253.126 361.35C251.866 364.52 250.036 367.28 247.646 369.64C245.256 372 242.296 373.85 238.786 375.2C235.276 376.55 231.286 377.23 226.826 377.23C224.376 377.23 221.886 376.98 219.346 376.47C216.806 375.97 214.346 375.25 211.976 374.34C209.606 373.43 207.366 372.33 205.276 371.07C203.186 369.81 201.366 368.41 199.826 366.86L205.226 358.33C205.656 357.72 206.226 357.2 206.926 356.79C207.626 356.38 208.396 356.17 209.226 356.17C210.306 356.17 211.396 356.51 212.496 357.2C213.596 357.88 214.836 358.64 216.226 359.47C217.616 360.3 219.206 361.05 221.006 361.74C222.806 362.42 224.926 362.77 227.376 362.77C230.686 362.77 233.266 362.04 235.096 360.58C236.926 359.12 237.846 356.81 237.846 353.64C237.846 351.8 237.346 350.31 236.336 349.16C235.326 348.01 234.006 347.05 232.366 346.3C230.726 345.54 228.866 344.88 226.776 344.3C224.686 343.72 222.546 343.09 220.346 342.38C218.146 341.68 216.006 340.81 213.916 339.79C211.826 338.76 209.966 337.41 208.326 335.74C206.686 334.07 205.366 331.98 204.356 329.48C203.346 326.98 202.846 323.89 202.846 320.22C202.846 317.27 203.436 314.39 204.626 311.58C205.816 308.77 207.556 306.27 209.866 304.07C212.166 301.87 214.996 300.12 218.346 298.8C221.696 297.49 225.526 296.83 229.846 296.83C232.256 296.83 234.606 297.02 236.896 297.4C239.186 297.78 241.356 298.34 243.406 299.07C245.456 299.81 247.376 300.69 249.156 301.72C250.936 302.75 252.536 303.91 253.936 305.2L249.386 313.64Z" fill="white" fill-opacity="0.8"/>
<path d="M284.106 376.34H265.746V297.66H284.106V376.34Z" fill="white" fill-opacity="0.8"/>
<path d="M368.016 297.66V376.34H358.516C357.116 376.34 355.936 376.12 354.976 375.67C354.026 375.22 353.076 374.44 352.136 373.32L315.036 326.39C315.176 327.79 315.276 329.15 315.336 330.47C315.386 331.78 315.416 333.02 315.416 334.17V376.34H299.326V297.66H308.936C309.726 297.66 310.396 297.7 310.936 297.77C311.476 297.84 311.966 297.98 312.396 298.18C312.826 298.38 313.246 298.66 313.636 299.02C314.036 299.38 314.486 299.87 314.986 300.48L352.406 347.73C352.226 346.22 352.096 344.75 352.026 343.33C351.956 341.91 351.916 340.57 351.916 339.31V297.68H368.016V297.66Z" fill="white" fill-opacity="0.8"/>
<path d="M449.016 335.57V368.78C444.986 371.73 440.686 373.87 436.136 375.21C431.586 376.54 426.826 377.21 421.856 377.21C415.376 377.21 409.476 376.19 404.166 374.16C398.856 372.13 394.316 369.32 390.526 365.74C386.746 362.16 383.826 357.91 381.776 353C379.726 348.09 378.696 342.75 378.696 336.99C378.696 331.12 379.666 325.73 381.616 320.82C383.556 315.91 386.346 311.67 389.956 308.1C393.576 304.54 397.946 301.76 403.076 299.78C408.206 297.8 413.936 296.81 420.276 296.81C423.556 296.81 426.626 297.08 429.506 297.62C432.386 298.16 435.036 298.9 437.466 299.83C439.896 300.76 442.116 301.88 444.136 303.18C446.156 304.48 447.956 305.88 449.536 307.39L444.246 315.44C443.416 316.7 442.346 317.47 441.036 317.76C439.726 318.05 438.306 317.72 436.796 316.79C435.356 315.93 433.996 315.18 432.716 314.55C431.436 313.92 430.136 313.41 428.796 313.01C427.466 312.61 426.056 312.33 424.586 312.15C423.106 311.97 421.456 311.88 419.616 311.88C416.196 311.88 413.116 312.48 410.386 313.69C407.646 314.9 405.316 316.6 403.396 318.79C401.466 320.99 399.986 323.62 398.936 326.7C397.896 329.78 397.366 333.21 397.366 336.99C397.366 341.17 397.946 344.87 399.096 348.11C400.246 351.35 401.876 354.09 403.986 356.32C406.096 358.55 408.616 360.25 411.546 361.42C414.476 362.59 417.726 363.17 421.296 363.17C423.496 363.17 425.486 362.95 427.266 362.52C429.046 362.09 430.786 361.51 432.476 360.79V348.86H424.696C423.546 348.86 422.646 348.56 421.996 347.94C421.346 347.33 421.026 346.56 421.026 345.62V335.57H449.016Z" fill="white" fill-opacity="0.8"/>
<path d="M534.896 307.26C534.296 308.21 533.676 308.93 533.026 309.4C532.376 309.88 531.526 310.11 530.496 310.11C529.586 310.11 528.606 309.82 527.556 309.25C526.506 308.67 525.316 308.03 523.986 307.32C522.656 306.61 521.136 305.96 519.436 305.39C517.726 304.82 515.786 304.53 513.606 304.53C509.836 304.53 507.036 305.33 505.186 306.94C503.346 308.55 502.416 310.72 502.416 313.46C502.416 315.21 502.976 316.65 504.086 317.8C505.196 318.95 506.656 319.94 508.456 320.77C510.256 321.6 512.326 322.37 514.646 323.06C516.966 323.75 519.336 324.53 521.756 325.38C524.176 326.23 526.546 327.23 528.866 328.38C531.186 329.53 533.246 331 535.056 332.78C536.856 334.57 538.316 336.74 539.426 339.29C540.536 341.85 541.096 344.93 541.096 348.54C541.096 352.55 540.406 356.29 539.016 359.79C537.626 363.28 535.616 366.33 532.976 368.92C530.336 371.52 527.086 373.56 523.216 375.05C519.346 376.54 514.956 377.28 510.036 377.28C507.336 377.28 504.596 377 501.796 376.45C498.996 375.9 496.296 375.11 493.676 374.1C491.056 373.09 488.596 371.89 486.296 370.5C483.996 369.11 481.996 367.57 480.286 365.86L486.236 356.46C486.716 355.79 487.336 355.22 488.106 354.76C488.876 354.3 489.726 354.08 490.636 354.08C491.826 354.08 493.026 354.46 494.236 355.21C495.446 355.96 496.816 356.8 498.346 357.71C499.876 358.62 501.626 359.46 503.616 360.21C505.596 360.96 507.936 361.34 510.636 361.34C514.286 361.34 517.126 360.54 519.146 358.93C521.166 357.32 522.176 354.77 522.176 351.28C522.176 349.26 521.616 347.61 520.506 346.34C519.396 345.07 517.936 344.02 516.136 343.19C514.326 342.36 512.276 341.62 509.976 340.99C507.676 340.36 505.316 339.65 502.896 338.88C500.476 338.11 498.116 337.15 495.816 336.02C493.516 334.89 491.466 333.4 489.656 331.56C487.846 329.72 486.396 327.42 485.286 324.66C484.176 321.9 483.616 318.5 483.616 314.46C483.616 311.21 484.266 308.03 485.576 304.94C486.886 301.85 488.806 299.09 491.346 296.67C493.886 294.25 496.996 292.32 500.686 290.87C504.376 289.42 508.596 288.7 513.356 288.7C516.016 288.7 518.606 288.91 521.116 289.33C523.636 289.75 526.026 290.36 528.286 291.17C530.546 291.98 532.656 292.95 534.626 294.09C536.586 295.22 538.346 296.5 539.896 297.93L534.896 307.26Z" fill="white" fill-opacity="0.8"/>
<path d="M615.216 305.59H590.816V376.34H570.706V305.59H546.306V289.64H615.206V305.59H615.216Z" fill="white" fill-opacity="0.8"/>
<path d="M694.826 376.34H679.236C677.486 376.34 676.086 375.93 675.016 375.12C673.946 374.31 673.136 373.27 672.576 372L667.456 356.89H634.496L629.376 372C628.936 373.11 628.156 374.11 627.026 375C625.896 375.89 624.496 376.34 622.836 376.34H607.126L640.686 289.65H661.276L694.826 376.34ZM662.876 343.2L654.846 319.46C654.256 317.95 653.616 316.18 652.946 314.13C652.276 312.09 651.596 309.88 650.926 307.5C650.326 309.92 649.696 312.16 649.026 314.22C648.356 316.28 647.716 318.07 647.126 319.58L639.156 343.2H662.876Z" fill="white" fill-opacity="0.8"/>
<path d="M772.596 376.34H754.386C751.016 376.34 748.596 375.07 747.126 372.53L732.726 347.36C732.046 346.29 731.296 345.51 730.466 345.01C729.636 344.51 728.446 344.27 726.896 344.27H721.776V376.34H701.666V289.65H729.866C736.136 289.65 741.476 290.3 745.906 291.58C750.326 292.87 753.936 294.66 756.736 296.96C759.536 299.26 761.566 301.98 762.836 305.11C764.106 308.24 764.736 311.65 764.736 315.34C764.736 318.16 764.356 320.81 763.606 323.31C762.856 325.81 761.736 328.12 760.276 330.24C758.806 332.36 756.996 334.26 754.836 335.92C752.676 337.58 750.186 338.95 747.366 340.03C748.676 340.7 749.906 341.55 751.056 342.56C752.206 343.57 753.236 344.77 754.146 346.16L772.596 376.34ZM729.876 330.41C732.616 330.41 734.946 330.06 736.866 329.37C738.786 328.68 740.366 327.71 741.596 326.48C742.826 325.25 743.716 323.81 744.276 322.17C744.826 320.52 745.106 318.75 745.106 316.84C745.106 313.03 743.866 310.06 741.386 307.92C738.906 305.78 735.066 304.71 729.876 304.71H721.786V330.41H729.876Z" fill="white" fill-opacity="0.8"/>
<path d="M827.806 307.26C827.206 308.21 826.586 308.93 825.926 309.4C825.276 309.88 824.426 310.11 823.396 310.11C822.486 310.11 821.506 309.82 820.446 309.25C819.396 308.67 818.206 308.03 816.876 307.32C815.546 306.61 814.026 305.96 812.326 305.39C810.616 304.82 808.676 304.53 806.496 304.53C802.726 304.53 799.926 305.33 798.076 306.94C796.236 308.55 795.306 310.72 795.306 313.46C795.306 315.21 795.856 316.65 796.976 317.8C798.086 318.95 799.546 319.94 801.346 320.77C803.146 321.6 805.216 322.37 807.536 323.06C809.856 323.75 812.226 324.53 814.646 325.38C817.066 326.23 819.436 327.23 821.756 328.38C824.076 329.53 826.136 331 827.946 332.78C829.746 334.57 831.206 336.74 832.316 339.29C833.426 341.84 833.986 344.93 833.986 348.54C833.986 352.55 833.296 356.29 831.906 359.79C830.516 363.28 828.506 366.33 825.866 368.92C823.226 371.52 819.976 373.56 816.106 375.05C812.236 376.54 807.846 377.28 802.926 377.28C800.226 377.28 797.486 377 794.686 376.45C791.886 375.9 789.186 375.11 786.566 374.1C783.946 373.09 781.486 371.89 779.186 370.5C776.886 369.11 774.886 367.57 773.176 365.86L779.126 356.46C779.606 355.79 780.226 355.22 780.996 354.76C781.766 354.3 782.616 354.08 783.526 354.08C784.716 354.08 785.916 354.46 787.126 355.21C788.336 355.96 789.706 356.8 791.236 357.71C792.766 358.62 794.516 359.46 796.506 360.21C798.486 360.96 800.826 361.34 803.526 361.34C807.176 361.34 810.016 360.54 812.036 358.93C814.056 357.32 815.066 354.77 815.066 351.28C815.066 349.26 814.506 347.61 813.396 346.34C812.286 345.07 810.826 344.02 809.026 343.19C807.216 342.36 805.166 341.62 802.866 340.99C800.566 340.36 798.206 339.65 795.786 338.88C793.366 338.11 791.006 337.15 788.706 336.02C786.406 334.89 784.356 333.4 782.546 331.56C780.736 329.72 779.286 327.42 778.176 324.66C777.066 321.9 776.506 318.5 776.506 314.46C776.506 311.21 777.156 308.03 778.466 304.94C779.776 301.85 781.696 299.09 784.236 296.67C786.776 294.25 789.886 292.32 793.576 290.87C797.266 289.42 801.486 288.7 806.246 288.7C808.906 288.7 811.496 288.91 814.006 289.33C816.526 289.75 818.916 290.36 821.176 291.17C823.436 291.98 825.546 292.95 827.516 294.09C829.476 295.22 831.236 296.5 832.786 297.93L827.806 307.26Z" fill="white" fill-opacity="0.8"/>
</svg>
