<svg width="61" height="60" viewBox="0 0 61 60" fill="none" xmlns="http://www.w3.org/2000/svg">
<path d="M60.9226 16.294L60.3453 8.42533C60.0493 4.41 56.5413 0.902 52.526 0.606L44.7326 0.0313333L33.2713 0C31.0213 0 28.1273 1.19733 26.5393 2.78533L2.95931 26.3647C0.279973 29.0447 0.279974 33.4053 2.95997 36.084L24.8653 57.9907C26.162 59.288 27.8873 60 29.7246 60C31.562 60 33.288 59.288 34.5846 57.9893L58.1633 34.4113C59.732 32.8433 60.9553 29.88 60.95 27.6633L60.9226 16.294ZM55.85 32.0973L32.27 55.6773C31.594 56.354 30.6906 56.7253 29.7253 56.7253C28.7593 56.7253 27.8546 56.3527 27.1793 55.6773L5.27397 33.7707C4.59731 33.0953 4.22531 32.1913 4.22531 31.2253C4.22531 30.2593 4.59797 29.3553 5.27397 28.6807L28.8553 5.1C29.81 4.144 31.9153 3.27333 33.272 3.27333V2.71533L33.28 3.272L44.548 3.29867L52.284 3.86933C54.706 4.04867 56.902 6.24533 57.08 8.66667L57.6493 16.358L57.6766 27.6713C57.6806 29.0287 56.8086 31.1387 55.85 32.0973Z" fill="#0057B8"/>
<path d="M47.3253 6.94467C45.5413 6.94467 43.8653 7.63933 42.608 8.9C41.3453 10.16 40.6506 11.8367 40.6506 13.6213C40.6506 15.4053 41.3453 17.082 42.6066 18.3433C43.866 19.604 45.5426 20.2987 47.3266 20.2987C49.1106 20.2987 50.788 19.604 52.0506 18.342C54.6533 15.7373 54.652 11.5013 52.048 8.89933C50.7866 7.63933 49.1086 6.94467 47.3253 6.94467ZM49.7366 16.0287C49.092 16.672 48.2366 17.0267 47.3266 17.0267C46.418 17.0267 45.5626 16.6733 44.9206 16.0307C44.2786 15.388 43.924 14.5327 43.924 13.6227C43.924 12.7133 44.2786 11.858 44.922 11.2147C45.5626 10.5713 46.4166 10.2173 47.3253 10.2173C48.2353 10.2173 49.0913 10.572 49.7353 11.2147C51.0626 12.5413 51.0626 14.7007 49.7366 16.0287Z" fill="#0057B8"/>
<path d="M29.7693 21.4093C29.7693 20.9727 29.5993 20.5613 29.29 20.2527C28.6713 19.6347 27.5933 19.6347 26.976 20.2527L13.87 33.3607C13.5606 33.6693 13.3906 34.08 13.3906 34.5167C13.3906 34.954 13.5606 35.364 13.87 35.6727C14.1786 35.9827 14.5893 36.1533 15.0266 36.1533C15.464 36.1533 15.8746 35.9827 16.184 35.6727L29.29 22.5667C29.5993 22.258 29.7693 21.8473 29.7693 21.4093Z" fill="#0057B8"/>
<path d="M32.6213 29.9653C32.6213 29.528 32.45 29.1173 32.1406 28.8093C31.5226 28.1913 30.4453 28.1913 29.828 28.8093L19.5726 39.0653C18.934 39.7033 18.934 40.7413 19.5726 41.3793C19.8813 41.6887 20.292 41.8587 20.7286 41.8587C21.1666 41.8587 21.5773 41.6887 21.8866 41.3793L32.1406 31.1227C32.4506 30.8133 32.6213 30.4027 32.6213 29.9653Z" fill="#0057B8"/>
<path d="M38.382 31.6613L25.2766 44.7667C24.6386 45.4033 24.6386 46.4427 25.2766 47.0807C25.586 47.39 25.9966 47.56 26.434 47.56C26.8706 47.56 27.2813 47.39 27.59 47.0807L40.6966 33.9753C41.3353 33.3373 41.3353 32.2987 40.6966 31.6613C40.0786 31.042 39 31.0427 38.382 31.6613Z" fill="#0057B8"/>
</svg>
